<svg width="299" height="50" viewBox="0 0 299 50" fill="none" xmlns="http://www.w3.org/2000/svg">
<g clip-path="url(#clip0_459_557)">
<path d="M205.934 49.5033C192.285 49.5033 181.182 38.4005 181.182 24.7517C181.182 11.1029 192.285 0 205.934 0C219.583 0 230.685 11.1029 230.685 24.7517C230.685 38.4005 219.583 49.5033 205.934 49.5033ZM205.934 1.53185C193.131 1.53185 182.714 11.9484 182.714 24.7517C182.714 37.5549 193.131 47.9715 205.934 47.9715C218.737 47.9715 229.154 37.5549 229.154 24.7517C229.154 11.9484 218.737 1.53185 205.934 1.53185Z" fill="white"/>
<path d="M185.125 36.0783V34.9661C185.125 34.9324 185.134 34.8987 185.153 34.8712L198.875 14.1758C198.951 14.0594 198.869 13.9062 198.731 13.9062H185.459C185.364 13.9062 185.284 13.8296 185.284 13.7316V12.5184C185.284 12.4234 185.361 12.3438 185.459 12.3438H201.05C201.145 12.3438 201.225 12.4203 201.225 12.5184V13.6305C201.225 13.6642 201.216 13.6979 201.197 13.7255L187.472 34.4208C187.395 34.5372 187.478 34.6904 187.616 34.6904H201.209C201.304 34.6904 201.384 34.767 201.384 34.865V36.0783C201.384 36.1732 201.307 36.2529 201.209 36.2529H185.3C185.205 36.2529 185.125 36.1763 185.125 36.0783V36.0783Z" fill="white"/>
<path d="M200.925 16.6635V1.36035H202.806V16.6942C202.806 21.0937 205.26 24.0256 209.531 24.0256C213.802 24.0256 216.354 21.0937 216.354 16.6942V2.75434L218.042 3.88791V16.6635C218.042 22.0189 214.917 25.5881 209.531 25.5881C204.145 25.5881 200.925 22.0189 200.925 16.6635Z" fill="white"/>
<path d="M202.622 23.6026V48.3451H200.934V20.11H203.005L211.81 35.4959C211.877 35.6123 212.046 35.6123 212.113 35.4959L220.725 20.2846C220.786 20.1743 220.903 20.1069 221.028 20.1069H222.726C222.821 20.1069 222.9 20.1835 222.9 20.2816V42.8917L221.019 44.0161V23.5107C221.019 23.333 220.783 23.2687 220.694 23.4249L212.545 37.8764C212.484 37.9867 212.367 38.0541 212.242 38.0541H211.402C211.277 38.0541 211.163 37.9867 211.099 37.8795L202.95 23.5168C202.861 23.3606 202.625 23.4249 202.625 23.6026H202.622Z" fill="white"/>
<path d="M201.503 16.9819H200.934V20.7962H201.503V16.9819Z" fill="white"/>
<path d="M222.637 12.3745H221.225C221.081 12.3745 220.964 12.4911 220.964 12.6349V16.4278C220.964 16.5716 221.081 16.6882 221.225 16.6882H222.637C222.781 16.6882 222.898 16.5716 222.898 16.4278V12.6349C222.898 12.4911 222.781 12.3745 222.637 12.3745Z" fill="white"/>
</g>
<path d="M243.296 21.5411V22.4651H246.18V21.5411H243.296ZM247.986 21.5411V22.4651H250.954V21.5411H247.986ZM250.366 19.5951V30.5851C250.366 30.7811 250.296 30.8511 250.114 30.8511C249.932 30.8511 249.344 30.8651 248.728 30.8371C248.882 31.1591 249.036 31.7191 249.078 32.0411C250.03 32.0411 250.646 32.0131 251.038 31.8031C251.444 31.6071 251.57 31.2431 251.57 30.5991V19.5951H250.366ZM242.736 19.5951V32.0271H243.926V19.5951H242.736ZM243.324 19.5951V20.6031H245.578V23.4451H243.324V24.4531H246.67V19.5951H243.324ZM245.018 27.3091V28.2751H249.232V27.3091H245.018ZM244.794 25.3491V26.3431H249.512V25.3491H244.794ZM244.556 29.4651V30.4591H249.764V29.4651H244.556ZM250.926 19.5951H247.496V24.4531H250.926V23.4451H248.63V20.6031H250.926V19.5951ZM239.586 20.1271C240.37 20.5191 241.336 21.1491 241.784 21.6111L242.582 20.5471C242.092 20.0991 241.126 19.5251 240.342 19.1751L239.586 20.1271ZM239.068 23.8931C239.866 24.2431 240.846 24.8311 241.322 25.2651L242.092 24.1871C241.602 23.7531 240.608 23.2351 239.796 22.9131L239.068 23.8931ZM239.264 31.1731L240.468 31.8731C241.056 30.5431 241.728 28.8631 242.232 27.3791L241.168 26.6931C240.594 28.2891 239.824 30.0951 239.264 31.1731ZM246.544 26.0071V29.8851H247.636V26.0071H246.544ZM255.966 19.7631V23.8651C255.966 26.0911 255.84 29.2131 254.398 31.3691C254.734 31.5091 255.322 31.8451 255.574 32.0691C257.086 29.7871 257.296 26.2591 257.296 23.8651V19.7631H255.966ZM256.862 19.7631V20.9391H265.094V22.2271H256.862V23.3891H266.424V19.7631H256.862ZM256.848 24.7891V25.9791H267.18V24.7891H256.848ZM258.864 30.4171V31.5791H265.556V30.4171H258.864ZM261.496 23.3051V27.8551H262.826V23.3051H261.496ZM258.192 27.4071V32.0271H259.466V28.5831H264.884V32.0131H266.2V27.4071H258.192ZM270.484 20.2251V22.5631H271.688V21.2751H281.082V22.5631H282.342V20.2251H270.484ZM275.93 22.1711C275.874 23.0391 275.762 24.1311 275.622 24.8451H276.756C276.868 24.1591 276.966 23.0671 277.036 22.1711H275.93ZM273.2 27.5751H279.626V28.1351H273.2V27.5751ZM273.2 28.8211H279.626V29.3951H273.2V28.8211ZM273.2 26.3571H279.626V26.8891H273.2V26.3571ZM271.926 25.6291V30.1091H280.97V25.6291H271.926ZM277.162 30.7251C278.786 31.1731 280.438 31.7051 281.446 32.0971L282.342 31.2711C281.236 30.8791 279.472 30.3611 277.848 29.9551L277.162 30.7251ZM273.648 22.5631H279.248L279.094 24.3971H273.41L273.648 22.5631ZM272.556 21.8491L272.136 25.1251H280.242L280.55 21.8491H272.556ZM274.628 29.9691C273.746 30.4451 271.814 30.9631 270.288 31.1871C270.512 31.4251 270.834 31.8451 271.002 32.0971C272.584 31.8451 274.502 31.3131 275.678 30.6831L274.628 29.9691ZM270.05 22.9691V23.9491H273.144V23.8231H279.57V23.9491H282.804V22.9691H279.57V23.0951H273.144V22.9691H270.05ZM275.258 19.2731C275.58 19.7631 275.93 20.4491 276.042 20.8971L277.274 20.5191C277.12 20.0711 276.756 19.3991 276.406 18.9231L275.258 19.2731ZM285.646 27.6451V28.7511H298.008V27.6451H285.646ZM285.688 21.4431V22.5071H297.952V21.4431H285.688ZM286.262 23.9211V24.9571H297.434V23.9211H286.262ZM286.962 25.8111V26.7911H296.762V25.8111H286.962ZM291.12 24.4111V32.0411H292.436V24.4111H291.12ZM289.888 19.0211V21.9751H291.12V19.0211H289.888ZM292.506 19.0211V21.9051H293.766V19.0211H292.506ZM295.754 19.1751C295.53 19.8051 295.11 20.7011 294.746 21.2751L295.824 21.6251C296.202 21.0791 296.692 20.2951 297.126 19.5251L295.754 19.1751ZM293.976 22.4371C293.794 22.8151 293.43 23.3891 293.164 23.7811L294.27 24.1171C294.592 23.7811 294.984 23.3051 295.362 22.8011L293.976 22.4371ZM286.78 19.5391C287.214 20.1831 287.676 21.0651 287.858 21.6251L289.048 21.1771C288.866 20.6171 288.376 19.7631 287.914 19.1471L286.78 19.5391ZM288.474 22.7031C288.754 23.1371 289.048 23.7251 289.16 24.0891L290.448 23.7671C290.308 23.3891 290 22.8291 289.72 22.4231L288.474 22.7031ZM289.622 29.3531C288.74 29.9271 287.018 30.4451 285.576 30.6691C285.842 30.9071 286.206 31.3411 286.374 31.6351C287.83 31.3131 289.608 30.5851 290.588 29.8011L289.622 29.3531ZM293.206 29.9411C294.48 30.4311 296.216 31.1731 297.084 31.6211L297.98 30.8511C297.042 30.4031 295.306 29.7171 294.06 29.2691L293.206 29.9411Z" fill="white"/>
<path d="M66.7756 28.2221V20.867H69.7044V28.2221H66.7756ZM64.6836 19.4209C64.3239 19.7219 63.9055 20.0228 63.4284 20.3165L62.753 20.0008V28.2221H61.5933V29.4039H65.6011C64.5221 30.2994 63.2082 30.9894 61.652 31.4959L62.7017 32.553C63.8835 32.0465 65.1534 31.2977 66.4967 30.3288C66.6728 30.2994 66.7829 30.2701 66.7829 30.2114C66.7829 30.1526 66.7389 30.0792 66.6655 30.0132L65.8874 29.3966H74.9602V28.2148H73.793V19.6338H71.1652V20.8009H72.5745V22.5626H71.1065V23.671H72.5745V25.3006H71.1065V26.409H72.5745V28.2148H70.7615V19.8173H65.7406V28.2148H63.9936V26.409H65.3369V25.3006H63.9936V23.671H65.3369V22.5626H63.9936V21.2047C64.4413 20.9918 64.8597 20.7863 65.2782 20.5734C65.4984 20.5734 65.6232 20.544 65.6232 20.4559C65.6232 20.3972 65.5938 20.3238 65.5498 20.2577L64.6983 19.4062L64.6836 19.4209ZM67.0766 21.8139V22.7388H69.286V21.8139H67.0766ZM67.194 23.8619V27.4807H69.2273V23.8619H67.194ZM68.4199 26.5999H68.0014V24.7281H68.4199V26.5999ZM70.8716 29.47L69.8145 30.16C71.0551 31.1436 72.3396 31.951 73.6683 32.6117L75.0116 31.5693C73.3526 30.9748 71.98 30.2848 70.8716 29.4773V29.47Z" fill="white"/>
<path d="M86.7341 25.4996H81.5077V24.6481H86.7341V25.4996ZM83.497 19.2603V20.2879H77.999V23.1727H79.3056V21.4183H88.9363V23.1727H90.2429V20.2879H84.8623V19.8842C85.0385 19.7374 85.1413 19.6273 85.1413 19.5539C85.1413 19.4511 85.0091 19.3924 84.7816 19.363L83.5043 19.2603H83.497ZM79.8121 22.101V23.114H88.4885V22.101H79.8121V22.101ZM80.2599 23.6865V26.4539H87.982V23.6865H80.2599V23.6865ZM79.0707 26.9677V32.3629H80.3773V31.8417H87.8058V32.3629H89.1124V26.9677H79.0781H79.0707ZM80.3773 30.77V29.8672H83.4383V30.77H80.3773ZM84.6862 30.77V29.8672H87.8058V30.77H84.6862ZM80.3773 28.8982V28.0541H83.4383V28.8982H80.3773ZM84.6862 28.0541H87.8058V28.8982H84.6862V28.0541Z" fill="white"/>
<path d="M100.909 28.6252H103.023C102.707 29.1904 102.384 29.6235 102.039 29.9171C102.039 29.9171 102.034 29.9122 102.025 29.9024C101.628 29.6161 101.327 29.3225 101.129 28.9922C101.048 28.8748 100.96 28.75 100.901 28.6252H100.909ZM94.1262 20.0075V21.1159H97.8111C97.3854 21.6151 97.0037 21.9821 96.6293 22.2243C96.5265 22.2977 96.4311 22.3638 96.343 22.4225C95.9467 22.0849 95.4915 21.7692 94.963 21.4536L94.1262 22.2243C94.5226 22.4813 94.897 22.7382 95.264 23.0024C94.552 23.3474 93.7739 23.6117 92.9077 23.8392L93.6858 24.7788C94.1703 24.632 94.6547 24.4485 95.1245 24.2503V24.5513H97.4588V25.7771H95.0805C94.8236 27.0837 94.4712 28.2949 94.0161 29.3886H95.1832C95.2273 29.2858 95.2713 29.1757 95.3227 29.0583H97.3854C97.3266 29.7997 97.2312 30.2768 97.0844 30.475C96.9523 30.7172 96.7835 30.8714 96.5559 30.9301C96.3137 31.0182 95.5576 31.0622 94.2951 31.0622L94.8529 32.2293C96.0054 32.2293 96.8128 32.1413 97.2973 31.9724C97.7524 31.8036 98.0387 31.5173 98.1781 31.1063C98.4057 30.6805 98.5231 29.6308 98.5231 27.9499H95.7044C95.7998 27.6122 95.9026 27.2672 95.9907 26.9002H98.6406V26.702L99.5802 27.1718C100.101 26.8268 100.49 26.4157 100.747 25.9533C101.004 25.5129 101.129 25.0284 101.129 24.5146H102.135V25.7331C102.135 26.658 102.531 27.1131 103.346 27.1131H103.97C104.359 27.1131 104.652 27.0397 104.865 26.8708C105.063 26.7167 105.232 26.2983 105.408 25.6156L104.3 25.2192C104.183 25.6743 104.102 25.9313 104.043 25.99C103.97 26.0487 103.889 26.056 103.801 26.056H103.405C103.331 26.056 103.302 25.8579 103.302 25.4468V23.6557C103.911 24.0007 104.638 24.3384 105.46 24.6687L106.304 23.5603C105.475 23.3327 104.755 23.0611 104.153 22.7749C104.535 22.562 104.924 22.3491 105.291 22.1216C105.519 22.1216 105.629 22.0922 105.629 22.0115C105.629 21.9527 105.599 21.8867 105.563 21.828L104.74 21.0058C104.285 21.4316 103.742 21.828 103.133 22.2317C102.964 22.1216 102.795 21.9894 102.648 21.8793C102.56 21.8206 102.494 21.7546 102.421 21.6812C102.832 21.3949 103.236 21.1086 103.632 20.8003C103.86 20.8003 103.97 20.7709 103.97 20.6829C103.97 20.6241 103.94 20.5581 103.882 20.4993L103.074 19.6919C102.693 20.1176 102.252 20.5434 101.753 20.9691C101.496 20.6388 101.268 20.2718 101.07 19.846L99.9619 20.1323C100.476 21.2701 101.136 22.1656 101.966 22.7896C102.223 23.0024 102.509 23.2006 102.847 23.3988H100.021V24.5219C100.021 24.9183 99.8885 25.3 99.6242 25.7037C99.426 25.99 99.0957 26.2689 98.6406 26.5258V23.4575H96.7614C97.6129 23.0024 98.5085 22.1803 99.4627 20.9691C99.7196 20.881 99.8444 20.7856 99.8444 20.6829C99.8444 20.6241 99.8151 20.5581 99.771 20.4847L99.2719 19.8901C99.1838 19.7653 99.103 19.6919 99.0149 19.6919C98.9562 19.6919 98.9048 19.7359 98.8461 19.7947C98.7874 19.8827 98.736 19.9488 98.6773 20.0222H94.1262V20.0075ZM99.1324 27.5094V28.6179H99.8591C99.9178 28.816 99.9912 28.9996 100.101 29.1831C100.329 29.6675 100.652 30.0933 101.085 30.475C101.085 30.4897 101.1 30.5043 101.114 30.5043C100.872 30.6218 100.6 30.7319 100.322 30.82C99.8518 30.9741 99.2425 31.1063 98.4718 31.2164L99.2425 32.266C100.454 32.0091 101.415 31.6715 102.157 31.2604C102.325 31.3558 102.494 31.4586 102.7 31.5467C103.302 31.833 104.006 32.0752 104.858 32.2734L105.856 31.165C104.975 31.0475 104.278 30.9227 103.742 30.7392C103.529 30.6805 103.331 30.5998 103.148 30.5117C103.603 30.0566 104.028 29.418 104.425 28.6179C104.682 28.4784 104.807 28.3609 104.807 28.2729C104.807 28.1994 104.763 28.1334 104.696 28.06L104.073 27.5021C103.984 27.436 103.904 27.392 103.816 27.392C103.786 27.392 103.735 27.436 103.632 27.5021H99.1544L99.1324 27.5094Z" fill="white"/>
<path d="M118.085 21.5051H119.788V22.2685H118.085V21.5051ZM114.188 20.404V21.5051H116.823V22.2685H113.035V23.3769H116.823V24.1403H114.188V25.2414H116.823V26.1295H113.85V27.2306H116.823V28.1041H113.417V29.2712H116.823V30.7614C115.839 30.7026 115.105 30.6219 114.613 30.4898C113.828 30.3503 113.138 30.086 112.543 29.7043C112.573 29.6383 112.602 29.5649 112.631 29.4768C113.079 28.4051 113.336 26.7315 113.417 24.4853H111.633L113.094 21.5124C113.307 21.3876 113.417 21.2555 113.417 21.116C113.417 21.0573 113.373 20.9986 113.292 20.9472L112.602 20.5141C112.485 20.4554 112.374 20.4187 112.264 20.4187L111.941 20.5141H109.578V21.6666H111.655L109.519 26.1809L110.613 26.5626L111.068 25.6377H112.206C112.11 27.0177 111.897 28.0968 111.56 28.8749C111.237 28.5372 110.884 28.0748 110.503 27.5095L109.519 27.8912C110.011 28.8235 110.473 29.5135 110.928 29.9612C110.481 30.5558 109.945 31.0183 109.299 31.3559L110.231 32.3395C110.906 31.9138 111.486 31.3926 111.934 30.7614C112.352 31.0256 112.808 31.2532 113.314 31.422C114.004 31.6642 114.892 31.8477 115.971 31.9578C117.293 32.0973 119.194 32.1854 121.667 32.1854L122.269 30.8054C121.594 30.8494 121.051 30.8641 120.625 30.8641C119.678 30.8641 118.834 30.8494 118.093 30.8201V29.2712H121.499V28.1041H118.093V27.2306H121.176V26.1295H118.093V25.2414H120.999V23.3842H122.269V22.2758H120.999V20.4187H118.093V20.2499C118.232 20.1104 118.313 20.0003 118.313 19.9122C118.313 19.8168 118.203 19.7581 117.975 19.7434L116.823 19.6479V20.4187H114.188V20.404ZM118.085 23.3695H119.788V24.1329H118.085V23.3695Z" fill="white"/>
<path d="M126.292 25.6309V26.6732H130.3V25.6309H126.292ZM126.351 19.8613V20.9037H130.249V19.8613H126.351ZM125.8 21.7185V22.8195H130.85V21.7185H125.8ZM126.292 23.7591V24.8014H130.3V23.7591H126.292ZM126.123 27.6569V32.2153H127.276V31.4519H129.426V32.1125H130.579V27.6495H126.116L126.123 27.6569ZM127.276 30.4169V28.6992H129.426V30.4169H127.276V30.4169ZM132.062 19.9054C132.062 21.4542 131.966 22.4231 131.768 22.7902C131.57 23.2379 131.188 23.7224 130.63 24.1995L131.577 24.9703C132.186 24.361 132.605 23.7738 132.854 23.1792C133.067 22.7021 133.192 21.9533 133.251 20.9551H134.932V23.2086C134.932 24.1702 135.35 24.6326 136.209 24.6326H136.855C137.332 24.6326 137.699 24.5225 137.949 24.2803C138.191 24.0527 138.418 23.4508 138.609 22.4892L137.457 22.1075C137.369 22.8636 137.303 23.2893 137.244 23.3994C137.185 23.4875 137.119 23.5242 137.031 23.5242H136.312C136.187 23.5242 136.128 23.326 136.128 22.9149V19.8907H132.062V19.9054ZM131.68 25.5208V26.6219H135.842C135.475 27.7082 135.086 28.5083 134.66 29.0295C134.572 29.1543 134.477 29.2718 134.359 29.3819C133.655 28.8166 132.979 28.0312 132.333 27.0036L131.445 27.5541C132.12 28.6698 132.781 29.5287 133.434 30.1306C133.221 30.27 132.994 30.3875 132.759 30.4976C132.253 30.7545 131.577 30.96 130.733 31.1289L131.563 32.2299C132.715 31.8776 133.677 31.4298 134.433 30.894C135.277 31.4298 136.371 31.8776 137.714 32.2299L138.492 31.0335C137.2 30.7692 136.172 30.4315 135.409 30.0352C136.055 29.3158 136.635 28.2074 137.171 26.6879C137.42 26.5631 137.567 26.4457 137.567 26.3503C137.567 26.2695 137.523 26.1961 137.442 26.1154L136.796 25.4914C136.701 25.4033 136.598 25.3666 136.517 25.3666C136.488 25.3666 136.393 25.4254 136.253 25.5355H131.695L131.68 25.5208Z" fill="white"/>
<path d="M26.5796 1.97998C13.6311 1.97998 3.11963 6.33285 3.11963 11.6693C3.11963 15.5524 8.68367 18.907 16.6994 20.4485V15.1487C16.6994 13.1154 16.4352 12.9319 13.6311 12.9319V11.963H23.1296V12.9319C20.6926 12.9319 20.4724 13.086 20.4724 15.0606V20.977H32.9585V15.09C32.9585 13.086 32.7236 12.9392 30.3012 12.9392V11.9703H39.7851V12.9392C36.959 12.9392 36.7241 13.1227 36.7241 15.156V20.4191C44.6077 18.8556 50.0543 15.5231 50.0543 11.684C50.0543 6.34753 39.5502 1.99466 26.5796 1.99466" fill="white"/>
<path d="M36.7315 23.0404V29.3458C36.7315 31.3498 36.959 31.5773 39.7924 31.5773V32.5536H30.3086V31.5773C32.731 31.5773 32.9658 31.3718 32.9658 29.3899V22.6514H20.4724V29.3899C20.4724 31.3718 20.6927 31.5773 23.1297 31.5773V32.5536H13.6312V31.5773C16.4352 31.5773 16.6995 31.3498 16.6995 29.3458V23.0551C6.9 24.7067 0 28.6705 0 33.2876C0 39.3802 11.9869 44.3276 26.7779 44.3276C41.5688 44.3276 53.5557 39.3875 53.5557 33.2876C53.5557 28.6412 46.597 24.6626 36.7241 23.0404" fill="white"/>
<path d="M39.8659 12.947V11.978H30.3747V12.947C32.7824 12.947 33.0319 13.1085 33.0319 15.1124V21.0141H20.5312V15.083C20.5312 13.1085 20.7588 12.947 23.2031 12.947V11.978H13.6973V12.947C16.5086 12.947 16.7582 13.1378 16.7582 15.1564V29.3602C16.7582 31.3714 16.5086 31.5843 13.6973 31.5843V32.5532H23.2031V31.5843C20.7588 31.5843 20.5312 31.3935 20.5312 29.4189V22.6437H33.0319V29.4189C33.0319 31.4008 32.7897 31.5843 30.3747 31.5843V32.5606H39.8659V31.5843C37.0325 31.5843 36.8049 31.3714 36.8049 29.3602V15.1564C36.8049 13.1378 37.0325 12.947 39.8659 12.947Z" fill="#011122"/>
<defs>
<clipPath id="clip0_459_557">
<rect width="49.5033" height="49.5033" fill="white" transform="translate(181.182)"/>
</clipPath>
</defs>
</svg>
