<svg width="120" height="44" viewBox="0 0 120 44" fill="none" xmlns="http://www.w3.org/2000/svg">
<g style="mix-blend-mode:multiply" opacity="0.53">
<path d="M20.8899 27.8724H14.5803C16.7374 28.8812 19.0269 30.0711 20.4193 30.9231L18.6445 32.9651C17.2081 31.9759 14.7372 30.5216 12.4918 29.4688L13.7469 27.8773H6.9029L8.90315 29.4933C6.95193 30.7713 4.16727 32.1865 1.96602 33.0581C1.60814 32.495 0.931583 31.6234 0.460938 31.0602C2.48079 30.2963 5.13308 28.9742 6.61365 27.8773H0.460938V25.4339H2.07878L1.76502 13.6816C3.02007 13.3241 4.48104 12.761 5.49097 12.2664L6.61365 14.4406V13.187H14.7617V25.4339H17.0316C17.0757 24.8071 17.1002 24.1558 17.1444 23.4605H15.2569V21.3499H17.2326C17.2571 20.7232 17.2767 20.0719 17.2767 19.4206H15.4334V17.2905H17.3405C17.3405 16.5707 17.365 15.8998 17.365 15.2045H15.3647V13.0499H19.6986C19.6545 16.9771 19.4976 21.9522 19.2966 25.429H20.8899V27.8724ZM4.31925 25.429H6.60875V14.5483C5.7557 14.7932 4.90266 15.0429 4.04961 15.2437L4.11825 17.2611H6.06947V19.3912H4.16237L4.2065 21.2961H6.09398V23.4262H4.27513L4.31925 25.4241V25.429ZM8.47172 15.18V25.429H12.8301V15.1751H8.47172V15.18ZM12.2908 17.9614H8.9914V16.3259H12.3153L12.2908 17.9614ZM9.07964 19.0583H12.3153V24.1019H9.07964V19.0583ZM10.1778 22.579H11.1877V20.5811H10.1778V22.579Z" fill="#231815"/>
<path d="M45.1377 13.2703V18.0985H42.5002V15.4836H28.724V18.0985H26.2188V13.2703H34.205C34.0285 12.8296 33.8275 12.3595 33.6706 11.9873L36.5337 11.434C36.823 12.0118 37.176 12.6974 37.3966 13.2752H45.1377V13.2703ZM27.3709 24.2146H44.0052V32.4118H41.3873V31.8339H29.8761V32.4558H27.3709V24.2146ZM28.9887 18.8967H42.1864V23.3919H28.9887V18.8967ZM41.6765 16.3503V18.123H29.5427V16.3503H41.6765ZM29.8761 26.1194V27.2065H34.2688V26.1194H29.8761ZM34.2688 29.9291V28.842H29.8761V29.9291H34.2688ZM31.4057 21.7074H39.6125V20.6203H31.4057V21.7074ZM41.3873 26.1145H36.8377V27.2016H41.3873V26.1145ZM41.3873 29.9242V28.8371H36.8377V29.9242H41.3873Z" fill="#231815"/>
<path d="M70.0035 16.1104C69.1603 16.8645 68.2092 17.5745 67.3856 18.1475C68.3612 18.6567 69.425 19.0778 70.5575 19.3863C70.0035 19.8956 69.3368 20.826 68.9838 21.4675C68.0719 21.1786 67.2532 20.826 66.4541 20.4049V22.3097C66.4541 22.8435 66.4982 23.0197 66.7875 23.0197H67.8758C68.1847 23.0197 68.7191 22.9953 69.0083 22.9071C69.0524 23.4409 69.0966 24.1901 69.1848 24.6993C68.876 24.812 68.3661 24.8315 67.9003 24.8315H66.5227C64.6598 24.8315 64.3068 24.0774 64.3068 22.2852V21.0023H62.2673C62.1987 22.5545 61.6692 24.2146 59.8258 25.3898C59.5807 25.0127 58.9385 24.3712 58.4972 23.9697V24.6357H54.1045C54.0163 25.1449 53.9477 25.6787 53.8839 26.1635H58.4972C58.4972 26.1635 58.4727 26.7609 58.4531 27.0743C58.208 30.0662 57.9432 31.5058 57.3647 32.0837C56.899 32.5929 56.3646 32.7692 55.59 32.8133C54.9919 32.8818 53.8398 32.8818 52.6632 32.8378C52.6191 32.1522 52.3102 31.2414 51.9082 30.644C53.0162 30.7322 54.1045 30.7566 54.5899 30.7566C54.9429 30.7566 55.188 30.7322 55.389 30.5363C55.6538 30.2914 55.8548 29.5814 56.0116 28.0781H51.3542C51.6631 26.6385 52.021 24.4447 52.2171 22.6966H56.144V21.1443H52.9279V20.7917C52.2612 21.1247 51.5993 21.4136 50.9081 21.6535C50.5992 21.0757 49.9521 20.1894 49.4863 19.7242C50.7953 19.3472 52.0602 18.7498 53.2123 18.0201C52.6142 17.5794 51.815 17.0653 51.1483 16.6931L52.6583 15.2975C53.4133 15.6746 54.3448 16.2083 54.987 16.6931C55.4527 16.2524 55.8989 15.7823 56.2715 15.273H51.9033V13.2115H57.6932L58.1344 13.0989L59.7523 13.8971C58.8649 16.0663 57.3795 17.7949 55.5802 19.1464H58.4874V23.5535C59.8651 22.6427 60.0612 21.5801 60.0612 20.586V19.0142H64.297C62.3654 17.4864 60.8799 15.513 59.816 13.1429L61.9241 12.5211C62.2575 13.2752 62.6791 13.9852 63.189 14.6022C63.9195 13.9803 64.7431 13.1821 65.2726 12.5651L67.1601 13.9166C66.2482 14.6707 65.2971 15.4689 64.4538 16.0663C64.8313 16.4189 65.2285 16.7519 65.6305 17.0653C66.4737 16.3993 67.4934 15.4689 68.0915 14.7589L69.9986 16.1104H70.0035ZM68.3857 25.9039C67.8317 27.5199 67.0081 28.8077 65.9442 29.8458C66.9443 30.3992 67.8513 30.9525 68.5181 31.3981L67.1895 33.1463C66.4345 32.6125 65.3706 31.927 64.1744 31.2169C62.7772 32.0788 61.0711 32.7007 59.2277 33.1218C59.0071 32.544 58.5414 31.7017 58.1197 31.2169C59.5611 30.9721 60.9142 30.551 62.0663 29.9781C60.9779 29.3806 59.9386 28.7832 58.9826 28.274L59.87 27.2114H59.3356V25.4632H66.5423L66.9394 25.3947L68.3808 25.9039H68.3857ZM61.0221 27.2114C61.9535 27.7011 62.9733 28.2103 63.9734 28.7637C64.5078 28.2985 64.9735 27.7892 65.3706 27.2114H61.0221Z" fill="#231815"/>
<path d="M2.3533 43.7625V39.5072H1.07373V39.1106H4.06429V39.5072H2.77982V43.7625H2.3582H2.3533Z" fill="#231815"/>
<path d="M3.59375 43.0672L5.33416 38.9539L7.00103 43.0672H6.60883L6.10386 41.7254H4.48602L3.96144 43.0672H3.59865H3.59375ZM4.60368 41.4169H5.9813L5.30474 39.6982L4.60368 41.4169Z" fill="#231815"/>
<path d="M7.44678 43.0672V39.1106H7.80466V43.0672H7.44678Z" fill="#231815"/>
<path d="M9.73159 43.219L8.36377 39.1106H8.74127L9.73159 42.269L10.7856 38.9539L11.8789 42.2445L12.83 39.1106H13.2026L11.8789 43.219L10.7856 39.8598L9.73159 43.219Z" fill="#231815"/>
<path d="M13.1289 43.0672L14.8693 38.9539L16.5362 43.0672H16.144L15.639 41.7254H14.0212L13.4966 43.0672H13.1338H13.1289ZM14.1388 41.4169H15.5165L14.8399 39.6982L14.1388 41.4169Z" fill="#231815"/>
<path d="M16.9776 43.0574V38.9343L19.7818 42.2445V39.1008H20.1152V43.1749L17.3109 39.8598V43.0574H16.9727H16.9776Z" fill="#231815"/>
<path d="M24.0225 43.7625V38.9098L27.3219 42.8027V39.1057H27.7141V43.8947L24.4147 39.992V43.7576H24.0176L24.0225 43.7625Z" fill="#231815"/>
<path d="M32.7734 41.1868C32.7734 41.4659 32.7195 41.7303 32.6116 41.985C32.5038 42.2347 32.3518 42.4599 32.1508 42.6558C31.9449 42.8517 31.7145 43.0035 31.4595 43.1063C31.2046 43.2092 30.935 43.263 30.6457 43.263C30.3565 43.263 30.0917 43.2092 29.8368 43.1063C29.5819 43.0035 29.3514 42.8517 29.1504 42.6558C28.9494 42.4551 28.7926 42.2298 28.6896 41.9801C28.5817 41.7303 28.5327 41.4659 28.5327 41.1868C28.5327 40.9077 28.5866 40.6384 28.6896 40.3837C28.7975 40.134 28.9494 39.9087 29.1504 39.708C29.3465 39.5121 29.577 39.3652 29.8319 39.2624C30.0868 39.1595 30.3565 39.1106 30.6506 39.1106C30.9448 39.1106 31.2144 39.1595 31.4742 39.2624C31.7292 39.3652 31.9547 39.5121 32.1557 39.708C32.3567 39.9087 32.5136 40.134 32.6165 40.3837C32.7244 40.6335 32.7734 40.9028 32.7734 41.1868ZM30.6506 42.9398C30.8859 42.9398 31.1066 42.8958 31.3174 42.8076C31.5282 42.7195 31.7145 42.5971 31.8812 42.4306C32.0479 42.2641 32.1704 42.0731 32.2587 41.8576C32.3469 41.6422 32.391 41.4218 32.391 41.1819C32.391 40.9419 32.3469 40.7216 32.2587 40.5061C32.1704 40.2956 32.0479 40.1046 31.8812 39.9332C31.7145 39.7667 31.5282 39.6394 31.3174 39.5562C31.1066 39.468 30.8859 39.424 30.6457 39.424C30.4055 39.424 30.1898 39.468 29.9839 39.5562C29.778 39.6443 29.5868 39.7667 29.4201 39.9332C29.2534 40.1046 29.1259 40.2956 29.0426 40.5061C28.9543 40.7167 28.9102 40.9419 28.9102 41.1819C28.9102 41.4218 28.9543 41.6422 29.0426 41.8576C29.1308 42.0682 29.2534 42.2592 29.4201 42.4306C29.5868 42.5971 29.7731 42.7244 29.979 42.8125C30.1849 42.8958 30.4055 42.9398 30.6457 42.9398H30.6506Z" fill="#231815"/>
<path d="M40.9065 43.7625V39.5072H39.6221V39.1106H42.6126V39.5072H41.3282V43.7625H40.9065Z" fill="#231815"/>
<path d="M43.2603 43.0574V39.1008H43.6181V40.7069H45.7753V39.1008H46.1332V43.0574H45.7753V41.0154H43.6181V43.0574H43.2603Z" fill="#231815"/>
<path d="M47.1187 43.0574V39.1008H47.4765V43.0574H47.1187Z" fill="#231815"/>
<path d="M48.4668 43.0574V38.9343L51.2711 42.2445V39.1008H51.6045V43.1749L48.8002 39.8598V43.0574H48.4619H48.4668Z" fill="#231815"/>
<path d="M52.5947 43.0574V39.1008H52.9526V40.9567L54.7421 39.1008H55.2127L53.335 40.9909L55.3009 43.0574H54.7813L52.9526 41.0497V43.0574H52.5947Z" fill="#231815"/>
<path d="M59.0218 43.7625V39.5072H57.7373V39.1106H60.7279V39.5072H59.4434V43.7625H59.0218Z" fill="#231815"/>
<path d="M60.4634 43.0673L62.2038 38.954L63.8707 43.0673H63.4785L62.9735 41.7256H61.3556L60.8311 43.0673H60.4683H60.4634ZM61.4733 41.4171H62.8509L62.1744 39.6983L61.4733 41.4171Z" fill="#231815"/>
<path d="M64.312 43.0672V38.9441L67.1163 42.2543V39.1106H67.4497V43.1847L64.6454 39.8696V43.0672H64.3071H64.312Z" fill="#231815"/>
<path d="M68.4399 43.0672V39.1106H68.7978V40.9664L70.5873 39.1106H71.0579L69.1802 41.0007L71.1462 43.0672H70.6265L68.7978 41.0595V43.0672H68.4399Z" fill="#231815"/>
<path d="M35.9798 43.2336V37.1274H35.7494L35.5386 37.289V43.2336V43.3414H35.8278H36.3867V43.2336H35.9798Z" fill="#231815"/>
<path d="M34.9258 37.7444V37.8766L35.3327 37.573V43.2336H35.0532H34.9258V43.3414H35.0532H35.4356V43.2336V37.3624L34.9258 37.7444Z" fill="#231815"/>
<path d="M33.3027 43.7625C33.3027 43.6988 33.3223 43.6499 33.3665 43.6058C33.4106 43.5617 33.4596 43.5421 33.5233 43.5421C33.5871 43.5421 33.6361 43.5617 33.6802 43.6058C33.7244 43.6499 33.744 43.6988 33.744 43.7625C33.744 43.8262 33.7244 43.8751 33.6802 43.9192C33.6361 43.9633 33.5871 43.9828 33.5233 43.9828C33.4596 43.9828 33.4106 43.9633 33.3665 43.9192C33.3223 43.8751 33.3027 43.8262 33.3027 43.7625Z" fill="#231815"/>
<path d="M72.7495 2.88422V7.95238H82.5742V43.9828H83.746V7.95238V2.88422H82.5742H72.7495Z" fill="#231815"/>
<path d="M72.7051 1.67471H85.4272V1.8412V2.17418V2.88421V7.95237V40.4718V43.9828H90.3592V7.95237H99.1397V2.88421H90.3592H86.6038V2.17418V1.67471H99.1397V0.4701H72.7051V1.67471Z" fill="#231815"/>
<path d="M115.421 42.7782V0.470116L112.156 0.479909L109.837 2.30641V42.7782V43.9828H114.451H120V42.7782H115.421Z" fill="#231815"/>
<path d="M102.915 7.57533V9.07864L107.489 5.59704V42.7782H104.376H102.915V43.9828H104.376H108.665V42.7782V3.20251L102.915 7.57533Z" fill="#231815"/>
</g>
<path d="M20.4339 27.4023H14.1243C16.2814 28.4111 18.5709 29.601 19.9632 30.453L18.1885 32.495C16.7521 31.5058 14.2812 30.0515 12.0358 28.9987L13.2908 27.4072H6.44197L8.44221 29.0232C6.49099 30.3012 3.70634 31.7164 1.50509 32.588C1.1472 32.0249 0.470646 31.1533 0 30.5901C2.01986 29.8262 4.67214 28.5041 6.15272 27.4072H0V24.9638H1.61785L1.30408 13.2115C2.55914 12.854 4.0201 12.2909 5.03003 11.7963L6.15272 13.9705V12.7169H14.3008V24.9638H16.5707C16.6148 24.337 16.6393 23.6857 16.6834 22.9904H14.7959V20.8798H16.7717C16.7962 20.2531 16.8158 19.6018 16.8158 18.9505H14.9724V16.8204H16.8795C16.8795 16.1006 16.904 15.4297 16.904 14.7344H14.9038V12.5798H19.2377C19.1935 16.507 19.0366 21.4821 18.8356 24.9589H20.429V27.4023H20.4339ZM3.86322 24.954H6.15272V14.0782C5.29967 14.3231 4.44662 14.5728 3.59358 14.7736L3.66221 16.791H5.61343V18.9211H3.70634L3.75046 20.826H5.63795V22.9561H3.8191L3.86322 24.954ZM8.01569 14.705V24.954H12.3741V14.705H8.01569ZM11.8348 17.4864H8.53536V15.8509H11.8593L11.8348 17.4864ZM8.62361 18.5833H11.8593V23.6269H8.62361V18.5833ZM9.72178 22.104H10.7317V20.1062H9.72178V22.104Z" fill="url(#paint0_linear_289_479)"/>
<path d="M44.6773 12.8002V17.6284H42.0397V15.0135H28.2635V17.6284H25.7583V12.8002H33.7446C33.5681 12.3595 33.3671 11.8894 33.2102 11.5172L36.0733 10.9639C36.3625 11.5417 36.7155 12.2272 36.9361 12.8051H44.6773V12.8002ZM26.9104 23.7445H43.5448V31.9417H40.9268V31.3638H29.4156V31.9857H26.9104V23.7445ZM28.5282 18.4266H41.7259V22.9218H28.5282V18.4266ZM41.2161 15.8802V17.6529H29.0822V15.8802H41.2161ZM29.4156 25.6493V26.7364H33.8083V25.6493H29.4156ZM33.8083 29.459V28.3719H29.4156V29.459H33.8083ZM30.9452 21.2373H39.1521V20.1502H30.9452V21.2373ZM40.9268 25.6444H36.3772V26.7315H40.9268V25.6444ZM40.9268 29.4541V28.367H36.3772V29.4541H40.9268Z" fill="url(#paint1_linear_289_479)"/>
<path d="M69.5431 15.6403C68.6999 16.3944 67.7488 17.1044 66.9251 17.6773C67.9007 18.1866 68.9646 18.6077 70.0971 18.9162C69.5431 19.4255 68.8764 20.3559 68.5234 20.9974C67.6115 20.7085 66.7928 20.3559 65.9936 19.9348V21.8396C65.9936 22.3734 66.0378 22.5496 66.327 22.5496H67.4154C67.7242 22.5496 68.2586 22.5252 68.5479 22.437C68.592 22.9708 68.6361 23.72 68.7244 24.2292C68.4155 24.3419 67.9056 24.3614 67.4399 24.3614H66.0623C64.1993 24.3614 63.8463 23.6073 63.8463 21.8151V20.5322H61.8069C61.7382 22.0844 61.2087 23.7445 59.3654 24.9197C59.1203 24.5426 58.478 23.9011 58.0368 23.4996V24.1656H53.6441C53.5558 24.6748 53.4872 25.2086 53.4235 25.6934H58.0368C58.0368 25.6934 58.0123 26.2908 57.9927 26.6042C57.7475 29.5961 57.4828 31.0357 56.9043 31.6136C56.4386 32.1228 55.9042 32.2991 55.1296 32.3432C54.5315 32.4117 53.3794 32.4117 52.2027 32.3677C52.1586 31.6821 51.8498 30.7713 51.4477 30.1739C52.5557 30.2621 53.6441 30.2865 54.1294 30.2865C54.4824 30.2865 54.7276 30.2621 54.9286 30.0662C55.1933 29.8213 55.3943 29.1113 55.5512 27.608H50.8938C51.2026 26.1684 51.5605 23.9746 51.7566 22.2265H55.6836V20.6742H52.4675V20.3216C51.8007 20.6546 51.1389 20.9435 50.4476 21.1834C50.1388 20.6056 49.4916 19.7193 49.0259 19.2541C50.3349 18.8771 51.5997 18.2797 52.7518 17.55C52.1537 17.1093 51.3546 16.5952 50.6878 16.223L52.1978 14.8274C52.9528 15.2045 53.8843 15.7382 54.5266 16.223C54.9923 15.7823 55.4384 15.3122 55.811 14.8029H51.4428V12.7414H57.2328L57.674 12.6288L59.2918 13.4269C58.4045 15.5962 56.919 17.3248 55.1198 18.6763H58.027V23.0834C59.4046 22.1726 59.6007 21.11 59.6007 20.1159V18.5441H63.8365C61.9049 17.0163 60.4194 15.0429 59.3556 12.6728L61.4637 12.051C61.7971 12.8051 62.2187 13.5151 62.7285 14.1321C63.459 13.5102 64.2826 12.712 64.8121 12.095L66.6996 13.4465C65.7877 14.2006 64.8366 14.9988 63.9934 15.5962C64.3709 15.9488 64.768 16.2818 65.17 16.5952C66.0133 15.9292 67.033 14.9988 67.6311 14.2888L69.5382 15.6403H69.5431ZM67.9253 25.4338C67.3713 27.0498 66.5476 28.3376 65.4838 29.3757C66.4839 29.9291 67.3909 30.4824 68.0576 30.928L66.729 32.6762C65.974 32.1424 64.9102 31.4569 63.714 30.7468C62.3167 31.6087 60.6106 32.2306 58.7673 32.6517C58.5467 32.0739 58.0809 31.2316 57.6593 30.7468C59.1006 30.502 60.4538 30.0809 61.6059 29.508C60.5175 28.9105 59.4781 28.3131 58.5221 27.8039L59.4095 26.7413H58.8751V24.9931H66.0819L66.479 24.9246L67.9203 25.4338H67.9253ZM60.5616 26.7413C61.4931 27.231 62.5128 27.7402 63.513 28.2936C64.0473 27.8284 64.5131 27.3191 64.9102 26.7413H60.5616Z" fill="url(#paint2_linear_289_479)"/>
<path d="M1.89726 43.2924V39.0371H0.612793V38.6404H3.60336V39.0371H2.31888V43.2924H1.89726Z" fill="url(#paint3_linear_289_479)"/>
<path d="M3.1377 42.597L4.8781 38.4837L6.54498 42.597H6.15277L5.64781 41.2553H4.02996L3.50539 42.597H3.1426H3.1377ZM4.14762 40.9468H5.52524L4.84869 39.2281L4.14762 40.9468Z" fill="url(#paint4_linear_289_479)"/>
<path d="M6.98633 42.597V38.6404H7.34421V42.597H6.98633Z" fill="url(#paint5_linear_289_479)"/>
<path d="M9.27553 42.7488L7.90771 38.6404H8.28521L9.27553 41.7989L10.3296 38.4837L11.4229 41.7744L12.374 38.6404H12.7465L11.4229 42.7488L10.3296 39.3897L9.27553 42.7488Z" fill="url(#paint6_linear_289_479)"/>
<path d="M12.6685 42.597L14.4089 38.4837L16.0757 42.597H15.6835L15.1786 41.2553H13.5607L13.0361 42.597H12.6734H12.6685ZM13.6784 40.9468H15.056L14.3795 39.2281L13.6784 40.9468Z" fill="url(#paint7_linear_289_479)"/>
<path d="M16.5166 42.5872V38.4642L19.3209 41.7744V38.6306H19.6543V42.7048L16.85 39.3896V42.5872H16.5117H16.5166Z" fill="url(#paint8_linear_289_479)"/>
<path d="M23.5664 43.2924V38.4397L26.8658 42.3326V38.6355H27.2581V43.4246L23.9586 39.5218V43.2875H23.5615L23.5664 43.2924Z" fill="url(#paint9_linear_289_479)"/>
<path d="M32.3174 40.7167C32.3174 40.9958 32.2634 41.2602 32.1556 41.5148C32.0477 41.7646 31.8958 41.9898 31.6948 42.1857C31.4888 42.3816 31.2584 42.5334 31.0035 42.6362C30.7486 42.739 30.4789 42.7929 30.1897 42.7929C29.9004 42.7929 29.6357 42.739 29.3807 42.6362C29.1258 42.5334 28.8954 42.3816 28.6944 42.1857C28.4934 41.9849 28.3365 41.7597 28.2335 41.5099C28.1257 41.2602 28.0767 40.9958 28.0767 40.7167C28.0767 40.4375 28.1306 40.1682 28.2335 39.9136C28.3414 39.6639 28.4934 39.4386 28.6944 39.2378C28.8905 39.042 29.1209 38.8951 29.3758 38.7922C29.6308 38.6894 29.9004 38.6404 30.1946 38.6404C30.4887 38.6404 30.7584 38.6894 31.0182 38.7922C31.2731 38.8951 31.4986 39.042 31.6997 39.2378C31.9007 39.4386 32.0575 39.6639 32.1605 39.9136C32.2683 40.1633 32.3174 40.4327 32.3174 40.7167ZM30.1946 42.4697C30.4299 42.4697 30.6505 42.4256 30.8613 42.3375C31.0721 42.2494 31.2584 42.1269 31.4251 41.9604C31.5918 41.794 31.7144 41.603 31.8026 41.3875C31.8909 41.1721 31.935 40.9517 31.935 40.7118C31.935 40.4718 31.8909 40.2515 31.8026 40.036C31.7144 39.8255 31.5918 39.6345 31.4251 39.4631C31.2584 39.2966 31.0721 39.1693 30.8613 39.086C30.6505 38.9979 30.4299 38.9538 30.1897 38.9538C29.9494 38.9538 29.7337 38.9979 29.5278 39.086C29.3219 39.1742 29.1307 39.2966 28.964 39.4631C28.7973 39.6345 28.6699 39.8255 28.5865 40.036C28.4983 40.2466 28.4542 40.4718 28.4542 40.7118C28.4542 40.9517 28.4983 41.1721 28.5865 41.3875C28.6748 41.5981 28.7973 41.7891 28.964 41.9604C29.1307 42.1269 29.317 42.2543 29.5229 42.3424C29.7288 42.4256 29.9494 42.4697 30.1897 42.4697H30.1946Z" fill="url(#paint10_linear_289_479)"/>
<path d="M40.451 43.2924V39.0371H39.1665V38.6404H42.1571V39.0371H40.8726V43.2924H40.451Z" fill="url(#paint11_linear_289_479)"/>
<path d="M42.7993 42.5872V38.6307H43.1572V40.2368H45.3143V38.6307H45.6722V42.5872H45.3143V40.5453H43.1572V42.5872H42.7993Z" fill="url(#paint12_linear_289_479)"/>
<path d="M46.6572 42.5872V38.6307H47.0151V42.5872H46.6572Z" fill="url(#paint13_linear_289_479)"/>
<path d="M48.0054 42.5872V38.4642L50.8097 41.7744V38.6307H51.143V42.7048L48.3388 39.3897V42.5872H48.0005H48.0054Z" fill="url(#paint14_linear_289_479)"/>
<path d="M52.1338 42.5872V38.6307H52.4917V40.4865L54.2811 38.6307H54.7518L52.8741 40.5208L54.84 42.5872H54.3203L52.4917 40.5796V42.5872H52.1338Z" fill="url(#paint15_linear_289_479)"/>
<path d="M58.5662 43.2924V39.0371H57.2817V38.6404H60.2723V39.0371H58.9878V43.2924H58.5662Z" fill="url(#paint16_linear_289_479)"/>
<path d="M60.0024 42.597L61.7429 38.4837L63.4097 42.597H63.0175L62.5126 41.2553H60.8947L60.3701 42.597H60.0073H60.0024ZM61.0124 40.9468H62.39L61.7134 39.2281L61.0124 40.9468Z" fill="url(#paint17_linear_289_479)"/>
<path d="M63.8511 42.597V38.474L66.6554 41.7842V38.6404H66.9887V42.7146L64.1845 39.3994V42.597H63.8462H63.8511Z" fill="url(#paint18_linear_289_479)"/>
<path d="M67.9785 42.597V38.6404H68.3364V40.4963L70.1258 38.6404H70.5965L68.7188 40.5306L70.6847 42.597H70.1651L68.3364 40.5894V42.597H67.9785Z" fill="url(#paint19_linear_289_479)"/>
<path d="M35.5193 42.7635V36.6572H35.2889L35.083 36.8188V42.7635V42.8712H35.3674H35.9312V42.7635H35.5193Z" fill="url(#paint20_linear_289_479)"/>
<path d="M34.4653 37.2742V37.4064L34.8722 37.1028V42.7635H34.5977H34.4653V42.8712H34.5977H34.9752V42.7635V36.8923L34.4653 37.2742Z" fill="url(#paint21_linear_289_479)"/>
<path d="M32.8472 43.2924C32.8472 43.2287 32.8668 43.1797 32.9109 43.1357C32.955 43.0916 33.004 43.072 33.0678 43.072C33.1315 43.072 33.1805 43.0916 33.2247 43.1357C33.2688 43.1797 33.2884 43.2287 33.2884 43.2924C33.2884 43.356 33.2688 43.405 33.2247 43.4491C33.1805 43.4931 33.1315 43.5127 33.0678 43.5127C33.004 43.5127 32.955 43.4931 32.9109 43.4491C32.8668 43.405 32.8472 43.356 32.8472 43.2924Z" fill="url(#paint22_linear_289_479)"/>
<path d="M72.2881 2.41411V7.48227H82.1128V43.5127H83.2894V7.48227V2.41411H82.1128H72.2881Z" fill="url(#paint23_linear_289_479)"/>
<path d="M72.2441 1.20461H84.9712V1.3711V1.70408V2.41411V7.48227V40.0017V43.5127H89.8983V7.48227H98.6837V2.41411H89.8983H86.1429V1.70408V1.20461H98.6837V0H72.2441V1.20461Z" fill="url(#paint24_linear_289_479)"/>
<path d="M114.96 42.3081V0L111.7 0.00979355L109.376 1.83629V42.3081V43.5127H113.994H119.539V42.3081H114.96Z" fill="url(#paint25_linear_289_479)"/>
<path d="M102.454 7.10522V8.60853L107.033 5.12692V42.3081H103.919H102.454V43.5127H103.919H108.204V42.3081V2.7324L102.454 7.10522Z" fill="url(#paint26_linear_289_479)"/>
<g opacity="0.3">
<path d="M20.4339 27.4023H14.1243C16.2814 28.4111 18.5709 29.601 19.9632 30.453L18.1885 32.495C16.7521 31.5058 14.2812 30.0515 12.0358 28.9987L13.2908 27.4072H6.44197L8.44221 29.0232C6.49099 30.3012 3.70634 31.7164 1.50509 32.588C1.1472 32.0249 0.470646 31.1533 0 30.5901C2.01986 29.8262 4.67214 28.5041 6.15272 27.4072H0V24.9638H1.61785L1.30408 13.2115C2.55914 12.854 4.0201 12.2909 5.03003 11.7963L6.15272 13.9705V12.7169H14.3008V24.9638H16.5707C16.6148 24.337 16.6393 23.6857 16.6834 22.9904H14.7959V20.8798H16.7717C16.7962 20.2531 16.8158 19.6018 16.8158 18.9505H14.9724V16.8204H16.8795C16.8795 16.1006 16.904 15.4297 16.904 14.7344H14.9038V12.5798H19.2377C19.1935 16.507 19.0366 21.4821 18.8356 24.9589H20.429V27.4023H20.4339ZM3.86322 24.954H6.15272V14.0782C5.29967 14.3231 4.44662 14.5728 3.59358 14.7736L3.66221 16.791H5.61343V18.9211H3.70634L3.75046 20.826H5.63795V22.9561H3.8191L3.86322 24.954ZM8.01569 14.705V24.954H12.3741V14.705H8.01569ZM11.8348 17.4864H8.53536V15.8509H11.8593L11.8348 17.4864ZM8.62361 18.5833H11.8593V23.6269H8.62361V18.5833ZM9.72178 22.104H10.7317V20.1062H9.72178V22.104Z" fill="url(#paint27_linear_289_479)"/>
<path d="M44.6773 12.8002V17.6284H42.0397V15.0135H28.2635V17.6284H25.7583V12.8002H33.7446C33.5681 12.3595 33.3671 11.8894 33.2102 11.5172L36.0733 10.9639C36.3625 11.5417 36.7155 12.2272 36.9361 12.8051H44.6773V12.8002ZM26.9104 23.7445H43.5448V31.9417H40.9268V31.3638H29.4156V31.9857H26.9104V23.7445ZM28.5282 18.4266H41.7259V22.9218H28.5282V18.4266ZM41.2161 15.8802V17.6529H29.0822V15.8802H41.2161ZM29.4156 25.6493V26.7364H33.8083V25.6493H29.4156ZM33.8083 29.459V28.3719H29.4156V29.459H33.8083ZM30.9452 21.2373H39.1521V20.1502H30.9452V21.2373ZM40.9268 25.6444H36.3772V26.7315H40.9268V25.6444ZM40.9268 29.4541V28.367H36.3772V29.4541H40.9268Z" fill="url(#paint28_linear_289_479)"/>
<path d="M69.5431 15.6403C68.6999 16.3944 67.7488 17.1044 66.9251 17.6773C67.9007 18.1866 68.9646 18.6077 70.0971 18.9162C69.5431 19.4255 68.8764 20.3559 68.5234 20.9974C67.6115 20.7085 66.7928 20.3559 65.9936 19.9348V21.8396C65.9936 22.3734 66.0378 22.5496 66.327 22.5496H67.4154C67.7242 22.5496 68.2586 22.5252 68.5479 22.437C68.592 22.9708 68.6361 23.72 68.7244 24.2292C68.4155 24.3419 67.9056 24.3614 67.4399 24.3614H66.0623C64.1993 24.3614 63.8463 23.6073 63.8463 21.8151V20.5322H61.8069C61.7382 22.0844 61.2087 23.7445 59.3654 24.9197C59.1203 24.5426 58.478 23.9011 58.0368 23.4996V24.1656H53.6441C53.5558 24.6748 53.4872 25.2086 53.4235 25.6934H58.0368C58.0368 25.6934 58.0123 26.2908 57.9927 26.6042C57.7475 29.5961 57.4828 31.0357 56.9043 31.6136C56.4386 32.1228 55.9042 32.2991 55.1296 32.3432C54.5315 32.4117 53.3794 32.4117 52.2027 32.3677C52.1586 31.6821 51.8498 30.7713 51.4477 30.1739C52.5557 30.2621 53.6441 30.2865 54.1294 30.2865C54.4824 30.2865 54.7276 30.2621 54.9286 30.0662C55.1933 29.8213 55.3943 29.1113 55.5512 27.608H50.8938C51.2026 26.1684 51.5605 23.9746 51.7566 22.2265H55.6836V20.6742H52.4675V20.3216C51.8007 20.6546 51.1389 20.9435 50.4476 21.1834C50.1388 20.6056 49.4916 19.7193 49.0259 19.2541C50.3349 18.8771 51.5997 18.2797 52.7518 17.55C52.1537 17.1093 51.3546 16.5952 50.6878 16.223L52.1978 14.8274C52.9528 15.2045 53.8843 15.7382 54.5266 16.223C54.9923 15.7823 55.4384 15.3122 55.811 14.8029H51.4428V12.7414H57.2328L57.674 12.6288L59.2918 13.4269C58.4045 15.5962 56.919 17.3248 55.1198 18.6763H58.027V23.0834C59.4046 22.1726 59.6007 21.11 59.6007 20.1159V18.5441H63.8365C61.9049 17.0163 60.4194 15.0429 59.3556 12.6728L61.4637 12.051C61.7971 12.8051 62.2187 13.5151 62.7285 14.1321C63.459 13.5102 64.2826 12.712 64.8121 12.095L66.6996 13.4465C65.7877 14.2006 64.8366 14.9988 63.9934 15.5962C64.3709 15.9488 64.768 16.2818 65.17 16.5952C66.0133 15.9292 67.033 14.9988 67.6311 14.2888L69.5382 15.6403H69.5431ZM67.9253 25.4338C67.3713 27.0498 66.5476 28.3376 65.4838 29.3757C66.4839 29.9291 67.3909 30.4824 68.0576 30.928L66.729 32.6762C65.974 32.1424 64.9102 31.4569 63.714 30.7468C62.3167 31.6087 60.6106 32.2306 58.7673 32.6517C58.5467 32.0739 58.0809 31.2316 57.6593 30.7468C59.1006 30.502 60.4538 30.0809 61.6059 29.508C60.5175 28.9105 59.4781 28.3131 58.5221 27.8039L59.4095 26.7413H58.8751V24.9931H66.0819L66.479 24.9246L67.9203 25.4338H67.9253ZM60.5616 26.7413C61.4931 27.231 62.5128 27.7402 63.513 28.2936C64.0473 27.8284 64.5131 27.3191 64.9102 26.7413H60.5616Z" fill="url(#paint29_linear_289_479)"/>
<path d="M1.89726 43.2924V39.0371H0.612793V38.6404H3.60336V39.0371H2.31888V43.2924H1.89726Z" fill="url(#paint30_linear_289_479)"/>
<path d="M3.1377 42.597L4.8781 38.4837L6.54498 42.597H6.15277L5.64781 41.2553H4.02996L3.50539 42.597H3.1426H3.1377ZM4.14762 40.9468H5.52524L4.84869 39.2281L4.14762 40.9468Z" fill="url(#paint31_linear_289_479)"/>
<path d="M6.98633 42.597V38.6404H7.34421V42.597H6.98633Z" fill="url(#paint32_linear_289_479)"/>
<path d="M9.27553 42.7488L7.90771 38.6404H8.28521L9.27553 41.7989L10.3296 38.4837L11.4229 41.7744L12.374 38.6404H12.7465L11.4229 42.7488L10.3296 39.3897L9.27553 42.7488Z" fill="url(#paint33_linear_289_479)"/>
<path d="M12.6685 42.597L14.4089 38.4837L16.0757 42.597H15.6835L15.1786 41.2553H13.5607L13.0361 42.597H12.6734H12.6685ZM13.6784 40.9468H15.056L14.3795 39.2281L13.6784 40.9468Z" fill="url(#paint34_linear_289_479)"/>
<path d="M16.5166 42.5872V38.4642L19.3209 41.7744V38.6306H19.6543V42.7048L16.85 39.3896V42.5872H16.5117H16.5166Z" fill="url(#paint35_linear_289_479)"/>
<path d="M23.5664 43.2924V38.4397L26.8658 42.3326V38.6355H27.2581V43.4246L23.9586 39.5218V43.2875H23.5615L23.5664 43.2924Z" fill="url(#paint36_linear_289_479)"/>
<path d="M32.3174 40.7167C32.3174 40.9958 32.2634 41.2602 32.1556 41.5148C32.0477 41.7646 31.8958 41.9898 31.6948 42.1857C31.4888 42.3816 31.2584 42.5334 31.0035 42.6362C30.7486 42.739 30.4789 42.7929 30.1897 42.7929C29.9004 42.7929 29.6357 42.739 29.3807 42.6362C29.1258 42.5334 28.8954 42.3816 28.6944 42.1857C28.4934 41.9849 28.3365 41.7597 28.2335 41.5099C28.1257 41.2602 28.0767 40.9958 28.0767 40.7167C28.0767 40.4375 28.1306 40.1682 28.2335 39.9136C28.3414 39.6639 28.4934 39.4386 28.6944 39.2378C28.8905 39.042 29.1209 38.8951 29.3758 38.7922C29.6308 38.6894 29.9004 38.6404 30.1946 38.6404C30.4887 38.6404 30.7584 38.6894 31.0182 38.7922C31.2731 38.8951 31.4986 39.042 31.6997 39.2378C31.9007 39.4386 32.0575 39.6639 32.1605 39.9136C32.2683 40.1633 32.3174 40.4327 32.3174 40.7167ZM30.1946 42.4697C30.4299 42.4697 30.6505 42.4256 30.8613 42.3375C31.0721 42.2494 31.2584 42.1269 31.4251 41.9604C31.5918 41.794 31.7144 41.603 31.8026 41.3875C31.8909 41.1721 31.935 40.9517 31.935 40.7118C31.935 40.4718 31.8909 40.2515 31.8026 40.036C31.7144 39.8255 31.5918 39.6345 31.4251 39.4631C31.2584 39.2966 31.0721 39.1693 30.8613 39.086C30.6505 38.9979 30.4299 38.9538 30.1897 38.9538C29.9494 38.9538 29.7337 38.9979 29.5278 39.086C29.3219 39.1742 29.1307 39.2966 28.964 39.4631C28.7973 39.6345 28.6699 39.8255 28.5865 40.036C28.4983 40.2466 28.4542 40.4718 28.4542 40.7118C28.4542 40.9517 28.4983 41.1721 28.5865 41.3875C28.6748 41.5981 28.7973 41.7891 28.964 41.9604C29.1307 42.1269 29.317 42.2543 29.5229 42.3424C29.7288 42.4256 29.9494 42.4697 30.1897 42.4697H30.1946Z" fill="url(#paint37_linear_289_479)"/>
<path d="M40.451 43.2924V39.0371H39.1665V38.6404H42.1571V39.0371H40.8726V43.2924H40.451Z" fill="url(#paint38_linear_289_479)"/>
<path d="M42.7993 42.5872V38.6307H43.1572V40.2368H45.3143V38.6307H45.6722V42.5872H45.3143V40.5453H43.1572V42.5872H42.7993Z" fill="url(#paint39_linear_289_479)"/>
<path d="M46.6572 42.5872V38.6307H47.0151V42.5872H46.6572Z" fill="url(#paint40_linear_289_479)"/>
<path d="M48.0054 42.5872V38.4642L50.8097 41.7744V38.6307H51.143V42.7048L48.3388 39.3897V42.5872H48.0005H48.0054Z" fill="url(#paint41_linear_289_479)"/>
<path d="M52.1338 42.5872V38.6307H52.4917V40.4865L54.2811 38.6307H54.7518L52.8741 40.5208L54.84 42.5872H54.3203L52.4917 40.5796V42.5872H52.1338Z" fill="url(#paint42_linear_289_479)"/>
<path d="M58.5662 43.2924V39.0371H57.2817V38.6404H60.2723V39.0371H58.9878V43.2924H58.5662Z" fill="url(#paint43_linear_289_479)"/>
<path d="M60.0024 42.597L61.7429 38.4837L63.4097 42.597H63.0175L62.5126 41.2553H60.8947L60.3701 42.597H60.0073H60.0024ZM61.0124 40.9468H62.39L61.7134 39.2281L61.0124 40.9468Z" fill="url(#paint44_linear_289_479)"/>
<path d="M63.8511 42.597V38.474L66.6554 41.7842V38.6404H66.9887V42.7146L64.1845 39.3994V42.597H63.8462H63.8511Z" fill="url(#paint45_linear_289_479)"/>
<path d="M67.9785 42.597V38.6404H68.3364V40.4963L70.1258 38.6404H70.5965L68.7188 40.5306L70.6847 42.597H70.1651L68.3364 40.5894V42.597H67.9785Z" fill="url(#paint46_linear_289_479)"/>
<path d="M35.5193 42.7635V36.6572H35.2889L35.083 36.8188V42.7635V42.8712H35.3674H35.9312V42.7635H35.5193Z" fill="url(#paint47_linear_289_479)"/>
<path d="M34.4653 37.2742V37.4064L34.8722 37.1028V42.7635H34.5977H34.4653V42.8712H34.5977H34.9752V42.7635V36.8923L34.4653 37.2742Z" fill="url(#paint48_linear_289_479)"/>
<path d="M32.8472 43.2924C32.8472 43.2287 32.8668 43.1797 32.9109 43.1357C32.955 43.0916 33.004 43.072 33.0678 43.072C33.1315 43.072 33.1805 43.0916 33.2247 43.1357C33.2688 43.1797 33.2884 43.2287 33.2884 43.2924C33.2884 43.356 33.2688 43.405 33.2247 43.4491C33.1805 43.4931 33.1315 43.5127 33.0678 43.5127C33.004 43.5127 32.955 43.4931 32.9109 43.4491C32.8668 43.405 32.8472 43.356 32.8472 43.2924Z" fill="url(#paint49_linear_289_479)"/>
<path d="M72.2881 2.41411V7.48227H82.1128V43.5127H83.2894V7.48227V2.41411H82.1128H72.2881Z" fill="url(#paint50_linear_289_479)"/>
<path d="M72.2441 1.20461H84.9712V1.3711V1.70408V2.41411V7.48227V40.0017V43.5127H89.8983V7.48227H98.6837V2.41411H89.8983H86.1429V1.70408V1.20461H98.6837V0H72.2441V1.20461Z" fill="url(#paint51_linear_289_479)"/>
<path d="M114.96 42.3081V0L111.7 0.00979355L109.376 1.83629V42.3081V43.5127H113.994H119.539V42.3081H114.96Z" fill="url(#paint52_linear_289_479)"/>
<path d="M102.454 7.10522V8.60853L107.033 5.12692V42.3081H103.919H102.454V43.5127H103.919H108.204V42.3081V2.7324L102.454 7.10522Z" fill="url(#paint53_linear_289_479)"/>
</g>
<defs>
<linearGradient id="paint0_linear_289_479" x1="10.3052" y1="32.872" x2="9.8112" y2="4.65191" gradientUnits="userSpaceOnUse">
<stop stop-color="#B97A2C"/>
<stop offset="0.59" stop-color="#F6F4D8"/>
<stop offset="1" stop-color="#FFFDE5"/>
</linearGradient>
<linearGradient id="paint1_linear_289_479" x1="35.5291" y1="32.921" x2="35.0351" y2="4.77433" gradientUnits="userSpaceOnUse">
<stop stop-color="#B97A2C"/>
<stop offset="0.59" stop-color="#F6F4D8"/>
<stop offset="1" stop-color="#FFFDE5"/>
</linearGradient>
<linearGradient id="paint2_linear_289_479" x1="59.8017" y1="32.9455" x2="59.3126" y2="4.78902" gradientUnits="userSpaceOnUse">
<stop stop-color="#B97A2C"/>
<stop offset="0.59" stop-color="#F6F4D8"/>
<stop offset="1" stop-color="#FFFDE5"/>
</linearGradient>
<linearGradient id="paint3_linear_289_479" x1="2.10807" y1="43.6939" x2="2.10807" y2="36.1284" gradientUnits="userSpaceOnUse">
<stop stop-color="#B97A2C"/>
<stop offset="0.59" stop-color="#F6F4D8"/>
<stop offset="1" stop-color="#FFFDE5"/>
</linearGradient>
<linearGradient id="paint4_linear_289_479" x1="4.83888" y1="43.6939" x2="4.83888" y2="36.1284" gradientUnits="userSpaceOnUse">
<stop stop-color="#B97A2C"/>
<stop offset="0.59" stop-color="#F6F4D8"/>
<stop offset="1" stop-color="#FFFDE5"/>
</linearGradient>
<linearGradient id="paint5_linear_289_479" x1="7.16772" y1="43.6939" x2="7.16772" y2="36.1284" gradientUnits="userSpaceOnUse">
<stop stop-color="#B97A2C"/>
<stop offset="0.59" stop-color="#F6F4D8"/>
<stop offset="1" stop-color="#FFFDE5"/>
</linearGradient>
<linearGradient id="paint6_linear_289_479" x1="10.3296" y1="43.6939" x2="10.3296" y2="36.1284" gradientUnits="userSpaceOnUse">
<stop stop-color="#B97A2C"/>
<stop offset="0.59" stop-color="#F6F4D8"/>
<stop offset="1" stop-color="#FFFDE5"/>
</linearGradient>
<linearGradient id="paint7_linear_289_479" x1="14.3745" y1="43.6939" x2="14.3745" y2="36.1284" gradientUnits="userSpaceOnUse">
<stop stop-color="#B97A2C"/>
<stop offset="0.59" stop-color="#F6F4D8"/>
<stop offset="1" stop-color="#FFFDE5"/>
</linearGradient>
<linearGradient id="paint8_linear_289_479" x1="18.0903" y1="43.6939" x2="18.0903" y2="36.1284" gradientUnits="userSpaceOnUse">
<stop stop-color="#B97A2C"/>
<stop offset="0.59" stop-color="#F6F4D8"/>
<stop offset="1" stop-color="#FFFDE5"/>
</linearGradient>
<linearGradient id="paint9_linear_289_479" x1="25.4147" y1="43.6939" x2="25.4147" y2="36.1284" gradientUnits="userSpaceOnUse">
<stop stop-color="#B97A2C"/>
<stop offset="0.59" stop-color="#F6F4D8"/>
<stop offset="1" stop-color="#FFFDE5"/>
</linearGradient>
<linearGradient id="paint10_linear_289_479" x1="30.1946" y1="43.6939" x2="30.1946" y2="36.1284" gradientUnits="userSpaceOnUse">
<stop stop-color="#B97A2C"/>
<stop offset="0.59" stop-color="#F6F4D8"/>
<stop offset="1" stop-color="#FFFDE5"/>
</linearGradient>
<linearGradient id="paint11_linear_289_479" x1="40.6618" y1="43.6939" x2="40.6618" y2="36.1284" gradientUnits="userSpaceOnUse">
<stop stop-color="#B97A2C"/>
<stop offset="0.59" stop-color="#F6F4D8"/>
<stop offset="1" stop-color="#FFFDE5"/>
</linearGradient>
<linearGradient id="paint12_linear_289_479" x1="44.2358" y1="43.6939" x2="44.2358" y2="36.1284" gradientUnits="userSpaceOnUse">
<stop stop-color="#B97A2C"/>
<stop offset="0.59" stop-color="#F6F4D8"/>
<stop offset="1" stop-color="#FFFDE5"/>
</linearGradient>
<linearGradient id="paint13_linear_289_479" x1="46.8386" y1="43.6939" x2="46.8386" y2="36.1284" gradientUnits="userSpaceOnUse">
<stop stop-color="#B97A2C"/>
<stop offset="0.59" stop-color="#F6F4D8"/>
<stop offset="1" stop-color="#FFFDE5"/>
</linearGradient>
<linearGradient id="paint14_linear_289_479" x1="49.5742" y1="43.6939" x2="49.5742" y2="36.1284" gradientUnits="userSpaceOnUse">
<stop stop-color="#B97A2C"/>
<stop offset="0.59" stop-color="#F6F4D8"/>
<stop offset="1" stop-color="#FFFDE5"/>
</linearGradient>
<linearGradient id="paint15_linear_289_479" x1="53.4869" y1="43.6939" x2="53.4869" y2="36.1284" gradientUnits="userSpaceOnUse">
<stop stop-color="#B97A2C"/>
<stop offset="0.59" stop-color="#F6F4D8"/>
<stop offset="1" stop-color="#FFFDE5"/>
</linearGradient>
<linearGradient id="paint16_linear_289_479" x1="58.777" y1="43.6939" x2="58.777" y2="36.1284" gradientUnits="userSpaceOnUse">
<stop stop-color="#B97A2C"/>
<stop offset="0.59" stop-color="#F6F4D8"/>
<stop offset="1" stop-color="#FFFDE5"/>
</linearGradient>
<linearGradient id="paint17_linear_289_479" x1="61.7036" y1="43.6939" x2="61.7036" y2="36.1284" gradientUnits="userSpaceOnUse">
<stop stop-color="#B97A2C"/>
<stop offset="0.59" stop-color="#F6F4D8"/>
<stop offset="1" stop-color="#FFFDE5"/>
</linearGradient>
<linearGradient id="paint18_linear_289_479" x1="65.4248" y1="43.6939" x2="65.4248" y2="36.1284" gradientUnits="userSpaceOnUse">
<stop stop-color="#B97A2C"/>
<stop offset="0.59" stop-color="#F6F4D8"/>
<stop offset="1" stop-color="#FFFDE5"/>
</linearGradient>
<linearGradient id="paint19_linear_289_479" x1="69.3365" y1="43.6939" x2="69.3365" y2="36.1284" gradientUnits="userSpaceOnUse">
<stop stop-color="#B97A2C"/>
<stop offset="0.59" stop-color="#F6F4D8"/>
<stop offset="1" stop-color="#FFFDE5"/>
</linearGradient>
<linearGradient id="paint20_linear_289_479" x1="35.5046" y1="43.6939" x2="35.5046" y2="36.1284" gradientUnits="userSpaceOnUse">
<stop stop-color="#B97A2C"/>
<stop offset="0.59" stop-color="#F6F4D8"/>
<stop offset="1" stop-color="#FFFDE5"/>
</linearGradient>
<linearGradient id="paint21_linear_289_479" x1="34.7203" y1="43.6939" x2="34.7203" y2="36.1284" gradientUnits="userSpaceOnUse">
<stop stop-color="#B97A2C"/>
<stop offset="0.59" stop-color="#F6F4D8"/>
<stop offset="1" stop-color="#FFFDE5"/>
</linearGradient>
<linearGradient id="paint22_linear_289_479" x1="33.0678" y1="43.6939" x2="33.0678" y2="36.1284" gradientUnits="userSpaceOnUse">
<stop stop-color="#B97A2C"/>
<stop offset="0.59" stop-color="#F6F4D8"/>
<stop offset="1" stop-color="#FFFDE5"/>
</linearGradient>
<linearGradient id="paint23_linear_289_479" x1="77.7888" y1="45.0601" x2="77.7888" y2="-3.02131" gradientUnits="userSpaceOnUse">
<stop stop-color="#B97A2C"/>
<stop offset="0.59" stop-color="#F6F4D8"/>
<stop offset="1" stop-color="#FFFDE5"/>
</linearGradient>
<linearGradient id="paint24_linear_289_479" x1="85.4614" y1="45.0601" x2="85.4614" y2="-3.02131" gradientUnits="userSpaceOnUse">
<stop stop-color="#B97A2C"/>
<stop offset="0.59" stop-color="#F6F4D8"/>
<stop offset="1" stop-color="#FFFDE5"/>
</linearGradient>
<linearGradient id="paint25_linear_289_479" x1="114.46" y1="45.0601" x2="114.46" y2="-3.02131" gradientUnits="userSpaceOnUse">
<stop stop-color="#B97A2C"/>
<stop offset="0.59" stop-color="#F6F4D8"/>
<stop offset="1" stop-color="#FFFDE5"/>
</linearGradient>
<linearGradient id="paint26_linear_289_479" x1="105.331" y1="45.0601" x2="105.331" y2="-3.02131" gradientUnits="userSpaceOnUse">
<stop stop-color="#B97A2C"/>
<stop offset="0.59" stop-color="#F6F4D8"/>
<stop offset="1" stop-color="#FFFDE5"/>
</linearGradient>
<linearGradient id="paint27_linear_289_479" x1="10.3052" y1="32.872" x2="9.8112" y2="4.65191" gradientUnits="userSpaceOnUse">
<stop stop-color="white"/>
<stop offset="0.59" stop-color="#F6F4D8"/>
<stop offset="1" stop-color="#FFFDE5"/>
</linearGradient>
<linearGradient id="paint28_linear_289_479" x1="35.5291" y1="32.921" x2="35.0351" y2="4.77433" gradientUnits="userSpaceOnUse">
<stop stop-color="white"/>
<stop offset="0.59" stop-color="#F6F4D8"/>
<stop offset="1" stop-color="#FFFDE5"/>
</linearGradient>
<linearGradient id="paint29_linear_289_479" x1="59.8017" y1="32.9455" x2="59.3126" y2="4.78902" gradientUnits="userSpaceOnUse">
<stop stop-color="white"/>
<stop offset="0.59" stop-color="#F6F4D8"/>
<stop offset="1" stop-color="#FFFDE5"/>
</linearGradient>
<linearGradient id="paint30_linear_289_479" x1="2.10807" y1="43.6939" x2="2.10807" y2="36.1284" gradientUnits="userSpaceOnUse">
<stop stop-color="white"/>
<stop offset="0.59" stop-color="#F6F4D8"/>
<stop offset="1" stop-color="#FFFDE5"/>
</linearGradient>
<linearGradient id="paint31_linear_289_479" x1="4.83888" y1="43.6939" x2="4.83888" y2="36.1284" gradientUnits="userSpaceOnUse">
<stop stop-color="white"/>
<stop offset="0.59" stop-color="#F6F4D8"/>
<stop offset="1" stop-color="#FFFDE5"/>
</linearGradient>
<linearGradient id="paint32_linear_289_479" x1="7.16772" y1="43.6939" x2="7.16772" y2="36.1284" gradientUnits="userSpaceOnUse">
<stop stop-color="white"/>
<stop offset="0.59" stop-color="#F6F4D8"/>
<stop offset="1" stop-color="#FFFDE5"/>
</linearGradient>
<linearGradient id="paint33_linear_289_479" x1="10.3296" y1="43.6939" x2="10.3296" y2="36.1284" gradientUnits="userSpaceOnUse">
<stop stop-color="white"/>
<stop offset="0.59" stop-color="#F6F4D8"/>
<stop offset="1" stop-color="#FFFDE5"/>
</linearGradient>
<linearGradient id="paint34_linear_289_479" x1="14.3745" y1="43.6939" x2="14.3745" y2="36.1284" gradientUnits="userSpaceOnUse">
<stop stop-color="white"/>
<stop offset="0.59" stop-color="#F6F4D8"/>
<stop offset="1" stop-color="#FFFDE5"/>
</linearGradient>
<linearGradient id="paint35_linear_289_479" x1="18.0903" y1="43.6939" x2="18.0903" y2="36.1284" gradientUnits="userSpaceOnUse">
<stop stop-color="white"/>
<stop offset="0.59" stop-color="#F6F4D8"/>
<stop offset="1" stop-color="#FFFDE5"/>
</linearGradient>
<linearGradient id="paint36_linear_289_479" x1="25.4147" y1="43.6939" x2="25.4147" y2="36.1284" gradientUnits="userSpaceOnUse">
<stop stop-color="white"/>
<stop offset="0.59" stop-color="#F6F4D8"/>
<stop offset="1" stop-color="#FFFDE5"/>
</linearGradient>
<linearGradient id="paint37_linear_289_479" x1="30.1946" y1="43.6939" x2="30.1946" y2="36.1284" gradientUnits="userSpaceOnUse">
<stop stop-color="white"/>
<stop offset="0.59" stop-color="#F6F4D8"/>
<stop offset="1" stop-color="#FFFDE5"/>
</linearGradient>
<linearGradient id="paint38_linear_289_479" x1="40.6618" y1="43.6939" x2="40.6618" y2="36.1284" gradientUnits="userSpaceOnUse">
<stop stop-color="white"/>
<stop offset="0.59" stop-color="#F6F4D8"/>
<stop offset="1" stop-color="#FFFDE5"/>
</linearGradient>
<linearGradient id="paint39_linear_289_479" x1="44.2358" y1="43.6939" x2="44.2358" y2="36.1284" gradientUnits="userSpaceOnUse">
<stop stop-color="white"/>
<stop offset="0.59" stop-color="#F6F4D8"/>
<stop offset="1" stop-color="#FFFDE5"/>
</linearGradient>
<linearGradient id="paint40_linear_289_479" x1="46.8386" y1="43.6939" x2="46.8386" y2="36.1284" gradientUnits="userSpaceOnUse">
<stop stop-color="white"/>
<stop offset="0.59" stop-color="#F6F4D8"/>
<stop offset="1" stop-color="#FFFDE5"/>
</linearGradient>
<linearGradient id="paint41_linear_289_479" x1="49.5742" y1="43.6939" x2="49.5742" y2="36.1284" gradientUnits="userSpaceOnUse">
<stop stop-color="white"/>
<stop offset="0.59" stop-color="#F6F4D8"/>
<stop offset="1" stop-color="#FFFDE5"/>
</linearGradient>
<linearGradient id="paint42_linear_289_479" x1="53.4869" y1="43.6939" x2="53.4869" y2="36.1284" gradientUnits="userSpaceOnUse">
<stop stop-color="white"/>
<stop offset="0.59" stop-color="#F6F4D8"/>
<stop offset="1" stop-color="#FFFDE5"/>
</linearGradient>
<linearGradient id="paint43_linear_289_479" x1="58.777" y1="43.6939" x2="58.777" y2="36.1284" gradientUnits="userSpaceOnUse">
<stop stop-color="white"/>
<stop offset="0.59" stop-color="#F6F4D8"/>
<stop offset="1" stop-color="#FFFDE5"/>
</linearGradient>
<linearGradient id="paint44_linear_289_479" x1="61.7036" y1="43.6939" x2="61.7036" y2="36.1284" gradientUnits="userSpaceOnUse">
<stop stop-color="white"/>
<stop offset="0.59" stop-color="#F6F4D8"/>
<stop offset="1" stop-color="#FFFDE5"/>
</linearGradient>
<linearGradient id="paint45_linear_289_479" x1="65.4248" y1="43.6939" x2="65.4248" y2="36.1284" gradientUnits="userSpaceOnUse">
<stop stop-color="white"/>
<stop offset="0.59" stop-color="#F6F4D8"/>
<stop offset="1" stop-color="#FFFDE5"/>
</linearGradient>
<linearGradient id="paint46_linear_289_479" x1="69.3365" y1="43.6939" x2="69.3365" y2="36.1284" gradientUnits="userSpaceOnUse">
<stop stop-color="white"/>
<stop offset="0.59" stop-color="#F6F4D8"/>
<stop offset="1" stop-color="#FFFDE5"/>
</linearGradient>
<linearGradient id="paint47_linear_289_479" x1="35.5046" y1="43.6939" x2="35.5046" y2="36.1284" gradientUnits="userSpaceOnUse">
<stop stop-color="white"/>
<stop offset="0.59" stop-color="#F6F4D8"/>
<stop offset="1" stop-color="#FFFDE5"/>
</linearGradient>
<linearGradient id="paint48_linear_289_479" x1="34.7203" y1="43.6939" x2="34.7203" y2="36.1284" gradientUnits="userSpaceOnUse">
<stop stop-color="white"/>
<stop offset="0.59" stop-color="#F6F4D8"/>
<stop offset="1" stop-color="#FFFDE5"/>
</linearGradient>
<linearGradient id="paint49_linear_289_479" x1="33.0678" y1="43.6939" x2="33.0678" y2="36.1284" gradientUnits="userSpaceOnUse">
<stop stop-color="white"/>
<stop offset="0.59" stop-color="#F6F4D8"/>
<stop offset="1" stop-color="#FFFDE5"/>
</linearGradient>
<linearGradient id="paint50_linear_289_479" x1="77.7888" y1="45.0601" x2="77.7888" y2="-3.02131" gradientUnits="userSpaceOnUse">
<stop stop-color="white"/>
<stop offset="0.59" stop-color="#F6F4D8"/>
<stop offset="1" stop-color="#FFFDE5"/>
</linearGradient>
<linearGradient id="paint51_linear_289_479" x1="85.4614" y1="45.0601" x2="85.4614" y2="-3.02131" gradientUnits="userSpaceOnUse">
<stop stop-color="white"/>
<stop offset="0.59" stop-color="#F6F4D8"/>
<stop offset="1" stop-color="#FFFDE5"/>
</linearGradient>
<linearGradient id="paint52_linear_289_479" x1="114.46" y1="45.0601" x2="114.46" y2="-3.02131" gradientUnits="userSpaceOnUse">
<stop stop-color="white"/>
<stop offset="0.59" stop-color="#F6F4D8"/>
<stop offset="1" stop-color="#FFFDE5"/>
</linearGradient>
<linearGradient id="paint53_linear_289_479" x1="105.331" y1="45.0601" x2="105.331" y2="-3.02131" gradientUnits="userSpaceOnUse">
<stop stop-color="white"/>
<stop offset="0.59" stop-color="#F6F4D8"/>
<stop offset="1" stop-color="#FFFDE5"/>
</linearGradient>
</defs>
</svg>
