<svg width="217" height="108" viewBox="0 0 217 108" fill="none" xmlns="http://www.w3.org/2000/svg">
<g style="mix-blend-mode:multiply" opacity="0.7">
<path d="M60.8524 94.7651C62.3241 96.108 64.2213 98.0429 65.0547 99.3505L63.4411 100.49C63.2372 100.146 62.9447 99.7392 62.6078 99.2974C54.1235 99.7039 52.9888 99.7392 52.1377 100.022C52.0402 99.642 51.7387 98.7232 51.5171 98.2372C51.9338 98.1312 52.315 97.8308 52.8469 97.3272C53.4054 96.8413 55.1519 94.9506 56.2335 93.0687L58.1485 93.8639C57.1378 95.3217 55.8789 96.7176 54.6643 97.8573L61.2159 97.6541C60.5953 96.965 59.957 96.3112 59.363 95.7281L60.8524 94.7562V94.7651ZM52.6696 101.064H63.4411V107.929H61.3932V107.143H54.62V107.938H52.6696V101.064ZM54.62 102.849V105.358H61.3932V102.849H54.62Z" fill="#231815"/>
<path d="M72.1117 100.508C71.6507 100.04 70.6134 99.3328 69.8066 98.9087L70.8439 97.6099C71.6595 97.9899 72.6968 98.5995 73.2287 99.0854L72.1117 100.508ZM72.3865 96.4791C71.9521 95.9578 70.9503 95.2421 70.1524 94.7562L71.2428 93.5016C72.023 93.9257 73.0603 94.5795 73.5567 95.0831L72.3865 96.4791ZM70.179 106.834C70.7553 105.615 71.5709 103.635 72.156 101.824L73.6543 102.761C73.1401 104.439 72.484 106.242 71.8634 107.761L70.1701 106.834H70.179ZM74.4255 99.3593C74.3014 100.128 74.0621 100.941 73.7695 101.462C73.5745 101.303 73.211 101.02 72.9893 100.914C73.273 100.411 73.4238 99.7745 73.5124 99.1473L74.4255 99.3681V99.3593ZM76.4025 98.7143C76.3671 98.573 76.3228 98.4139 76.2607 98.2284C74.2482 98.5111 73.8316 98.6083 73.5745 98.7143C73.5301 98.5553 73.3351 98.1666 73.211 97.9457C73.4681 97.9103 73.672 97.7071 73.9645 97.4156C74.1064 97.2742 74.4256 96.8943 74.7624 96.4172C73.9468 96.4967 73.672 96.5409 73.5124 96.6204C73.4503 96.4614 73.273 96.0726 73.1312 95.8871C73.3351 95.8518 73.4947 95.7016 73.6543 95.463C73.8316 95.2245 74.3724 94.3056 74.6117 93.4575L75.6313 93.8197C75.3919 94.4028 75.0373 94.9948 74.6383 95.5249L75.3564 95.4895C75.4983 95.251 75.6313 95.0213 75.7376 94.7827L76.7128 95.2333C76.2696 96.002 75.6578 96.8148 75.0018 97.5216L75.9149 97.4244C75.8529 97.283 75.7731 97.1417 75.711 97.018L76.5089 96.7353C76.7838 97.2565 77.0852 97.9457 77.2093 98.3786L76.3937 98.7055L76.4025 98.7143ZM84.213 104.572C84.213 104.572 84.1776 105.023 84.1155 105.226C83.8584 106.48 83.5747 107.17 83.1403 107.514C82.7236 107.814 82.2892 107.894 81.6509 107.92C81.1278 107.938 80.1615 107.92 79.1774 107.885C79.142 107.479 78.9381 106.913 78.6632 106.525C79.603 106.622 80.6757 106.631 81.0569 106.631C81.3938 106.631 81.58 106.613 81.7484 106.507C81.9257 106.383 82.0676 106.127 82.2094 105.694H74.1241C74.3812 104.961 74.6472 103.892 74.8422 103.017H81.6686V102.513H74.3635V101.48H83.424V104.068H76.3494L76.2252 104.572H84.213ZM74.8954 101.162C74.8777 100.693 74.7713 99.9424 74.594 99.3416L75.4096 99.1384C75.6047 99.7039 75.7288 100.419 75.7465 100.897L74.8954 101.162ZM76.2696 100.799C76.2341 100.349 76.0479 99.6597 75.8352 99.1207L76.571 98.838C76.7926 99.3593 77.0054 100.048 77.0497 100.455L76.2696 100.799ZM80.7555 95.8341H76.9345V94.8622H78.4327C78.3175 94.5177 78.1313 94.0759 77.954 93.749L79.204 93.5016C79.4079 93.8815 79.665 94.394 79.7803 94.712L79.142 94.8711H80.7555V95.8429V95.8341ZM77.3866 98.7143H80.4363V101.047H77.3866V98.7143ZM80.4363 97.0887H77.4043V96.2405H80.4363V97.0887ZM80.4363 98.2991H77.4043V97.4509H80.4363V98.2991ZM78.4859 100.243H79.2838V99.5537H78.4859V100.243ZM81.9346 99.3063C81.8105 100.075 81.58 100.87 81.2786 101.391C81.119 101.232 80.7378 100.967 80.5073 100.844C80.791 100.358 80.9417 99.7127 81.0303 99.0766L81.9257 99.3151L81.9346 99.3063ZM83.9471 98.7585C83.9116 98.6171 83.8495 98.4493 83.7875 98.2549C81.7573 98.52 81.3406 98.6171 81.0835 98.7408C81.0392 98.5641 80.8619 98.1754 80.72 97.9722C80.9771 97.928 81.1988 97.7513 81.4736 97.4244C81.6154 97.283 81.9346 96.9031 82.2715 96.4525C81.4736 96.5321 81.181 96.5762 81.0126 96.6381C80.9683 96.4791 80.791 96.108 80.658 95.8871C80.853 95.8518 80.9949 95.7016 81.1722 95.463C81.3495 95.2598 81.908 94.3233 82.1474 93.4575L83.1669 93.8374C82.9098 94.4028 82.5463 95.0124 82.1562 95.5425L82.8921 95.5072C83.0162 95.2686 83.1492 95.0389 83.2556 94.8004L84.2308 95.2245C83.7875 95.9931 83.1758 96.8236 82.5374 97.5304L83.4329 97.4332C83.3708 97.2919 83.3087 97.1505 83.2378 97.0268L84.018 96.7441C84.2928 97.2742 84.6208 97.9634 84.7361 98.4228L83.9382 98.7497L83.9471 98.7585ZM82.3956 101.33C82.3779 100.826 82.2538 99.9954 82.0764 99.3681L82.8921 99.1473C83.0871 99.7569 83.229 100.57 83.2467 101.047L82.3956 101.33ZM84.1066 98.8557C84.3637 99.4653 84.6208 100.269 84.6829 100.755L83.885 101.117C83.8229 100.587 83.6013 99.7569 83.3442 99.1473L84.1155 98.8645L84.1066 98.8557Z" fill="#231815"/>
<path d="M104.284 99.5802V101.4H91.0483V99.5802H104.284Z" fill="#231815"/>
<path d="M116.297 101.886C116.297 101.886 116.279 102.31 116.262 102.531C116.067 105.473 115.863 106.71 115.446 107.17C115.162 107.532 114.843 107.655 114.373 107.717C113.992 107.761 113.363 107.761 112.68 107.735C112.644 107.267 112.476 106.639 112.237 106.215C112.813 106.277 113.336 106.277 113.611 106.277C113.815 106.295 113.965 106.259 114.107 106.118C114.311 105.88 114.471 105.129 114.604 103.326H113.132V103.344H111.501C111.705 102.637 111.917 101.718 112.095 100.835H110.898V99.2179H116.838V100.835H113.691C113.611 101.197 113.549 101.542 113.469 101.886H116.297ZM116.501 98.3609H111.625V93.8992H116.501V98.3609ZM115.082 95.198H112.972V97.0445H115.082V95.198ZM119.001 100.366C119.001 102.611 118.762 105.853 117.45 107.947C117.148 107.647 116.412 107.134 116.031 106.975C117.228 105.067 117.343 102.337 117.343 100.349V96.32H120.446V93.3161H122.255V94.1643H125.304V95.6397H122.255V96.3289H124.568L124.826 96.2847L125.996 96.5321C125.819 97.5658 125.597 98.7762 125.375 99.536L124.001 99.1914C124.063 98.8292 124.143 98.3168 124.205 97.7955H122.113V98.5818L123.611 98.4404L123.753 99.6597L122.104 99.801V100.04C122.104 100.428 122.166 100.464 122.565 100.464H123.682C123.983 100.464 124.063 100.358 124.116 99.695C124.418 99.8982 125.047 100.101 125.473 100.181C125.313 101.391 124.897 101.736 123.877 101.736H122.299C120.827 101.736 120.49 101.347 120.49 100.057V99.9601L119.4 100.057L119.24 98.838L120.49 98.732V97.8043H119.001V100.375V100.366ZM124.294 106.056C124.409 106.056 124.498 106.039 124.551 105.994C124.613 105.933 124.666 105.818 124.693 105.685C124.71 105.464 124.737 104.899 124.737 104.263C125.021 104.51 125.597 104.828 126.014 104.952C125.978 105.685 125.898 106.454 125.819 106.772C125.694 107.099 125.535 107.302 125.295 107.479C125.074 107.62 124.719 107.7 124.418 107.7H123.567C123.15 107.7 122.751 107.594 122.494 107.337C122.237 107.055 122.175 106.807 122.175 105.915V103.803H121.262C121.058 105.632 120.544 107.063 119.116 108.018C118.921 107.629 118.46 107.046 118.106 106.798C119.515 105.871 119.719 104.386 119.781 102.337H123.709V105.765C123.709 105.862 123.744 105.95 123.771 105.986C123.815 106.047 123.912 106.083 124.01 106.083H124.267L124.294 106.056Z" fill="#231815"/>
<path d="M138 101.109C137.556 100.72 136.661 100.075 135.934 99.589C135.358 100.384 134.436 101.188 132.991 101.842C132.734 101.462 132.211 100.888 131.794 100.587C133.425 99.9601 134.241 99.1914 134.64 98.4139H131.989V96.9561H133.062C132.68 96.7176 132.166 96.4349 131.847 96.2847C132.663 95.5337 133.283 94.3851 133.602 93.2277L135.278 93.5723C135.181 93.8727 135.083 94.1819 134.959 94.5H138.922V95.9401H136.847V96.6469C136.847 96.7529 136.847 96.8501 136.83 96.9561H139.294V98.4139H136.661C137.335 98.7585 138.931 99.6508 139.347 99.9159L138.009 101.109H138ZM135.03 96.9561C135.048 96.8325 135.048 96.7176 135.048 96.6116V95.9401H134.25C134.028 96.32 133.771 96.6646 133.514 96.9561H135.03ZM134.117 101.338H144.534V107.929H142.583V107.426H135.987V107.947H134.117V101.338ZM135.987 102.796V103.671H142.583V102.796H135.987ZM142.583 105.941V105.014H135.987V105.941H142.583ZM145.908 94.4558V100.393H139.835V94.4558H145.908ZM144.019 96.0991H141.59V98.7497H144.019V96.0991Z" fill="#231815"/>
<path d="M153.993 99.6155C153.993 102.089 153.754 105.676 152.282 107.929C151.963 107.602 151.192 107.055 150.766 106.878C152.078 104.811 152.176 101.807 152.176 99.6067V94.5353H158.231C158.107 94.2526 157.956 93.9699 157.832 93.749L159.649 93.2808C159.871 93.6695 160.11 94.1113 160.305 94.5353H165.625V96.0991H153.993V99.6067V99.6155ZM165.758 106.268H160.58V107.85H158.763V106.268H153.94V104.766H158.763V104.033H155.057V99.1296H158.763V98.4758H154.596V97.0798H158.763V96.3554H160.58V97.0798H165.217V98.4758H160.58V99.1296H164.499V104.033H160.58V104.766H165.758V106.268ZM156.715 101.038H158.763V100.269H156.715V101.038ZM158.763 102.884V102.098H156.715V102.884H158.763ZM160.58 100.269V101.038H162.734V100.269H160.58ZM162.734 102.098H160.58V102.884H162.734V102.098Z" fill="#231815"/>
</g>
<path d="M60.3471 94.5442C61.8187 95.8871 63.7159 97.822 64.5493 99.1296L62.9358 100.269C62.7319 99.9247 62.4393 99.5183 62.1024 99.0766C53.6182 99.483 52.4834 99.5183 51.6323 99.801C51.5348 99.4211 51.2334 98.5023 51.0117 98.0164C51.4284 97.9103 51.8096 97.61 52.3415 97.1064C52.9001 96.6204 54.6466 94.7297 55.7281 92.8478L57.6431 93.643C56.6324 95.1008 55.3735 96.4967 54.159 97.6365L60.7105 97.4332C60.09 96.7441 59.4516 96.0903 58.8577 95.5072L60.3471 94.5353V94.5442ZM52.1642 100.844H62.9358V107.708H60.8878V106.922H54.1146V107.717H52.1642V100.844ZM54.1146 102.628V105.137H60.8878V102.628H54.1146Z" fill="url(#paint0_linear_662_631)"/>
<path d="M71.6151 100.287C71.1541 99.8187 70.1168 99.1119 69.3101 98.6878L70.3473 97.3891C71.1629 97.769 72.2002 98.3786 72.7321 98.8645L71.6151 100.287ZM71.8899 96.2582C71.4555 95.7369 70.4537 95.0213 69.6558 94.5353L70.7463 93.2808C71.5264 93.7048 72.5637 94.3586 73.0602 94.8622L71.8899 96.2582ZM69.6824 106.613C70.2587 105.394 71.0743 103.415 71.6594 101.603L73.1577 102.54C72.6435 104.219 71.9874 106.021 71.3668 107.541L69.6735 106.613H69.6824ZM73.929 99.1384C73.8048 99.9071 73.5655 100.72 73.2729 101.241C73.0779 101.082 72.7144 100.799 72.4928 100.693C72.7765 100.19 72.9272 99.5537 73.0158 98.9264L73.929 99.1473V99.1384ZM75.906 98.4935C75.8705 98.3521 75.8262 98.1931 75.7641 98.0075C73.7517 98.2903 73.335 98.3874 73.0779 98.4935C73.0336 98.3344 72.8385 97.9457 72.7144 97.7248C72.9715 97.6895 73.1754 97.4863 73.468 97.1947C73.6098 97.0533 73.929 96.6734 74.2659 96.1963C73.4502 96.2759 73.1754 96.32 73.0158 96.3995C72.9538 96.2405 72.7765 95.8518 72.6346 95.6662C72.8385 95.6309 72.9981 95.4807 73.1577 95.2422C73.335 95.0036 73.8758 94.0848 74.1151 93.2366L75.1347 93.5988C74.8953 94.1819 74.5407 94.7739 74.1417 95.304L74.8598 95.2687C75.0017 95.0301 75.1347 94.8004 75.2411 94.5618L76.2163 95.0124C75.773 95.7811 75.1613 96.5939 74.5052 97.3007L75.4184 97.2035C75.3563 97.0622 75.2765 96.9208 75.2145 96.7971L76.0123 96.5144C76.2872 97.0357 76.5886 97.7248 76.7127 98.1577L75.8971 98.4846L75.906 98.4935ZM83.7164 104.351C83.7164 104.351 83.681 104.802 83.6189 105.005C83.3618 106.259 83.0781 106.949 82.6437 107.293C82.227 107.594 81.7926 107.673 81.1543 107.7C80.6313 107.717 79.6649 107.7 78.6809 107.664C78.6454 107.258 78.4415 106.692 78.1667 106.304C79.1064 106.401 80.1791 106.41 80.5603 106.41C80.8972 106.41 81.0834 106.392 81.2518 106.286C81.4292 106.162 81.571 105.906 81.7128 105.473H73.6275C73.8846 104.74 74.1506 103.671 74.3456 102.796H81.172V102.293H73.8669V101.259H82.9274V103.848H75.8528L75.7287 104.351H83.7164ZM74.3988 100.941C74.3811 100.473 74.2747 99.7215 74.0974 99.1208L74.913 98.9175C75.1081 99.483 75.2322 100.199 75.2499 100.676L74.3988 100.941ZM75.773 100.579C75.7375 100.128 75.5513 99.4388 75.3386 98.8999L76.0744 98.6172C76.296 99.1384 76.5088 99.8276 76.5531 100.234L75.773 100.579ZM80.2589 95.6132H76.4379V94.6414H77.9362C77.8209 94.2968 77.6347 93.855 77.4574 93.5281L78.7075 93.2808C78.9114 93.6607 79.1685 94.1731 79.2837 94.4912L78.6454 94.6502H80.2589V95.6221V95.6132ZM76.89 98.4935H79.9397V100.826H76.89V98.4935ZM79.9397 96.8678H76.9078V96.0196H79.9397V96.8678ZM79.9397 98.0782H76.9078V97.23H79.9397V98.0782ZM77.9894 100.022H78.7872V99.3328H77.9894V100.022ZM81.438 99.0854C81.3139 99.8541 81.0834 100.649 80.782 101.17C80.6224 101.011 80.2412 100.746 80.0107 100.623C80.2944 100.137 80.4451 99.4918 80.5337 98.8557L81.4291 99.0942L81.438 99.0854ZM83.4505 98.5376C83.415 98.3963 83.353 98.2284 83.2909 98.034C81.2607 98.2991 80.844 98.3963 80.5869 98.52C80.5426 98.3433 80.3653 97.9545 80.2234 97.7513C80.4805 97.7071 80.7022 97.5304 80.977 97.2035C81.1189 97.0622 81.438 96.6823 81.7749 96.2317C80.977 96.3112 80.6845 96.3554 80.516 96.4172C80.4717 96.2582 80.2944 95.8871 80.1614 95.6662C80.3564 95.6309 80.4983 95.4807 80.6756 95.2422C80.8529 95.0389 81.4114 94.1024 81.6508 93.2366L82.6703 93.6165C82.4132 94.1819 82.0497 94.7916 81.6597 95.3217L82.3955 95.2863C82.5196 95.0478 82.6526 94.8181 82.759 94.5795L83.7342 95.0036C83.2909 95.7723 82.6792 96.6028 82.0409 97.3096L82.9363 97.2124C82.8742 97.071 82.8122 96.9297 82.7412 96.806L83.5214 96.5232C83.7962 97.0533 84.1242 97.7425 84.2395 98.2019L83.4416 98.5288L83.4505 98.5376ZM81.899 101.109C81.8813 100.605 81.7572 99.7745 81.5799 99.1473L82.3955 98.9264C82.5905 99.536 82.7324 100.349 82.7501 100.826L81.899 101.109ZM83.6101 98.6348C83.8672 99.2444 84.1243 100.048 84.1863 100.534L83.3884 100.897C83.3264 100.366 83.1047 99.536 82.8476 98.9264L83.6189 98.6437L83.6101 98.6348Z" fill="url(#paint1_linear_662_631)"/>
<path d="M103.779 99.3505V101.17H90.543V99.3505H103.779Z" fill="url(#paint2_linear_662_631)"/>
<path d="M115.8 101.665C115.8 101.665 115.783 102.089 115.765 102.31C115.57 105.252 115.366 106.489 114.949 106.949C114.666 107.311 114.346 107.435 113.877 107.496C113.495 107.541 112.866 107.541 112.183 107.514C112.148 107.046 111.979 106.419 111.74 105.994C112.316 106.056 112.839 106.056 113.114 106.056C113.318 106.074 113.469 106.039 113.611 105.897C113.815 105.659 113.974 104.908 114.107 103.105H112.635V103.123H111.004C111.208 102.416 111.421 101.497 111.598 100.614H110.401V98.9971H116.341V100.614H113.194C113.114 100.976 113.052 101.321 112.972 101.665H115.8ZM116.004 98.1401H111.128V93.6783H116.004V98.1401ZM114.586 94.9771H112.476V96.8236H114.586V94.9771ZM118.504 100.146C118.504 102.39 118.265 105.632 116.953 107.726C116.652 107.426 115.916 106.913 115.534 106.754C116.731 104.846 116.847 102.116 116.847 100.128V96.0992H119.949V93.0952H121.758V93.9434H124.808V95.4189H121.758V96.108H124.072L124.329 96.0638L125.499 96.3112C125.322 97.3449 125.1 98.5553 124.879 99.3151L123.505 98.9706C123.567 98.6083 123.646 98.0959 123.708 97.5746H121.616V98.3609L123.114 98.2196L123.256 99.4388L121.607 99.5802V99.8187C121.607 100.207 121.669 100.243 122.068 100.243H123.185C123.487 100.243 123.567 100.137 123.62 99.4742C123.921 99.6774 124.551 99.8806 124.976 99.9601C124.817 101.17 124.4 101.515 123.38 101.515H121.802C120.331 101.515 119.994 101.126 119.994 99.8364V99.7392L118.903 99.8364L118.744 98.6172L119.994 98.5111V97.5834H118.504V100.154V100.146ZM123.797 105.835C123.912 105.835 124.001 105.818 124.054 105.774C124.116 105.712 124.169 105.597 124.196 105.464C124.214 105.243 124.24 104.678 124.24 104.042C124.524 104.289 125.1 104.607 125.517 104.731C125.482 105.464 125.402 106.233 125.322 106.551C125.198 106.878 125.038 107.081 124.799 107.258C124.577 107.399 124.223 107.479 123.921 107.479H123.07C122.653 107.479 122.254 107.373 121.997 107.116C121.74 106.834 121.678 106.586 121.678 105.694V103.582H120.765C120.561 105.411 120.047 106.843 118.62 107.797C118.425 107.408 117.964 106.825 117.609 106.578C119.019 105.65 119.223 104.166 119.285 102.116H123.212V105.544C123.212 105.641 123.247 105.729 123.274 105.765C123.318 105.827 123.416 105.862 123.513 105.862H123.77L123.797 105.835Z" fill="url(#paint3_linear_662_631)"/>
<path d="M137.503 100.888C137.06 100.499 136.165 99.8541 135.438 99.3681C134.861 100.163 133.939 100.967 132.494 101.621C132.237 101.241 131.714 100.667 131.297 100.366C132.929 99.7392 133.744 98.9705 134.143 98.1931H131.492V96.7353H132.565C132.184 96.4967 131.67 96.214 131.351 96.0638C132.166 95.3128 132.787 94.1643 133.106 93.0069L134.781 93.3514C134.684 93.6518 134.586 93.9611 134.462 94.2791H138.425V95.7192H136.351V96.426C136.351 96.5321 136.351 96.6292 136.333 96.7353H138.798V98.1931H136.164C136.838 98.5376 138.434 99.43 138.851 99.695L137.512 100.888H137.503ZM134.533 96.7353C134.551 96.6116 134.551 96.4967 134.551 96.3907V95.7192H133.753C133.531 96.0991 133.274 96.4437 133.017 96.7353H134.533ZM133.62 101.117H144.037V107.708H142.087V107.205H135.491V107.726H133.62V101.117ZM135.491 102.575V103.45H142.087V102.575H135.491ZM142.087 105.721V104.793H135.491V105.721H142.087ZM145.411 94.2349V100.172H139.338V94.2349H145.411ZM143.523 95.8783H141.094V98.5288H143.523V95.8783Z" fill="url(#paint4_linear_662_631)"/>
<path d="M153.488 99.3946C153.488 101.868 153.248 105.456 151.777 107.708C151.458 107.382 150.686 106.834 150.261 106.657C151.573 104.59 151.67 101.586 151.67 99.3858V94.3145H157.725C157.601 94.0317 157.451 93.749 157.327 93.5281L159.144 93.0599C159.366 93.4486 159.605 93.8904 159.8 94.3145H165.119V95.8783H153.488V99.3858V99.3946ZM165.252 106.047H160.075V107.629H158.257V106.047H153.435V104.545H158.257V103.812H154.552V98.9087H158.257V98.2549H154.091V96.859H158.257V96.1345H160.075V96.859H164.711V98.2549H160.075V98.9087H163.993V103.812H160.075V104.545H165.252V106.047ZM156.209 100.817H158.257V100.048H156.209V100.817ZM158.257 102.664V101.877H156.209V102.664H158.257ZM160.075 100.048V100.817H162.229V100.048H160.075ZM162.229 101.877H160.075V102.664H162.229V101.877Z" fill="url(#paint5_linear_662_631)"/>
<g style="mix-blend-mode:multiply" opacity="0.53">
<path d="M37.7759 50.2893H26.366C30.2668 52.1093 34.407 54.2562 36.9248 55.7935L33.7155 59.4778C31.1179 57.6931 26.6497 55.0691 22.5893 53.1695L24.8589 50.2981H12.4827L16.0998 53.2137C12.5714 55.5196 7.53579 58.073 3.55519 59.6456C2.90802 58.6296 1.68458 57.0569 0.833496 56.0409C4.48607 54.6626 9.28229 52.2772 11.9597 50.2981H0.833496V45.8894H3.7591L3.19171 24.6852C5.46127 24.0403 8.10318 23.0242 9.92946 22.1319L11.9597 26.0547V23.7929H26.6941V45.8894H30.7988C30.8786 44.7585 30.9229 43.5835 31.0027 42.3289H27.5895V38.521H31.1623C31.2066 37.3901 31.242 36.215 31.242 35.0399H27.9086V31.1967H31.3573C31.3573 29.8979 31.4016 28.6875 31.4016 27.4329H27.7845V23.5455H35.6216C35.5418 30.6312 35.2581 39.6077 34.8946 45.8806H37.7759V50.2893ZM7.81062 45.8806H11.9508V26.249C10.4082 26.6908 8.86561 27.1414 7.32302 27.5036L7.44713 31.1437H10.9756V34.9869H7.52692L7.60671 38.4238H11.0199V42.267H7.73083L7.81062 45.8717V45.8806ZM15.3197 27.3888V45.8806H23.2011V27.3799H15.3197V27.3888ZM22.2259 32.4071H16.2594V29.4562H22.2702L22.2259 32.4071ZM16.419 34.3861H22.2702V43.4863H16.419V34.3861ZM18.4049 40.7386H20.2311V37.1338H18.4049V40.7386Z" fill="#231815"/>
<path d="M81.6244 23.9431V32.6545H76.8548V27.9365H51.9429V32.6545H47.4126V23.9431H61.8544C61.5353 23.1479 61.1718 22.2997 60.8881 21.6283L66.0655 20.6299C66.5886 21.6725 67.2269 22.9094 67.6259 23.9519H81.6244V23.9431ZM49.496 43.6895H79.5765V58.4794H74.8423V57.4369H54.0262V58.5589H49.496V43.6895ZM52.4216 34.0946H76.2874V42.2052H52.4216V34.0946ZM75.3654 29.5003V32.6986H53.4234V29.5003H75.3654ZM54.0262 47.1263V49.0877H61.9697V47.1263H54.0262ZM61.9697 54V52.0386H54.0262V54H61.9697ZM56.7923 39.1659H71.6331V37.2045H56.7923V39.1659ZM74.8423 47.1175H66.6152V49.0789H74.8423V47.1175ZM74.8423 53.9912V52.0298H66.6152V53.9912H74.8423Z" fill="#231815"/>
<path d="M126.59 29.0674C125.065 30.428 123.345 31.7091 121.856 32.7428C123.62 33.6616 125.544 34.4215 127.592 34.9781C126.59 35.8969 125.385 37.5756 124.746 38.733C123.097 38.2117 121.617 37.5756 120.172 36.8158V40.2526C120.172 41.2156 120.251 41.5337 120.775 41.5337H122.743C123.301 41.5337 124.268 41.4895 124.791 41.3305C124.87 42.2935 124.95 43.6453 125.11 44.5641C124.551 44.7673 123.629 44.8027 122.787 44.8027H120.296C116.927 44.8027 116.289 43.4421 116.289 40.2084V37.8936H112.601C112.476 40.6944 111.519 43.6895 108.186 45.8099C107.742 45.1296 106.581 43.9722 105.783 43.2477V44.4493H97.8395C97.68 45.3681 97.5559 46.3311 97.4406 47.2058H105.783C105.783 47.2058 105.739 48.2837 105.703 48.8491C105.26 54.2474 104.781 56.8449 103.735 57.8874C102.893 58.8063 101.927 59.1243 100.526 59.2039C99.4442 59.3275 97.3608 59.3275 95.2331 59.248C95.1533 58.0111 94.5948 56.3678 93.8678 55.2899C95.8714 55.4489 97.8395 55.4931 98.7172 55.4931C99.3555 55.4931 99.7988 55.4489 100.162 55.0955C100.641 54.6538 101.005 53.3727 101.288 50.6603H92.866C93.4245 48.0628 94.0717 44.1047 94.4263 40.9506H101.528V38.1499H95.7118V37.5137C94.5061 38.1145 93.3093 38.6358 92.0593 39.0687C91.5007 38.0262 90.3305 36.427 89.4883 35.5877C91.8554 34.9074 94.1427 33.8295 96.226 32.5131C95.1444 31.7179 93.6994 30.7902 92.4937 30.1188L95.2242 27.6008C96.5895 28.2811 98.274 29.2441 99.4353 30.1188C100.278 29.3236 101.084 28.4755 101.758 27.5566H93.859V23.837H104.329L105.127 23.6338L108.053 25.0739C106.448 28.9879 103.762 32.1067 100.508 34.5452H105.765V42.4967C108.256 40.8534 108.611 38.9362 108.611 37.1427V34.3066H116.271C112.778 31.5501 110.092 27.9895 108.168 23.7133L111.98 22.5913C112.583 23.9519 113.345 25.233 114.267 26.3462C115.588 25.2241 117.078 23.784 118.035 22.6708L121.448 25.1093C119.799 26.4699 118.079 27.91 116.555 28.9879C117.237 29.624 117.955 30.2248 118.682 30.7902C120.207 29.5887 122.051 27.91 123.133 26.6289L126.581 29.0674H126.59ZM123.665 46.7376C122.663 49.6531 121.173 51.9768 119.25 53.8498C121.058 54.8482 122.698 55.8465 123.904 56.6505L121.501 59.8046C120.136 58.8416 118.212 57.6047 116.049 56.3236C113.523 57.8786 110.437 59.0006 107.104 59.7605C106.705 58.7179 105.863 57.1983 105.1 56.3236C107.707 55.8819 110.154 55.122 112.237 54.0883C110.269 53.0105 108.389 51.9326 106.661 51.0137L108.265 49.0965H107.299V45.9424H120.331L121.049 45.8187L123.656 46.7376H123.665ZM110.349 49.0965C112.033 49.98 113.877 50.8989 115.686 51.8972C116.652 51.0579 117.494 50.1391 118.212 49.0965H110.349Z" fill="#231815"/>
<path d="M4.25578 78.9591V71.2814H1.94189V70.5658H7.34983V71.2814H5.02708V78.9591H4.26465H4.25578Z" fill="#231815"/>
<path d="M6.49854 77.7045L9.64578 70.2831L12.66 77.7045H11.9508L11.0377 75.2837H8.11205L7.16344 77.7045H6.5074H6.49854ZM8.32482 74.7271H10.816L9.59258 71.626L8.32482 74.7271Z" fill="#231815"/>
<path d="M13.4668 77.7045V70.5658H14.114V77.7045H13.4668Z" fill="#231815"/>
<path d="M17.5985 77.9784L15.125 70.5658H15.8076L17.5985 76.2644L19.5045 70.2831L21.4815 76.2202L23.2014 70.5658H23.8752L21.4815 77.9784L19.5045 71.9176L17.5985 77.9784Z" fill="#231815"/>
<path d="M23.7422 77.7045L26.8894 70.2831L29.9037 77.7045H29.1944L28.2813 75.2837H25.3557L24.4071 77.7045H23.7511H23.7422ZM25.5685 74.7271H28.0597L26.8362 71.626L25.5685 74.7271Z" fill="#231815"/>
<path d="M30.7013 77.6869V70.2477L35.7723 76.2202V70.5481H36.3751V77.8989L31.3041 71.9176V77.6869H30.6924H30.7013Z" fill="#231815"/>
<path d="M43.441 78.9591V70.2036L49.4075 77.2274V70.557H50.1167V79.1977L44.1502 72.1561V78.9503H43.4321L43.441 78.9591Z" fill="#231815"/>
<path d="M59.2658 74.3119C59.2658 74.8155 59.1683 75.2926 58.9732 75.752C58.7782 76.2026 58.5034 76.609 58.1399 76.9624C57.7675 77.3158 57.3509 77.5897 56.8898 77.7752C56.4288 77.9608 55.9412 78.0579 55.4182 78.0579C54.8951 78.0579 54.4164 77.9608 53.9554 77.7752C53.4944 77.5897 53.0777 77.3158 52.7142 76.9624C52.3507 76.6002 52.067 76.1937 51.8809 75.7432C51.6858 75.2926 51.5972 74.8155 51.5972 74.3119C51.5972 73.8083 51.6947 73.3223 51.8809 72.8629C52.0759 72.4123 52.3507 72.0059 52.7142 71.6437C53.0688 71.2903 53.4855 71.0252 53.9465 70.8397C54.4075 70.6541 54.8951 70.5658 55.427 70.5658C55.959 70.5658 56.4466 70.6541 56.9164 70.8397C57.3774 71.0252 57.7853 71.2903 58.1487 71.6437C58.5122 72.0059 58.7959 72.4123 58.9821 72.8629C59.1771 73.3135 59.2658 73.7994 59.2658 74.3119ZM55.427 77.4748C55.8526 77.4748 56.2515 77.3953 56.6328 77.2363C57.014 77.0772 57.3509 76.8564 57.6523 76.556C57.9537 76.2556 58.1753 75.911 58.3349 75.5223C58.4945 75.1335 58.5743 74.7359 58.5743 74.303C58.5743 73.8701 58.4945 73.4725 58.3349 73.0838C58.1753 72.7039 57.9537 72.3593 57.6523 72.0501C57.3509 71.7497 57.014 71.52 56.6328 71.3698C56.2515 71.2108 55.8526 71.1312 55.4182 71.1312C54.9838 71.1312 54.5937 71.2108 54.2213 71.3698C53.849 71.5288 53.5032 71.7497 53.2018 72.0501C52.9004 72.3593 52.6699 72.7039 52.5192 73.0838C52.3596 73.4637 52.2798 73.8701 52.2798 74.303C52.2798 74.7359 52.3596 75.1335 52.5192 75.5223C52.6788 75.9022 52.9004 76.2468 53.2018 76.556C53.5032 76.8564 53.8401 77.0861 54.2125 77.2451C54.5848 77.3953 54.9838 77.4748 55.4182 77.4748H55.427Z" fill="#231815"/>
<path d="M73.9736 78.9591V71.2814H71.6509V70.5658H77.0588V71.2814H74.7361V78.9591H73.9736Z" fill="#231815"/>
<path d="M78.229 77.6869V70.5481H78.8762V73.446H82.777V70.5481H83.4242V77.6869H82.777V74.0026H78.8762V77.6869H78.229Z" fill="#231815"/>
<path d="M85.2061 77.6869V70.5481H85.8532V77.6869H85.2061Z" fill="#231815"/>
<path d="M87.6441 77.6869V70.2477L92.7152 76.2202V70.5481H93.318V77.8989L88.247 71.9176V77.6869H87.6353H87.6441Z" fill="#231815"/>
<path d="M95.1089 77.6869V70.5481H95.7561V73.8966L98.992 70.5481H99.843L96.4476 73.9585L100.003 77.6869H99.0629L95.7561 74.0645V77.6869H95.1089Z" fill="#231815"/>
<path d="M106.731 78.9591V71.2814H104.409V70.5658H109.817V71.2814H107.494V78.9591H106.731Z" fill="#231815"/>
<path d="M109.338 77.7046L112.485 70.2832L115.499 77.7046H114.79L113.877 75.2838H110.951L110.003 77.7046H109.347H109.338ZM111.164 74.7272H113.655L112.432 71.6261L111.164 74.7272Z" fill="#231815"/>
<path d="M116.297 77.7045V70.2654L121.368 76.2379V70.5658H121.971V77.9166L116.9 71.9352V77.7045H116.289H116.297Z" fill="#231815"/>
<path d="M123.762 77.7045V70.5658H124.409V73.9143L127.645 70.5658H128.496L125.101 73.9761L128.656 77.7045H127.716L124.409 74.0822V77.7045H123.762Z" fill="#231815"/>
<path d="M65.064 78.0049V66.9876H64.6473L64.2661 67.2791V78.0049V78.1993H64.7892H65.7998V78.0049H65.064Z" fill="#231815"/>
<path d="M63.1577 68.1008V68.3393L63.8936 67.7916V78.0049H63.3882H63.1577V78.1993H63.3882H64.0797V78.0049V67.4117L63.1577 68.1008Z" fill="#231815"/>
<path d="M60.2236 78.9591C60.2236 78.8443 60.2591 78.7559 60.3389 78.6764C60.4187 78.5969 60.5073 78.5615 60.6226 78.5615C60.7378 78.5615 60.8265 78.5969 60.9063 78.6764C60.9861 78.7559 61.0215 78.8443 61.0215 78.9591C61.0215 79.074 60.9861 79.1623 60.9063 79.2418C60.8265 79.3214 60.7378 79.3567 60.6226 79.3567C60.5073 79.3567 60.4187 79.3214 60.3389 79.2418C60.2591 79.1623 60.2236 79.074 60.2236 78.9591Z" fill="#231815"/>
<path d="M131.555 5.20387V14.3482H149.321V79.3567H151.44V14.3482V5.20387H149.321H131.555Z" fill="#231815"/>
<path d="M131.475 3.0216H154.481V3.322V3.92278V5.20387V14.3482V73.0219V79.3567H163.4V14.3482H179.278V5.20387H163.4H156.609V3.92278V3.0216H179.278V0.848175H131.475V3.0216Z" fill="#231815"/>
<path d="M208.72 77.1833V0.848175L202.815 0.865845L198.622 4.16133V77.1833V79.3567H206.964H217V77.1833H208.72Z" fill="#231815"/>
<path d="M186.104 13.6679V16.3802L194.375 10.0985V77.1833H188.746H186.104V79.3567H188.746H196.503V77.1833V5.77815L186.104 13.6679Z" fill="#231815"/>
</g>
<path d="M36.9513 49.4411H25.5414C29.4422 51.2611 33.5824 53.4081 36.1002 54.9454L32.8909 58.6296C30.2933 56.8449 25.8251 54.2209 21.7647 52.3213L24.0343 49.4499H11.6492L15.2663 52.3655C11.7379 54.6715 6.70229 57.2248 2.7217 58.7975C2.07452 57.7814 0.851085 56.2088 0 55.1927C3.65257 53.8145 8.44879 51.429 11.1262 49.4499H0V45.0412H2.9256L2.35821 23.837C4.62777 23.1921 7.26968 22.176 9.09597 21.2837L11.1262 25.2065V22.9447H25.8606V45.0412H29.9653C30.0451 43.9103 30.0894 42.7353 30.1692 41.4807H26.756V37.6728H30.3288C30.3731 36.5419 30.4085 35.3668 30.4085 34.1918H27.0751V30.3485H30.5238C30.5238 29.0497 30.5681 27.8393 30.5681 26.5848H26.951V22.6973H34.7881C34.7083 29.7831 34.4246 38.7595 34.0611 45.0324H36.9424V49.4411H36.9513ZM6.98599 45.0236H11.1262V25.4009C9.58357 25.8426 8.04098 26.2932 6.49839 26.6554L6.6225 30.2955H10.151V34.1387H6.70229L6.78208 37.5756H10.1953V41.4189H6.9062L6.98599 45.0236ZM14.495 26.5317V45.0236H22.3764V26.5317H14.495ZM21.4012 31.5501H15.4348V28.5992H21.4456L21.4012 31.5501ZM15.5944 33.5291H21.4456V42.6293H15.5944V33.5291ZM17.5802 39.8815H19.4065V36.2768H17.5802V39.8815Z" fill="url(#paint6_linear_662_631)"/>
<path d="M80.7909 23.0949V31.8063H76.0213V27.0883H51.1094V31.8063H46.5791V23.0949H61.0209C60.7018 22.2997 60.3383 21.4516 60.0546 20.7801L65.232 19.7817C65.7551 20.8243 66.3934 22.0612 66.7924 23.1037H80.7909V23.0949ZM48.6625 42.8413H78.743V57.6312H74.0089V56.5887H53.1927V57.7107H48.6625V42.8413ZM51.5881 33.2464H75.4539V41.357H51.5881V33.2464ZM74.5319 28.6522V31.8505H52.5899V28.6522H74.5319ZM53.1927 46.2781V48.2395H61.1362V46.2781H53.1927ZM61.1362 53.1518V51.1904H53.1927V53.1518H61.1362ZM55.9588 38.3177H70.7996V36.3563H55.9588V38.3177ZM74.0089 46.2693H65.7817V48.2307H74.0089V46.2693ZM74.0089 53.143V51.1816H65.7817V53.143H74.0089Z" fill="url(#paint7_linear_662_631)"/>
<path d="M125.757 28.2192C124.232 29.5798 122.512 30.8609 121.023 31.8946C122.787 32.8135 124.711 33.5733 126.759 34.1299C125.757 35.0488 124.551 36.7274 123.913 37.8848C122.264 37.3636 120.783 36.7274 119.338 35.9676V39.4045C119.338 40.3675 119.418 40.6855 119.941 40.6855H121.909C122.468 40.6855 123.434 40.6414 123.957 40.4823C124.037 41.4454 124.117 42.7971 124.276 43.716C123.718 43.9192 122.796 43.9545 121.953 43.9545H119.462C116.093 43.9545 115.455 42.5939 115.455 39.3603V37.0455H111.767C111.643 39.8462 110.685 42.8413 107.352 44.9617C106.909 44.2814 105.747 43.124 104.95 42.3995V43.6011H97.0061C96.8465 44.52 96.7224 45.483 96.6071 46.3577H104.95C104.95 46.3577 104.905 47.4355 104.87 48.001C104.426 53.3992 103.948 55.9967 102.902 57.0393C102.059 57.9581 101.093 58.2762 99.6923 58.3557C98.6107 58.4794 96.5273 58.4794 94.3996 58.3999C94.3198 57.163 93.7613 55.5196 93.0343 54.4418C95.0379 54.6008 97.0061 54.645 97.8837 54.645C98.5221 54.645 98.9653 54.6008 99.3288 54.2474C99.8075 53.8056 100.171 52.5245 100.455 49.8122H92.0325C92.5911 47.2147 93.2382 43.2565 93.5928 40.1024H100.694V37.3017H94.8783V36.6656C93.6726 37.2664 92.4758 37.7876 91.2258 38.2206C90.6672 37.178 89.497 35.5789 88.6548 34.7395C91.0219 34.0592 93.3092 32.9814 95.3925 31.6649C94.311 30.8698 92.8659 29.9421 91.6602 29.2706L94.3907 26.7526C95.756 27.4329 97.4405 28.3959 98.6018 29.2706C99.4441 28.4755 100.251 27.6273 100.925 26.7084H93.0255V22.9889H103.496L104.293 22.7857L107.219 24.2258C105.614 28.1397 102.928 31.2585 99.6746 33.697H104.932V41.6486C107.423 40.0052 107.778 38.088 107.778 36.2945V33.4584H115.437C111.944 30.7019 109.258 27.1414 107.334 22.8652L111.146 21.7431C111.749 23.1037 112.512 24.3848 113.434 25.498C114.755 24.376 116.244 22.9359 117.202 21.8226L120.615 24.2611C118.966 25.6217 117.246 27.0619 115.721 28.1397C116.404 28.7759 117.122 29.3766 117.849 29.9421C119.374 28.7405 121.218 27.0619 122.299 25.7808L125.748 28.2192H125.757ZM122.831 45.8894C121.829 48.805 120.34 51.1286 118.416 53.0016C120.225 54 121.865 54.9984 123.071 55.8024L120.668 58.9565C119.303 57.9935 117.379 56.7565 115.216 55.4755C112.689 57.0304 109.604 58.1525 106.27 58.9123C105.872 57.8698 105.029 56.3501 104.267 55.4755C106.873 55.0337 109.32 54.2739 111.404 53.2402C109.435 52.1623 107.556 51.0844 105.827 50.1656L107.432 48.2484H106.466V45.0942H119.498L120.216 44.9706L122.822 45.8894H122.831ZM109.515 48.2484C111.2 49.1319 113.044 50.0507 114.852 51.0491C115.819 50.2098 116.661 49.2909 117.379 48.2484H109.515Z" fill="url(#paint8_linear_662_631)"/>
<path d="M3.43115 78.1109V70.4333H1.1084V69.7176H6.51633V70.4333H4.19358V78.1109H3.43115Z" fill="url(#paint9_linear_662_631)"/>
<path d="M5.67432 76.8564L8.82156 69.4349L11.8358 76.8564H11.1266L10.2134 74.4355H7.28783L6.33923 76.8564H5.68318H5.67432ZM7.5006 73.8789H9.9918L8.76836 70.7778L7.5006 73.8789Z" fill="url(#paint10_linear_662_631)"/>
<path d="M12.6333 76.8564V69.7176H13.2805V76.8564H12.6333Z" fill="url(#paint11_linear_662_631)"/>
<path d="M16.7738 77.1303L14.3003 69.7176H14.9829L16.7738 75.4162L18.6798 69.4349L20.6568 75.3721L22.3767 69.7176H23.0505L20.6568 77.1303L18.6798 71.0694L16.7738 77.1303Z" fill="url(#paint12_linear_662_631)"/>
<path d="M22.9087 76.8564L26.0559 69.4349L29.0702 76.8564H28.361L27.4478 74.4355H24.5222L23.5736 76.8564H22.9176H22.9087ZM24.735 73.8789H27.2262L26.0027 70.7778L24.735 73.8789Z" fill="url(#paint13_linear_662_631)"/>
<path d="M29.8678 76.8387V69.3996L34.9388 75.3721V69.6999H35.5417V77.0507L30.4706 71.0694V76.8387H29.8589H29.8678Z" fill="url(#paint14_linear_662_631)"/>
<path d="M42.6163 78.1109V69.3554L48.5827 76.3793V69.7088H49.292V78.3495L43.3255 71.3079V78.1021H42.6074L42.6163 78.1109Z" fill="url(#paint15_linear_662_631)"/>
<path d="M58.4411 73.4637C58.4411 73.9673 58.3436 74.4444 58.1485 74.9038C57.9535 75.3544 57.6787 75.7608 57.3152 76.1142C56.9428 76.4676 56.5261 76.7415 56.0651 76.927C55.6041 77.1126 55.1165 77.2098 54.5935 77.2098C54.0704 77.2098 53.5917 77.1126 53.1307 76.927C52.6697 76.7415 52.253 76.4676 51.8895 76.1142C51.526 75.752 51.2423 75.3456 51.0562 74.895C50.8611 74.4444 50.7725 73.9673 50.7725 73.4637C50.7725 72.9601 50.87 72.4742 51.0562 72.0147C51.2512 71.5642 51.526 71.1577 51.8895 70.7955C52.2441 70.4421 52.6608 70.177 53.1218 69.9915C53.5828 69.806 54.0704 69.7176 54.6023 69.7176C55.1343 69.7176 55.6219 69.806 56.0917 69.9915C56.5527 70.177 56.9606 70.4421 57.324 70.7955C57.6875 71.1577 57.9712 71.5642 58.1574 72.0147C58.3524 72.4653 58.4411 72.9513 58.4411 73.4637ZM54.6023 76.6267C55.0279 76.6267 55.4268 76.5471 55.808 76.3881C56.1893 76.2291 56.5261 76.0082 56.8276 75.7078C57.129 75.4074 57.3506 75.0628 57.5102 74.6741C57.6698 74.2854 57.7496 73.8878 57.7496 73.4549C57.7496 73.0219 57.6698 72.6244 57.5102 72.2356C57.3506 71.8557 57.129 71.5111 56.8276 71.2019C56.5261 70.9015 56.1893 70.6718 55.808 70.5216C55.4268 70.3626 55.0279 70.2831 54.5935 70.2831C54.1591 70.2831 53.769 70.3626 53.3966 70.5216C53.0243 70.6806 52.6785 70.9015 52.3771 71.2019C52.0757 71.5111 51.8452 71.8557 51.6945 72.2356C51.5349 72.6155 51.4551 73.0219 51.4551 73.4549C51.4551 73.8878 51.5349 74.2854 51.6945 74.6741C51.854 75.054 52.0757 75.3986 52.3771 75.7078C52.6785 76.0082 53.0154 76.2379 53.3878 76.3969C53.7601 76.5471 54.1591 76.6267 54.5935 76.6267H54.6023Z" fill="url(#paint16_linear_662_631)"/>
<path d="M73.1489 78.1109V70.4333H70.8262V69.7176H76.2341V70.4333H73.9114V78.1109H73.1489Z" fill="url(#paint17_linear_662_631)"/>
<path d="M77.3955 76.8387V69.6999H78.0427V72.5978H81.9435V69.6999H82.5907V76.8387H81.9435V73.1545H78.0427V76.8387H77.3955Z" fill="url(#paint18_linear_662_631)"/>
<path d="M84.3726 76.8387V69.6999H85.0197V76.8387H84.3726Z" fill="url(#paint19_linear_662_631)"/>
<path d="M86.8106 76.8387V69.3996L91.8817 75.3721V69.6999H92.4845V77.0507L87.4135 71.0694V76.8387H86.8018H86.8106Z" fill="url(#paint20_linear_662_631)"/>
<path d="M94.2754 76.8387V69.6999H94.9226V73.0484L98.1585 69.6999H99.0096L95.6141 73.1103L99.1691 76.8387H98.2294L94.9226 73.2163V76.8387H94.2754Z" fill="url(#paint21_linear_662_631)"/>
<path d="M105.907 78.1109V70.4333H103.584V69.7176H108.992V70.4333H106.669V78.1109H105.907Z" fill="url(#paint22_linear_662_631)"/>
<path d="M108.504 76.8564L111.652 69.435L114.666 76.8564H113.957L113.044 74.4356H110.118L109.169 76.8564H108.513H108.504ZM110.331 73.879H112.822L111.598 70.7779L110.331 73.879Z" fill="url(#paint23_linear_662_631)"/>
<path d="M115.464 76.8564V69.4172L120.535 75.3897V69.7176H121.138V77.0684L116.067 71.0871V76.8564H115.455H115.464Z" fill="url(#paint24_linear_662_631)"/>
<path d="M122.929 76.8564V69.7176H123.576V73.0661L126.812 69.7176H127.663L124.267 73.128L127.822 76.8564H126.883L123.576 73.234V76.8564H122.929Z" fill="url(#paint25_linear_662_631)"/>
<path d="M64.2304 77.1567V66.1394H63.8138L63.4414 66.431V77.1567V77.3511H63.9556H64.9751V77.1567H64.2304Z" fill="url(#paint26_linear_662_631)"/>
<path d="M62.3242 67.2526V67.4912L63.06 66.9434V77.1568H62.5636H62.3242V77.3511H62.5636H63.2462V77.1568V66.5635L62.3242 67.2526Z" fill="url(#paint27_linear_662_631)"/>
<path d="M59.3989 78.1109C59.3989 77.9961 59.4344 77.9077 59.5142 77.8282C59.594 77.7487 59.6826 77.7134 59.7979 77.7134C59.9131 77.7134 60.0018 77.7487 60.0816 77.8282C60.1614 77.9077 60.1968 77.9961 60.1968 78.1109C60.1968 78.2258 60.1614 78.3142 60.0816 78.3937C60.0018 78.4732 59.9131 78.5085 59.7979 78.5085C59.6826 78.5085 59.594 78.4732 59.5142 78.3937C59.4344 78.3142 59.3989 78.2258 59.3989 78.1109Z" fill="url(#paint28_linear_662_631)"/>
<path d="M130.721 4.3557V13.5H148.488V78.5085H150.615V13.5V4.3557H148.488H130.721Z" fill="url(#paint29_linear_662_631)"/>
<path d="M130.642 2.17343H153.656V2.47382V3.07461V4.35569V13.5V72.1738V78.5085H162.566V13.5H178.453V4.35569H162.566H155.775V3.07461V2.17343H178.453V0H130.642V2.17343Z" fill="url(#paint30_linear_662_631)"/>
<path d="M207.886 76.3351V0L201.991 0.0176702L197.789 3.31315V76.3351V78.5085H206.14H216.167V76.3351H207.886Z" fill="url(#paint31_linear_662_631)"/>
<path d="M185.271 12.8197V15.5321L193.551 9.25033V76.3351H187.921H185.271V78.5085H187.921H195.67V76.3351V4.92998L185.271 12.8197Z" fill="url(#paint32_linear_662_631)"/>
<g opacity="0.3">
<path d="M36.9513 49.4411H25.5414C29.4422 51.2611 33.5824 53.4081 36.1002 54.9454L32.8909 58.6296C30.2933 56.8449 25.8251 54.2209 21.7647 52.3213L24.0343 49.4499H11.6492L15.2663 52.3655C11.7379 54.6715 6.70229 57.2248 2.7217 58.7975C2.07452 57.7814 0.851085 56.2088 0 55.1927C3.65257 53.8145 8.44879 51.429 11.1262 49.4499H0V45.0412H2.9256L2.35821 23.837C4.62777 23.1921 7.26968 22.176 9.09597 21.2837L11.1262 25.2065V22.9447H25.8606V45.0412H29.9653C30.0451 43.9103 30.0894 42.7353 30.1692 41.4807H26.756V37.6728H30.3288C30.3731 36.5419 30.4085 35.3668 30.4085 34.1918H27.0751V30.3485H30.5238C30.5238 29.0497 30.5681 27.8393 30.5681 26.5848H26.951V22.6973H34.7881C34.7083 29.7831 34.4246 38.7595 34.0611 45.0324H36.9424V49.4411H36.9513ZM6.98599 45.0236H11.1262V25.4009C9.58357 25.8426 8.04098 26.2932 6.49839 26.6554L6.6225 30.2955H10.151V34.1387H6.70229L6.78208 37.5756H10.1953V41.4189H6.9062L6.98599 45.0236ZM14.495 26.5317V45.0236H22.3764V26.5317H14.495ZM21.4012 31.5501H15.4348V28.5992H21.4456L21.4012 31.5501ZM15.5944 33.5291H21.4456V42.6293H15.5944V33.5291ZM17.5802 39.8815H19.4065V36.2768H17.5802V39.8815Z" fill="url(#paint33_linear_662_631)"/>
<path d="M80.7909 23.0949V31.8063H76.0213V27.0883H51.1094V31.8063H46.5791V23.0949H61.0209C60.7018 22.2997 60.3383 21.4516 60.0546 20.7801L65.232 19.7817C65.7551 20.8243 66.3934 22.0612 66.7924 23.1037H80.7909V23.0949ZM48.6625 42.8413H78.743V57.6312H74.0089V56.5887H53.1927V57.7107H48.6625V42.8413ZM51.5881 33.2464H75.4539V41.357H51.5881V33.2464ZM74.5319 28.6522V31.8505H52.5899V28.6522H74.5319ZM53.1927 46.2781V48.2395H61.1362V46.2781H53.1927ZM61.1362 53.1518V51.1904H53.1927V53.1518H61.1362ZM55.9588 38.3177H70.7996V36.3563H55.9588V38.3177ZM74.0089 46.2693H65.7817V48.2307H74.0089V46.2693ZM74.0089 53.143V51.1816H65.7817V53.143H74.0089Z" fill="url(#paint34_linear_662_631)"/>
<path d="M125.757 28.2192C124.232 29.5798 122.512 30.8609 121.023 31.8946C122.787 32.8135 124.711 33.5733 126.759 34.1299C125.757 35.0488 124.551 36.7274 123.913 37.8848C122.264 37.3636 120.783 36.7274 119.338 35.9676V39.4045C119.338 40.3675 119.418 40.6855 119.941 40.6855H121.909C122.468 40.6855 123.434 40.6414 123.957 40.4823C124.037 41.4454 124.117 42.7971 124.276 43.716C123.718 43.9192 122.796 43.9545 121.953 43.9545H119.462C116.093 43.9545 115.455 42.5939 115.455 39.3603V37.0455H111.767C111.643 39.8462 110.685 42.8413 107.352 44.9617C106.909 44.2814 105.747 43.124 104.95 42.3995V43.6011H97.0061C96.8465 44.52 96.7224 45.483 96.6071 46.3577H104.95C104.95 46.3577 104.905 47.4355 104.87 48.001C104.426 53.3992 103.948 55.9967 102.902 57.0393C102.059 57.9581 101.093 58.2762 99.6923 58.3557C98.6107 58.4794 96.5273 58.4794 94.3996 58.3999C94.3198 57.163 93.7613 55.5196 93.0343 54.4418C95.0379 54.6008 97.0061 54.645 97.8837 54.645C98.5221 54.645 98.9653 54.6008 99.3288 54.2474C99.8075 53.8056 100.171 52.5245 100.455 49.8122H92.0325C92.5911 47.2147 93.2382 43.2565 93.5928 40.1024H100.694V37.3017H94.8783V36.6656C93.6726 37.2664 92.4758 37.7876 91.2258 38.2206C90.6672 37.178 89.497 35.5789 88.6548 34.7395C91.0219 34.0592 93.3092 32.9814 95.3925 31.6649C94.311 30.8698 92.8659 29.9421 91.6602 29.2706L94.3907 26.7526C95.756 27.4329 97.4405 28.3959 98.6018 29.2706C99.4441 28.4755 100.251 27.6273 100.925 26.7084H93.0255V22.9889H103.496L104.293 22.7857L107.219 24.2258C105.614 28.1397 102.928 31.2585 99.6746 33.697H104.932V41.6486C107.423 40.0052 107.778 38.088 107.778 36.2945V33.4584H115.437C111.944 30.7019 109.258 27.1414 107.334 22.8652L111.146 21.7431C111.749 23.1037 112.512 24.3848 113.434 25.498C114.755 24.376 116.244 22.9359 117.202 21.8226L120.615 24.2611C118.966 25.6217 117.246 27.0619 115.721 28.1397C116.404 28.7759 117.122 29.3766 117.849 29.9421C119.374 28.7405 121.218 27.0619 122.299 25.7808L125.748 28.2192H125.757ZM122.831 45.8894C121.829 48.805 120.34 51.1286 118.416 53.0016C120.225 54 121.865 54.9984 123.071 55.8024L120.668 58.9565C119.303 57.9935 117.379 56.7565 115.216 55.4755C112.689 57.0304 109.604 58.1525 106.27 58.9123C105.872 57.8698 105.029 56.3501 104.267 55.4755C106.873 55.0337 109.32 54.2739 111.404 53.2402C109.435 52.1623 107.556 51.0844 105.827 50.1656L107.432 48.2484H106.466V45.0942H119.498L120.216 44.9706L122.822 45.8894H122.831ZM109.515 48.2484C111.2 49.1319 113.044 50.0507 114.852 51.0491C115.819 50.2098 116.661 49.2909 117.379 48.2484H109.515Z" fill="url(#paint35_linear_662_631)"/>
<path d="M3.43115 78.1109V70.4333H1.1084V69.7176H6.51633V70.4333H4.19358V78.1109H3.43115Z" fill="url(#paint36_linear_662_631)"/>
<path d="M5.67432 76.8564L8.82156 69.4349L11.8358 76.8564H11.1266L10.2134 74.4355H7.28783L6.33923 76.8564H5.68318H5.67432ZM7.5006 73.8789H9.9918L8.76836 70.7778L7.5006 73.8789Z" fill="url(#paint37_linear_662_631)"/>
<path d="M12.6333 76.8564V69.7176H13.2805V76.8564H12.6333Z" fill="url(#paint38_linear_662_631)"/>
<path d="M16.7738 77.1303L14.3003 69.7176H14.9829L16.7738 75.4162L18.6798 69.4349L20.6568 75.3721L22.3767 69.7176H23.0505L20.6568 77.1303L18.6798 71.0694L16.7738 77.1303Z" fill="url(#paint39_linear_662_631)"/>
<path d="M22.9087 76.8564L26.0559 69.4349L29.0702 76.8564H28.361L27.4478 74.4355H24.5222L23.5736 76.8564H22.9176H22.9087ZM24.735 73.8789H27.2262L26.0027 70.7778L24.735 73.8789Z" fill="url(#paint40_linear_662_631)"/>
<path d="M29.8678 76.8387V69.3996L34.9388 75.3721V69.6999H35.5417V77.0507L30.4706 71.0694V76.8387H29.8589H29.8678Z" fill="url(#paint41_linear_662_631)"/>
<path d="M42.6163 78.1109V69.3554L48.5827 76.3793V69.7088H49.292V78.3495L43.3255 71.3079V78.1021H42.6074L42.6163 78.1109Z" fill="url(#paint42_linear_662_631)"/>
<path d="M58.4411 73.4637C58.4411 73.9673 58.3436 74.4444 58.1485 74.9038C57.9535 75.3544 57.6787 75.7608 57.3152 76.1142C56.9428 76.4676 56.5261 76.7415 56.0651 76.927C55.6041 77.1126 55.1165 77.2098 54.5935 77.2098C54.0704 77.2098 53.5917 77.1126 53.1307 76.927C52.6697 76.7415 52.253 76.4676 51.8895 76.1142C51.526 75.752 51.2423 75.3456 51.0562 74.895C50.8611 74.4444 50.7725 73.9673 50.7725 73.4637C50.7725 72.9601 50.87 72.4742 51.0562 72.0147C51.2512 71.5642 51.526 71.1577 51.8895 70.7955C52.2441 70.4421 52.6608 70.177 53.1218 69.9915C53.5828 69.806 54.0704 69.7176 54.6023 69.7176C55.1343 69.7176 55.6219 69.806 56.0917 69.9915C56.5527 70.177 56.9606 70.4421 57.324 70.7955C57.6875 71.1577 57.9712 71.5642 58.1574 72.0147C58.3524 72.4653 58.4411 72.9513 58.4411 73.4637ZM54.6023 76.6267C55.0279 76.6267 55.4268 76.5471 55.808 76.3881C56.1893 76.2291 56.5261 76.0082 56.8276 75.7078C57.129 75.4074 57.3506 75.0628 57.5102 74.6741C57.6698 74.2854 57.7496 73.8878 57.7496 73.4549C57.7496 73.0219 57.6698 72.6244 57.5102 72.2356C57.3506 71.8557 57.129 71.5111 56.8276 71.2019C56.5261 70.9015 56.1893 70.6718 55.808 70.5216C55.4268 70.3626 55.0279 70.2831 54.5935 70.2831C54.1591 70.2831 53.769 70.3626 53.3966 70.5216C53.0243 70.6806 52.6785 70.9015 52.3771 71.2019C52.0757 71.5111 51.8452 71.8557 51.6945 72.2356C51.5349 72.6155 51.4551 73.0219 51.4551 73.4549C51.4551 73.8878 51.5349 74.2854 51.6945 74.6741C51.854 75.054 52.0757 75.3986 52.3771 75.7078C52.6785 76.0082 53.0154 76.2379 53.3878 76.3969C53.7601 76.5471 54.1591 76.6267 54.5935 76.6267H54.6023Z" fill="url(#paint43_linear_662_631)"/>
<path d="M73.1489 78.1109V70.4333H70.8262V69.7176H76.2341V70.4333H73.9114V78.1109H73.1489Z" fill="url(#paint44_linear_662_631)"/>
<path d="M77.3955 76.8387V69.6999H78.0427V72.5978H81.9435V69.6999H82.5907V76.8387H81.9435V73.1545H78.0427V76.8387H77.3955Z" fill="url(#paint45_linear_662_631)"/>
<path d="M84.3726 76.8387V69.6999H85.0197V76.8387H84.3726Z" fill="url(#paint46_linear_662_631)"/>
<path d="M86.8106 76.8387V69.3996L91.8817 75.3721V69.6999H92.4845V77.0507L87.4135 71.0694V76.8387H86.8018H86.8106Z" fill="url(#paint47_linear_662_631)"/>
<path d="M94.2754 76.8387V69.6999H94.9226V73.0484L98.1585 69.6999H99.0096L95.6141 73.1103L99.1691 76.8387H98.2294L94.9226 73.2163V76.8387H94.2754Z" fill="url(#paint48_linear_662_631)"/>
<path d="M105.907 78.1109V70.4333H103.584V69.7176H108.992V70.4333H106.669V78.1109H105.907Z" fill="url(#paint49_linear_662_631)"/>
<path d="M108.504 76.8564L111.652 69.435L114.666 76.8564H113.957L113.044 74.4356H110.118L109.169 76.8564H108.513H108.504ZM110.331 73.879H112.822L111.598 70.7779L110.331 73.879Z" fill="url(#paint50_linear_662_631)"/>
<path d="M115.464 76.8564V69.4172L120.535 75.3897V69.7176H121.138V77.0684L116.067 71.0871V76.8564H115.455H115.464Z" fill="url(#paint51_linear_662_631)"/>
<path d="M122.929 76.8564V69.7176H123.576V73.0661L126.812 69.7176H127.663L124.267 73.128L127.822 76.8564H126.883L123.576 73.234V76.8564H122.929Z" fill="url(#paint52_linear_662_631)"/>
<path d="M64.2304 77.1567V66.1394H63.8138L63.4414 66.431V77.1567V77.3511H63.9556H64.9751V77.1567H64.2304Z" fill="url(#paint53_linear_662_631)"/>
<path d="M62.3242 67.2526V67.4912L63.06 66.9434V77.1568H62.5636H62.3242V77.3511H62.5636H63.2462V77.1568V66.5635L62.3242 67.2526Z" fill="url(#paint54_linear_662_631)"/>
<path d="M59.3989 78.1109C59.3989 77.9961 59.4344 77.9077 59.5142 77.8282C59.594 77.7487 59.6826 77.7134 59.7979 77.7134C59.9131 77.7134 60.0018 77.7487 60.0816 77.8282C60.1614 77.9077 60.1968 77.9961 60.1968 78.1109C60.1968 78.2258 60.1614 78.3142 60.0816 78.3937C60.0018 78.4732 59.9131 78.5085 59.7979 78.5085C59.6826 78.5085 59.594 78.4732 59.5142 78.3937C59.4344 78.3142 59.3989 78.2258 59.3989 78.1109Z" fill="url(#paint55_linear_662_631)"/>
<path d="M130.721 4.3557V13.5H148.488V78.5085H150.615V13.5V4.3557H148.488H130.721Z" fill="url(#paint56_linear_662_631)"/>
<path d="M130.642 2.17343H153.656V2.47382V3.07461V4.35569V13.5V72.1738V78.5085H162.566V13.5H178.453V4.35569H162.566H155.775V3.07461V2.17343H178.453V0H130.642V2.17343Z" fill="url(#paint57_linear_662_631)"/>
<path d="M207.886 76.3351V0L201.991 0.0176702L197.789 3.31315V76.3351V78.5085H206.14H216.167V76.3351H207.886Z" fill="url(#paint58_linear_662_631)"/>
<path d="M185.271 12.8197V15.5321L193.551 9.25033V76.3351H187.921H185.271V78.5085H187.921H195.67V76.3351V4.92998L185.271 12.8197Z" fill="url(#paint59_linear_662_631)"/>
</g>
<defs>
<linearGradient id="paint0_linear_662_631" x1="57.7849" y1="108.451" x2="57.7849" y2="92.5474" gradientUnits="userSpaceOnUse">
<stop stop-color="#85754E"/>
<stop offset="0.38" stop-color="#FFFDE5"/>
<stop offset="1" stop-color="#FFFDE5"/>
</linearGradient>
<linearGradient id="paint1_linear_662_631" x1="76.7925" y1="108.451" x2="76.7925" y2="92.5475" gradientUnits="userSpaceOnUse">
<stop stop-color="#85754E"/>
<stop offset="0.38" stop-color="#FFFDE5"/>
<stop offset="1" stop-color="#FFFDE5"/>
</linearGradient>
<linearGradient id="paint2_linear_662_631" x1="97.1655" y1="108.451" x2="97.1655" y2="92.5474" gradientUnits="userSpaceOnUse">
<stop stop-color="#85754E"/>
<stop offset="0.38" stop-color="#FFFDE5"/>
<stop offset="1" stop-color="#FFFDE5"/>
</linearGradient>
<linearGradient id="paint3_linear_662_631" x1="117.955" y1="108.451" x2="117.955" y2="92.5475" gradientUnits="userSpaceOnUse">
<stop stop-color="#85754E"/>
<stop offset="0.38" stop-color="#FFFDE5"/>
<stop offset="1" stop-color="#FFFDE5"/>
</linearGradient>
<linearGradient id="paint4_linear_662_631" x1="138.354" y1="108.451" x2="138.354" y2="92.5474" gradientUnits="userSpaceOnUse">
<stop stop-color="#85754E"/>
<stop offset="0.38" stop-color="#FFFDE5"/>
<stop offset="1" stop-color="#FFFDE5"/>
</linearGradient>
<linearGradient id="paint5_linear_662_631" x1="157.761" y1="108.451" x2="157.761" y2="92.5475" gradientUnits="userSpaceOnUse">
<stop stop-color="#85754E"/>
<stop offset="0.38" stop-color="#FFFDE5"/>
<stop offset="1" stop-color="#FFFDE5"/>
</linearGradient>
<linearGradient id="paint6_linear_662_631" x1="18.6352" y1="59.3099" x2="17.7459" y2="8.39322" gradientUnits="userSpaceOnUse">
<stop stop-color="#B97A2C"/>
<stop offset="0.59" stop-color="#F6F4D8"/>
<stop offset="1" stop-color="#FFFDE5"/>
</linearGradient>
<linearGradient id="paint7_linear_662_631" x1="64.248" y1="59.3982" x2="63.3587" y2="8.61409" gradientUnits="userSpaceOnUse">
<stop stop-color="#B97A2C"/>
<stop offset="0.59" stop-color="#F6F4D8"/>
<stop offset="1" stop-color="#FFFDE5"/>
</linearGradient>
<linearGradient id="paint8_linear_662_631" x1="108.141" y1="59.4424" x2="107.261" y2="8.64061" gradientUnits="userSpaceOnUse">
<stop stop-color="#B97A2C"/>
<stop offset="0.59" stop-color="#F6F4D8"/>
<stop offset="1" stop-color="#FFFDE5"/>
</linearGradient>
<linearGradient id="paint9_linear_662_631" x1="3.81237" y1="78.8354" x2="3.81237" y2="65.1852" gradientUnits="userSpaceOnUse">
<stop stop-color="#B97A2C"/>
<stop offset="0.59" stop-color="#F6F4D8"/>
<stop offset="1" stop-color="#FFFDE5"/>
</linearGradient>
<linearGradient id="paint10_linear_662_631" x1="8.75063" y1="78.8354" x2="8.75063" y2="65.1852" gradientUnits="userSpaceOnUse">
<stop stop-color="#B97A2C"/>
<stop offset="0.59" stop-color="#F6F4D8"/>
<stop offset="1" stop-color="#FFFDE5"/>
</linearGradient>
<linearGradient id="paint11_linear_662_631" x1="12.9613" y1="78.8354" x2="12.9613" y2="65.1852" gradientUnits="userSpaceOnUse">
<stop stop-color="#B97A2C"/>
<stop offset="0.59" stop-color="#F6F4D8"/>
<stop offset="1" stop-color="#FFFDE5"/>
</linearGradient>
<linearGradient id="paint12_linear_662_631" x1="18.6798" y1="78.8354" x2="18.6798" y2="65.1852" gradientUnits="userSpaceOnUse">
<stop stop-color="#B97A2C"/>
<stop offset="0.59" stop-color="#F6F4D8"/>
<stop offset="1" stop-color="#FFFDE5"/>
</linearGradient>
<linearGradient id="paint13_linear_662_631" x1="25.9939" y1="78.8354" x2="25.9939" y2="65.1852" gradientUnits="userSpaceOnUse">
<stop stop-color="#B97A2C"/>
<stop offset="0.59" stop-color="#F6F4D8"/>
<stop offset="1" stop-color="#FFFDE5"/>
</linearGradient>
<linearGradient id="paint14_linear_662_631" x1="32.7136" y1="78.8354" x2="32.7136" y2="65.1852" gradientUnits="userSpaceOnUse">
<stop stop-color="#B97A2C"/>
<stop offset="0.59" stop-color="#F6F4D8"/>
<stop offset="1" stop-color="#FFFDE5"/>
</linearGradient>
<linearGradient id="paint15_linear_662_631" x1="45.9586" y1="78.8354" x2="45.9586" y2="65.1852" gradientUnits="userSpaceOnUse">
<stop stop-color="#B97A2C"/>
<stop offset="0.59" stop-color="#F6F4D8"/>
<stop offset="1" stop-color="#FFFDE5"/>
</linearGradient>
<linearGradient id="paint16_linear_662_631" x1="54.6023" y1="78.8354" x2="54.6023" y2="65.1852" gradientUnits="userSpaceOnUse">
<stop stop-color="#B97A2C"/>
<stop offset="0.59" stop-color="#F6F4D8"/>
<stop offset="1" stop-color="#FFFDE5"/>
</linearGradient>
<linearGradient id="paint17_linear_662_631" x1="73.5301" y1="78.8354" x2="73.5301" y2="65.1852" gradientUnits="userSpaceOnUse">
<stop stop-color="#B97A2C"/>
<stop offset="0.59" stop-color="#F6F4D8"/>
<stop offset="1" stop-color="#FFFDE5"/>
</linearGradient>
<linearGradient id="paint18_linear_662_631" x1="79.9931" y1="78.8354" x2="79.9931" y2="65.1852" gradientUnits="userSpaceOnUse">
<stop stop-color="#B97A2C"/>
<stop offset="0.59" stop-color="#F6F4D8"/>
<stop offset="1" stop-color="#FFFDE5"/>
</linearGradient>
<linearGradient id="paint19_linear_662_631" x1="84.7006" y1="78.8354" x2="84.7006" y2="65.1852" gradientUnits="userSpaceOnUse">
<stop stop-color="#B97A2C"/>
<stop offset="0.59" stop-color="#F6F4D8"/>
<stop offset="1" stop-color="#FFFDE5"/>
</linearGradient>
<linearGradient id="paint20_linear_662_631" x1="89.6476" y1="78.8354" x2="89.6476" y2="65.1852" gradientUnits="userSpaceOnUse">
<stop stop-color="#B97A2C"/>
<stop offset="0.59" stop-color="#F6F4D8"/>
<stop offset="1" stop-color="#FFFDE5"/>
</linearGradient>
<linearGradient id="paint21_linear_662_631" x1="96.7223" y1="78.8354" x2="96.7223" y2="65.1852" gradientUnits="userSpaceOnUse">
<stop stop-color="#B97A2C"/>
<stop offset="0.59" stop-color="#F6F4D8"/>
<stop offset="1" stop-color="#FFFDE5"/>
</linearGradient>
<linearGradient id="paint22_linear_662_631" x1="106.288" y1="78.8354" x2="106.288" y2="65.1852" gradientUnits="userSpaceOnUse">
<stop stop-color="#B97A2C"/>
<stop offset="0.59" stop-color="#F6F4D8"/>
<stop offset="1" stop-color="#FFFDE5"/>
</linearGradient>
<linearGradient id="paint23_linear_662_631" x1="111.581" y1="78.8355" x2="111.581" y2="65.1853" gradientUnits="userSpaceOnUse">
<stop stop-color="#B97A2C"/>
<stop offset="0.59" stop-color="#F6F4D8"/>
<stop offset="1" stop-color="#FFFDE5"/>
</linearGradient>
<linearGradient id="paint24_linear_662_631" x1="118.31" y1="78.8354" x2="118.31" y2="65.1852" gradientUnits="userSpaceOnUse">
<stop stop-color="#B97A2C"/>
<stop offset="0.59" stop-color="#F6F4D8"/>
<stop offset="1" stop-color="#FFFDE5"/>
</linearGradient>
<linearGradient id="paint25_linear_662_631" x1="125.384" y1="78.8354" x2="125.384" y2="65.1852" gradientUnits="userSpaceOnUse">
<stop stop-color="#B97A2C"/>
<stop offset="0.59" stop-color="#F6F4D8"/>
<stop offset="1" stop-color="#FFFDE5"/>
</linearGradient>
<linearGradient id="paint26_linear_662_631" x1="64.2038" y1="78.8354" x2="64.2038" y2="65.1852" gradientUnits="userSpaceOnUse">
<stop stop-color="#B97A2C"/>
<stop offset="0.59" stop-color="#F6F4D8"/>
<stop offset="1" stop-color="#FFFDE5"/>
</linearGradient>
<linearGradient id="paint27_linear_662_631" x1="62.7852" y1="78.8354" x2="62.7852" y2="65.1852" gradientUnits="userSpaceOnUse">
<stop stop-color="#B97A2C"/>
<stop offset="0.59" stop-color="#F6F4D8"/>
<stop offset="1" stop-color="#FFFDE5"/>
</linearGradient>
<linearGradient id="paint28_linear_662_631" x1="59.7979" y1="78.8354" x2="59.7979" y2="65.1852" gradientUnits="userSpaceOnUse">
<stop stop-color="#B97A2C"/>
<stop offset="0.59" stop-color="#F6F4D8"/>
<stop offset="1" stop-color="#FFFDE5"/>
</linearGradient>
<linearGradient id="paint29_linear_662_631" x1="140.668" y1="81.3004" x2="140.668" y2="-5.45124" gradientUnits="userSpaceOnUse">
<stop stop-color="#B97A2C"/>
<stop offset="0.59" stop-color="#F6F4D8"/>
<stop offset="1" stop-color="#FFFDE5"/>
</linearGradient>
<linearGradient id="paint30_linear_662_631" x1="154.543" y1="81.3004" x2="154.543" y2="-5.45124" gradientUnits="userSpaceOnUse">
<stop stop-color="#B97A2C"/>
<stop offset="0.59" stop-color="#F6F4D8"/>
<stop offset="1" stop-color="#FFFDE5"/>
</linearGradient>
<linearGradient id="paint31_linear_662_631" x1="206.982" y1="81.3004" x2="206.982" y2="-5.45124" gradientUnits="userSpaceOnUse">
<stop stop-color="#B97A2C"/>
<stop offset="0.59" stop-color="#F6F4D8"/>
<stop offset="1" stop-color="#FFFDE5"/>
</linearGradient>
<linearGradient id="paint32_linear_662_631" x1="190.475" y1="81.3004" x2="190.475" y2="-5.45124" gradientUnits="userSpaceOnUse">
<stop stop-color="#B97A2C"/>
<stop offset="0.59" stop-color="#F6F4D8"/>
<stop offset="1" stop-color="#FFFDE5"/>
</linearGradient>
<linearGradient id="paint33_linear_662_631" x1="18.6352" y1="59.3099" x2="17.7459" y2="8.39322" gradientUnits="userSpaceOnUse">
<stop stop-color="white"/>
<stop offset="0.59" stop-color="#F6F4D8"/>
<stop offset="1" stop-color="#FFFDE5"/>
</linearGradient>
<linearGradient id="paint34_linear_662_631" x1="64.248" y1="59.3982" x2="63.3587" y2="8.61409" gradientUnits="userSpaceOnUse">
<stop stop-color="white"/>
<stop offset="0.59" stop-color="#F6F4D8"/>
<stop offset="1" stop-color="#FFFDE5"/>
</linearGradient>
<linearGradient id="paint35_linear_662_631" x1="108.141" y1="59.4424" x2="107.261" y2="8.64061" gradientUnits="userSpaceOnUse">
<stop stop-color="white"/>
<stop offset="0.59" stop-color="#F6F4D8"/>
<stop offset="1" stop-color="#FFFDE5"/>
</linearGradient>
<linearGradient id="paint36_linear_662_631" x1="3.81237" y1="78.8354" x2="3.81237" y2="65.1852" gradientUnits="userSpaceOnUse">
<stop stop-color="white"/>
<stop offset="0.59" stop-color="#F6F4D8"/>
<stop offset="1" stop-color="#FFFDE5"/>
</linearGradient>
<linearGradient id="paint37_linear_662_631" x1="8.75063" y1="78.8354" x2="8.75063" y2="65.1852" gradientUnits="userSpaceOnUse">
<stop stop-color="white"/>
<stop offset="0.59" stop-color="#F6F4D8"/>
<stop offset="1" stop-color="#FFFDE5"/>
</linearGradient>
<linearGradient id="paint38_linear_662_631" x1="12.9613" y1="78.8354" x2="12.9613" y2="65.1852" gradientUnits="userSpaceOnUse">
<stop stop-color="white"/>
<stop offset="0.59" stop-color="#F6F4D8"/>
<stop offset="1" stop-color="#FFFDE5"/>
</linearGradient>
<linearGradient id="paint39_linear_662_631" x1="18.6798" y1="78.8354" x2="18.6798" y2="65.1852" gradientUnits="userSpaceOnUse">
<stop stop-color="white"/>
<stop offset="0.59" stop-color="#F6F4D8"/>
<stop offset="1" stop-color="#FFFDE5"/>
</linearGradient>
<linearGradient id="paint40_linear_662_631" x1="25.9939" y1="78.8354" x2="25.9939" y2="65.1852" gradientUnits="userSpaceOnUse">
<stop stop-color="white"/>
<stop offset="0.59" stop-color="#F6F4D8"/>
<stop offset="1" stop-color="#FFFDE5"/>
</linearGradient>
<linearGradient id="paint41_linear_662_631" x1="32.7136" y1="78.8354" x2="32.7136" y2="65.1852" gradientUnits="userSpaceOnUse">
<stop stop-color="white"/>
<stop offset="0.59" stop-color="#F6F4D8"/>
<stop offset="1" stop-color="#FFFDE5"/>
</linearGradient>
<linearGradient id="paint42_linear_662_631" x1="45.9586" y1="78.8354" x2="45.9586" y2="65.1852" gradientUnits="userSpaceOnUse">
<stop stop-color="white"/>
<stop offset="0.59" stop-color="#F6F4D8"/>
<stop offset="1" stop-color="#FFFDE5"/>
</linearGradient>
<linearGradient id="paint43_linear_662_631" x1="54.6023" y1="78.8354" x2="54.6023" y2="65.1852" gradientUnits="userSpaceOnUse">
<stop stop-color="white"/>
<stop offset="0.59" stop-color="#F6F4D8"/>
<stop offset="1" stop-color="#FFFDE5"/>
</linearGradient>
<linearGradient id="paint44_linear_662_631" x1="73.5301" y1="78.8354" x2="73.5301" y2="65.1852" gradientUnits="userSpaceOnUse">
<stop stop-color="white"/>
<stop offset="0.59" stop-color="#F6F4D8"/>
<stop offset="1" stop-color="#FFFDE5"/>
</linearGradient>
<linearGradient id="paint45_linear_662_631" x1="79.9931" y1="78.8354" x2="79.9931" y2="65.1852" gradientUnits="userSpaceOnUse">
<stop stop-color="white"/>
<stop offset="0.59" stop-color="#F6F4D8"/>
<stop offset="1" stop-color="#FFFDE5"/>
</linearGradient>
<linearGradient id="paint46_linear_662_631" x1="84.7006" y1="78.8354" x2="84.7006" y2="65.1852" gradientUnits="userSpaceOnUse">
<stop stop-color="white"/>
<stop offset="0.59" stop-color="#F6F4D8"/>
<stop offset="1" stop-color="#FFFDE5"/>
</linearGradient>
<linearGradient id="paint47_linear_662_631" x1="89.6476" y1="78.8354" x2="89.6476" y2="65.1852" gradientUnits="userSpaceOnUse">
<stop stop-color="white"/>
<stop offset="0.59" stop-color="#F6F4D8"/>
<stop offset="1" stop-color="#FFFDE5"/>
</linearGradient>
<linearGradient id="paint48_linear_662_631" x1="96.7223" y1="78.8354" x2="96.7223" y2="65.1852" gradientUnits="userSpaceOnUse">
<stop stop-color="white"/>
<stop offset="0.59" stop-color="#F6F4D8"/>
<stop offset="1" stop-color="#FFFDE5"/>
</linearGradient>
<linearGradient id="paint49_linear_662_631" x1="106.288" y1="78.8354" x2="106.288" y2="65.1852" gradientUnits="userSpaceOnUse">
<stop stop-color="white"/>
<stop offset="0.59" stop-color="#F6F4D8"/>
<stop offset="1" stop-color="#FFFDE5"/>
</linearGradient>
<linearGradient id="paint50_linear_662_631" x1="111.581" y1="78.8355" x2="111.581" y2="65.1853" gradientUnits="userSpaceOnUse">
<stop stop-color="white"/>
<stop offset="0.59" stop-color="#F6F4D8"/>
<stop offset="1" stop-color="#FFFDE5"/>
</linearGradient>
<linearGradient id="paint51_linear_662_631" x1="118.31" y1="78.8354" x2="118.31" y2="65.1852" gradientUnits="userSpaceOnUse">
<stop stop-color="white"/>
<stop offset="0.59" stop-color="#F6F4D8"/>
<stop offset="1" stop-color="#FFFDE5"/>
</linearGradient>
<linearGradient id="paint52_linear_662_631" x1="125.384" y1="78.8354" x2="125.384" y2="65.1852" gradientUnits="userSpaceOnUse">
<stop stop-color="white"/>
<stop offset="0.59" stop-color="#F6F4D8"/>
<stop offset="1" stop-color="#FFFDE5"/>
</linearGradient>
<linearGradient id="paint53_linear_662_631" x1="64.2038" y1="78.8354" x2="64.2038" y2="65.1852" gradientUnits="userSpaceOnUse">
<stop stop-color="white"/>
<stop offset="0.59" stop-color="#F6F4D8"/>
<stop offset="1" stop-color="#FFFDE5"/>
</linearGradient>
<linearGradient id="paint54_linear_662_631" x1="62.7852" y1="78.8354" x2="62.7852" y2="65.1852" gradientUnits="userSpaceOnUse">
<stop stop-color="white"/>
<stop offset="0.59" stop-color="#F6F4D8"/>
<stop offset="1" stop-color="#FFFDE5"/>
</linearGradient>
<linearGradient id="paint55_linear_662_631" x1="59.7979" y1="78.8354" x2="59.7979" y2="65.1852" gradientUnits="userSpaceOnUse">
<stop stop-color="white"/>
<stop offset="0.59" stop-color="#F6F4D8"/>
<stop offset="1" stop-color="#FFFDE5"/>
</linearGradient>
<linearGradient id="paint56_linear_662_631" x1="140.668" y1="81.3004" x2="140.668" y2="-5.45124" gradientUnits="userSpaceOnUse">
<stop stop-color="white"/>
<stop offset="0.59" stop-color="#F6F4D8"/>
<stop offset="1" stop-color="#FFFDE5"/>
</linearGradient>
<linearGradient id="paint57_linear_662_631" x1="154.543" y1="81.3004" x2="154.543" y2="-5.45124" gradientUnits="userSpaceOnUse">
<stop stop-color="white"/>
<stop offset="0.59" stop-color="#F6F4D8"/>
<stop offset="1" stop-color="#FFFDE5"/>
</linearGradient>
<linearGradient id="paint58_linear_662_631" x1="206.982" y1="81.3004" x2="206.982" y2="-5.45124" gradientUnits="userSpaceOnUse">
<stop stop-color="white"/>
<stop offset="0.59" stop-color="#F6F4D8"/>
<stop offset="1" stop-color="#FFFDE5"/>
</linearGradient>
<linearGradient id="paint59_linear_662_631" x1="190.475" y1="81.3004" x2="190.475" y2="-5.45124" gradientUnits="userSpaceOnUse">
<stop stop-color="white"/>
<stop offset="0.59" stop-color="#F6F4D8"/>
<stop offset="1" stop-color="#FFFDE5"/>
</linearGradient>
</defs>
</svg>
