<svg width="200" height="206" viewBox="0 0 200 206" fill="none" xmlns="http://www.w3.org/2000/svg">
<g clip-path="url(#clip0_3_481)">
<g style="mix-blend-mode:multiply" opacity="0.7">
<path d="M17.141 123.345C19.7021 125.7 23.0188 129.07 24.466 131.372L21.6531 133.373C21.2913 132.77 20.7911 132.057 20.2058 131.291C5.41741 132.004 3.43805 132.057 1.96241 132.55C1.79569 131.894 1.26715 130.276 0.876953 129.428C1.60059 129.237 2.27101 128.715 3.18975 127.839C4.16524 126.992 7.20167 123.675 9.09589 120.387L12.4374 121.784C10.6815 124.331 8.48222 126.772 6.36452 128.769L17.7831 128.414C16.6976 127.208 15.5838 126.059 14.5515 125.044L17.141 123.345ZM2.88114 134.359H21.6531V146.359H18.0881V144.99H6.27939V146.388H2.88114V134.359ZM6.27939 137.481V141.865H18.0881V137.481H6.27939Z" fill="#231815"/>
<path d="M36.7746 133.401C35.9658 132.578 34.1568 131.348 32.7627 130.606L34.5718 128.332C35.9907 128.989 37.8033 130.06 38.722 130.908L36.7711 133.401H36.7746ZM37.2464 126.36C36.4944 125.456 34.7385 124.196 33.348 123.345L35.2422 121.153C36.6079 121.894 38.417 123.043 39.2825 123.92L37.2499 126.357L37.2464 126.36ZM33.4012 144.469C34.4051 142.333 35.824 138.878 36.8562 135.7L39.4741 137.342C38.5837 140.272 37.4415 143.426 36.356 146.083L33.4047 144.465L33.4012 144.469ZM40.8114 131.401C40.5879 132.742 40.1693 134.168 39.6692 135.072C39.3357 134.799 38.6937 134.306 38.3035 134.114C38.8036 133.238 39.0555 132.114 39.2222 131.018L40.8114 131.401ZM44.2664 130.276C44.2096 130.028 44.128 129.755 44.0145 129.428C40.5063 129.922 39.7791 130.085 39.3357 130.276C39.2506 130.003 38.9171 129.318 38.6937 128.935C39.1406 128.882 39.5024 128.524 40.0026 128.002C40.2544 127.754 40.8114 127.098 41.3967 126.25C39.9778 126.388 39.5024 126.47 39.2258 126.605C39.1158 126.332 38.8072 125.647 38.5589 125.317C38.9207 125.264 39.2009 124.987 39.4776 124.576C39.7827 124.164 40.7298 122.547 41.1483 121.068L42.9326 121.699C42.514 122.714 41.9004 123.753 41.2051 124.686L42.4573 124.633C42.7091 124.221 42.9291 123.81 43.1242 123.398L44.8233 124.193C44.0429 125.534 42.9858 126.96 41.8436 128.194L43.4328 128.031C43.3228 127.783 43.1809 127.538 43.0709 127.318L44.465 126.825C44.9368 127.729 45.4689 128.935 45.6888 129.702L44.2699 130.276H44.2664ZM57.8877 140.524C57.8877 140.524 57.831 141.319 57.721 141.673C57.2741 143.866 56.7739 145.072 56.0219 145.675C55.2983 146.196 54.5462 146.331 53.4324 146.388C52.5137 146.416 50.8429 146.388 49.1154 146.335C49.0587 145.622 48.6969 144.635 48.2251 143.951C49.8674 144.114 51.7333 144.142 52.4037 144.142C52.989 144.142 53.3224 144.114 53.6027 143.922C53.9077 143.703 54.1596 143.266 54.4114 142.496H40.3183C40.7653 141.209 41.237 139.347 41.5705 137.811H53.4643V136.934H40.7369V135.125H56.5291V139.644H44.1919L43.9684 140.521H57.8948L57.8877 140.524ZM41.6485 134.551C41.6201 133.728 41.425 132.415 41.12 131.372L42.5389 131.018C42.8723 132.004 43.0958 133.263 43.1242 134.086L41.6485 134.551ZM44.0429 133.919C43.9861 133.125 43.6527 131.919 43.2909 130.989L44.5714 130.496C44.9616 131.401 45.3234 132.607 45.4086 133.32L44.0429 133.923V133.919ZM51.8681 125.236H45.2099V123.537H47.8278C47.6327 122.933 47.2992 122.167 46.9906 121.593L49.1615 121.153C49.5234 121.809 49.9703 122.714 50.1654 123.263L49.0516 123.537H51.8645V125.236H51.8681ZM45.9903 130.276H51.3112V134.359H45.9903V130.276ZM51.3112 127.428H46.0187V125.949H51.3112V127.428ZM51.3112 129.538H46.0187V128.059H51.3112V129.538ZM47.9129 132.937H49.307V131.731H47.9129V132.937ZM53.929 131.294C53.7055 132.635 53.3154 134.033 52.7868 134.937C52.5066 134.664 51.8397 134.196 51.4495 133.98C51.9497 133.132 52.2015 132.007 52.3682 130.883L53.929 131.294ZM57.4372 130.337C57.3805 130.092 57.2705 129.79 57.157 129.46C53.6204 129.925 52.8968 130.092 52.4498 130.308C52.3647 130.007 52.0596 129.322 51.8078 128.967C52.2547 128.886 52.6449 128.584 53.1167 128.01C53.3686 127.761 53.9255 127.105 54.5108 126.31C53.1167 126.449 52.6165 126.53 52.3115 126.64C52.2264 126.367 51.9213 125.707 51.6978 125.324C52.0313 125.271 52.2831 124.994 52.5882 124.583C52.8932 124.228 53.8687 122.582 54.2873 121.075L56.0716 121.731C55.6246 122.717 54.9861 123.785 54.3157 124.718L55.5962 124.665C55.8197 124.253 56.0432 123.842 56.2383 123.43L57.9374 124.171C57.157 125.512 56.0999 126.967 54.9861 128.198L56.5469 128.034C56.4369 127.786 56.3234 127.541 56.2134 127.321L57.5791 126.828C58.0509 127.761 58.6362 128.964 58.8313 129.758L57.4372 130.333V130.337ZM54.7342 134.831C54.7059 133.955 54.4824 132.504 54.1773 131.408L55.5962 131.025C55.9297 132.092 56.1815 133.518 56.2099 134.341L54.7342 134.834V134.831ZM57.7139 130.503C58.1609 131.571 58.6043 132.969 58.7178 133.82L57.3237 134.451C57.2138 133.518 56.8236 132.068 56.3766 131L57.7139 130.507V130.503Z" fill="#231815"/>
<path d="M92.8492 131.766V134.955H69.7744V131.766H92.8492Z" fill="#231815"/>
<path d="M113.792 135.813C113.792 135.813 113.764 136.555 113.736 136.938C113.402 142.089 113.04 144.252 112.317 145.047C111.816 145.678 111.26 145.895 110.451 146.005C109.784 146.086 108.695 146.086 107.499 146.033C107.443 145.21 107.138 144.114 106.719 143.376C107.723 143.486 108.642 143.486 109.113 143.486C109.475 143.515 109.727 143.458 109.975 143.213C110.337 142.802 110.618 141.485 110.837 138.336H108.276V138.364H105.435C105.797 137.129 106.159 135.516 106.467 133.98H104.378V131.156H114.739V133.98H109.252C109.113 134.611 109 135.214 108.862 135.813H113.792ZM114.154 129.648H105.658V121.841H114.154V129.648ZM111.675 124.115H108V127.346H111.675V124.115ZM118.499 133.157C118.499 137.073 118.081 142.745 115.796 146.416C115.268 145.895 113.987 144.99 113.317 144.717C115.406 141.376 115.601 136.608 115.601 133.128V126.087H121.004V120.826H124.15V122.306H129.471V124.881H124.15V126.087H128.19L128.637 126.005L130.67 126.445C130.365 128.254 129.975 130.361 129.585 131.706L127.19 131.103C127.3 130.471 127.442 129.567 127.552 128.666H123.902V130.035L126.52 129.787L126.772 131.922L123.902 132.17V132.582C123.902 133.267 124.012 133.323 124.711 133.323H126.662C127.19 133.323 127.329 133.132 127.414 131.982C127.942 132.337 129.028 132.695 129.78 132.83C129.499 134.941 128.776 135.544 126.995 135.544H124.239C121.678 135.544 121.092 134.859 121.092 132.614V132.451L119.198 132.614L118.918 130.478L121.089 130.287V128.669H118.499V133.164V133.157ZM127.719 143.103C127.914 143.103 128.081 143.075 128.166 142.993C128.276 142.883 128.361 142.692 128.418 142.447C128.446 142.064 128.503 141.078 128.503 139.953C129.003 140.393 130.007 140.939 130.73 141.159C130.674 142.447 130.535 143.788 130.397 144.337C130.173 144.912 129.897 145.27 129.478 145.572C129.088 145.82 128.474 145.955 127.946 145.955H126.47C125.746 145.955 125.051 145.763 124.604 145.324C124.157 144.831 124.047 144.391 124.047 142.83V139.13H122.458C122.096 142.337 121.206 144.827 118.726 146.501C118.393 145.817 117.584 144.802 116.971 144.366C119.422 142.748 119.784 140.148 119.894 136.558H126.747V142.557C126.747 142.72 126.804 142.887 126.857 142.94C126.942 143.05 127.109 143.103 127.275 143.103H127.722H127.719Z" fill="#231815"/>
<path d="M151.624 134.441C150.843 133.756 149.283 132.632 148.03 131.784C147.027 133.182 145.413 134.579 142.905 135.728C142.458 135.072 141.539 134.058 140.815 133.536C143.657 132.44 145.076 131.099 145.774 129.727H141.152V127.18H143.018C142.351 126.768 141.457 126.275 140.901 126.002C142.319 124.686 143.408 122.685 143.965 120.66L146.888 121.263C146.722 121.784 146.555 122.331 146.331 122.88H153.238V125.402H149.616V126.637C149.616 126.828 149.616 126.992 149.588 127.183H153.876V129.73H149.279C150.45 130.333 153.234 131.894 153.958 132.359L151.617 134.441H151.624ZM146.445 127.18C146.473 126.96 146.473 126.768 146.473 126.577V125.399H145.079C144.689 126.055 144.242 126.658 143.799 127.18H146.445ZM144.856 134.852H163.018V146.388H159.619V145.512H148.116V146.416H144.856V134.852ZM148.116 137.399V138.935H159.619V137.399H148.116ZM159.619 142.904V141.287H148.116V142.904H159.619ZM165.412 122.824V133.206H154.827V122.827H165.412V122.824ZM162.124 125.7H157.888V130.33H162.124V125.7Z" fill="#231815"/>
<path d="M179.498 131.841C179.498 136.168 179.079 142.443 176.518 146.388C175.961 145.813 174.624 144.855 173.872 144.554C176.156 140.936 176.323 135.679 176.323 131.841V122.962H186.88C186.656 122.469 186.408 121.976 186.185 121.593L189.359 120.77C189.749 121.454 190.168 122.22 190.501 122.962H199.778V125.7H179.502V131.837L179.498 131.841ZM199.997 143.483H190.973V146.249H187.798V143.483H179.388V140.854H187.798V139.566H181.335V130.989H187.798V129.84H180.53V127.403H187.798V126.144H190.973V127.403H199.05V129.84H190.973V130.989H197.798V139.563H190.973V140.851H199.997V143.479V143.483ZM184.234 134.331H187.798V132.99H184.234V134.331ZM187.798 137.562V136.193H184.234V137.562H187.798ZM190.973 132.986V134.327H194.733V132.986H190.973ZM194.733 136.193H190.973V137.562H194.733V136.193Z" fill="#231815"/>
</g>
<path d="M16.268 122.958C18.8291 125.314 22.1457 128.684 23.593 130.986L20.78 132.986C20.4182 132.383 19.9181 131.67 19.3328 130.904C4.54436 131.617 2.56501 131.67 1.08936 132.163C0.922639 131.507 0.394102 129.89 0.00390625 129.042C0.727541 128.85 1.39797 128.329 2.3167 127.453C3.29219 126.605 6.32862 123.288 8.22284 120L11.5643 121.398C9.80845 123.945 7.60917 126.385 5.49147 128.382L16.91 128.027C15.8246 126.821 14.7107 125.672 13.6785 124.658L16.268 122.958ZM2.00454 133.973H20.78V145.973H17.2151V144.604H5.40279V146.001H2.00454V133.973ZM5.40279 137.094V141.478H17.2151V137.094H5.40279Z" fill="url(#paint0_linear_3_481)"/>
<path d="M35.9016 133.015C35.0928 132.192 33.2837 130.961 31.8896 130.22L33.6987 127.946C35.1176 128.602 36.9303 129.673 37.849 130.521L35.898 133.015H35.9016ZM36.3733 125.973C35.6213 125.069 33.8655 123.81 32.4749 122.958L34.3692 120.766C35.7348 121.508 37.5439 122.657 38.4095 123.533L36.3769 125.97L36.3733 125.973ZM32.5281 144.082C33.532 141.947 34.9509 138.492 35.9832 135.313L38.601 136.956C37.7107 139.886 36.5684 143.039 35.483 145.696L32.5317 144.079L32.5281 144.082ZM39.9383 131.014C39.7148 132.355 39.2963 133.781 38.7961 134.686C38.4627 134.412 37.8206 133.919 37.4304 133.728C37.9306 132.852 38.1824 131.727 38.3492 130.631L39.9383 131.014ZM43.3933 129.89C43.3366 129.641 43.255 129.368 43.1415 129.042C39.6333 129.535 38.9061 129.698 38.4627 129.89C38.3775 129.617 38.0441 128.932 37.8206 128.549C38.2676 128.496 38.6294 128.137 39.1295 127.616C39.3814 127.368 39.9383 126.711 40.5236 125.864C39.1047 126.002 38.6294 126.083 38.3527 126.218C38.2427 125.945 37.9341 125.261 37.6858 124.931C38.0476 124.877 38.3279 124.601 38.6046 124.189C38.9096 123.778 39.8567 122.16 40.2753 120.681L42.0596 121.312C41.641 122.327 41.0273 123.366 40.3321 124.299L41.5842 124.246C41.8361 123.835 42.056 123.423 42.2511 123.012L43.9502 123.806C43.1698 125.147 42.1128 126.573 40.9706 127.807L42.5597 127.644C42.4498 127.396 42.3079 127.151 42.1979 126.931L43.592 126.438C44.0637 127.343 44.5958 128.549 44.8158 129.315L43.3969 129.89H43.3933ZM57.0147 140.138C57.0147 140.138 56.9579 140.932 56.848 141.287C56.401 143.479 55.9009 144.685 55.1488 145.288C54.4252 145.81 53.6732 145.944 52.5594 146.001C51.6406 146.03 49.9699 146.001 48.2424 145.948C48.1856 145.235 47.8238 144.249 47.352 143.564C48.9944 143.727 50.8602 143.756 51.5307 143.756C52.116 143.756 52.4494 143.727 52.7296 143.536C53.0347 143.316 53.2865 142.88 53.5384 142.11H39.4453C39.8922 140.822 40.364 138.96 40.6974 137.424H52.5913V136.548H39.8638V134.739H55.6561V139.258H43.3188L43.0954 140.134H57.0218L57.0147 140.138ZM40.7755 134.164C40.7471 133.341 40.552 132.029 40.2469 130.986L41.6658 130.631C41.9993 131.617 42.2227 132.876 42.2511 133.699L40.7755 134.164ZM43.1698 133.533C43.1131 132.738 42.7796 131.532 42.4178 130.603L43.6984 130.11C44.0886 131.014 44.4504 132.22 44.5355 132.933L43.1698 133.536V133.533ZM50.995 124.849H44.3369V123.15H46.9547C46.7596 122.547 46.4262 121.781 46.1176 121.206L48.2885 120.766C48.6503 121.422 49.0973 122.327 49.2924 122.877L48.1785 123.15H50.9915V124.849H50.995ZM45.1173 129.89H50.4381V133.973H45.1173V129.89ZM50.4381 127.041H45.1457V125.562H50.4381V127.041ZM50.4381 129.152H45.1457V127.673H50.4381V129.152ZM47.0399 132.55H48.4339V131.344H47.0399V132.55ZM53.056 130.908C52.8325 132.249 52.4423 133.646 51.9138 134.551C51.6335 134.278 50.9667 133.809 50.5765 133.593C51.0766 132.745 51.3285 131.621 51.4952 130.496L53.056 130.908ZM56.5642 129.95C56.5074 129.705 56.3975 129.404 56.284 129.074C52.7474 129.538 52.0237 129.705 51.5768 129.922C51.4916 129.62 51.1866 128.935 50.9347 128.581C51.3817 128.499 51.7719 128.198 52.2437 127.623C52.4955 127.375 53.0524 126.718 53.6377 125.924C52.2437 126.062 51.7435 126.144 51.4384 126.254C51.3533 125.981 51.0482 125.321 50.8248 124.938C51.1582 124.884 51.4101 124.608 51.7151 124.196C52.0202 123.842 52.9957 122.196 53.4142 120.688L55.1985 121.344C54.7516 122.33 54.1131 123.398 53.4426 124.331L54.7232 124.278C54.9467 123.866 55.1701 123.455 55.3652 123.043L57.0643 123.785C56.284 125.126 55.2269 126.58 54.1131 127.811L55.6738 127.648C55.5639 127.399 55.4504 127.155 55.3404 126.935L56.7061 126.442C57.1779 127.375 57.7632 128.577 57.9583 129.372L56.5642 129.946V129.95ZM53.8612 134.444C53.8328 133.568 53.6093 132.117 53.3043 131.021L54.7232 130.638C55.0566 131.706 55.3085 133.132 55.3368 133.955L53.8612 134.448V134.444ZM56.8409 130.117C57.2878 131.184 57.7312 132.582 57.8447 133.433L56.4507 134.065C56.3407 133.132 55.9505 131.681 55.5036 130.613L56.8409 130.12V130.117Z" fill="url(#paint1_linear_3_481)"/>
<path d="M91.9732 131.376V134.565H68.8984V131.376H91.9732Z" fill="url(#paint2_linear_3_481)"/>
<path d="M112.919 135.423C112.919 135.423 112.891 136.165 112.862 136.548C112.529 141.698 112.167 143.862 111.444 144.657C110.943 145.288 110.387 145.505 109.578 145.615C108.911 145.696 107.822 145.696 106.626 145.643C106.57 144.82 106.265 143.724 105.846 142.986C106.85 143.096 107.769 143.096 108.24 143.096C108.602 143.124 108.854 143.068 109.102 142.823C109.464 142.411 109.744 141.095 109.964 137.945H107.403V137.974H104.562C104.924 136.739 105.286 135.125 105.594 133.589H103.505V130.766H113.866V133.589H108.379C108.24 134.221 108.127 134.824 107.989 135.423H112.919ZM113.281 129.258H104.785V121.451H113.281V129.262V129.258ZM110.802 123.725H107.127V126.956H110.802V123.725ZM117.626 132.766C117.626 136.683 117.208 142.355 114.923 146.026C114.395 145.505 113.114 144.6 112.444 144.327C114.533 140.985 114.728 136.218 114.728 132.738V125.697H120.131V120.44H123.277V121.919H128.598V124.494H123.277V125.7H127.317L127.764 125.619L129.797 126.059C129.492 127.868 129.102 129.975 128.712 131.319L126.317 130.716C126.427 130.085 126.569 129.18 126.679 128.279H123.029V129.648L125.647 129.4L125.899 131.536L123.029 131.784V132.195C123.029 132.88 123.139 132.937 123.838 132.937H125.789C126.317 132.937 126.455 132.745 126.541 131.596C127.069 131.951 128.155 132.309 128.907 132.444C128.626 134.554 127.903 135.157 126.122 135.157H123.366C120.805 135.157 120.219 134.473 120.219 132.227V132.064L118.325 132.227L118.045 130.092L120.216 129.9V128.283H117.626V132.777V132.766ZM126.846 142.713C127.041 142.713 127.207 142.685 127.293 142.603C127.403 142.493 127.488 142.301 127.544 142.057C127.573 141.674 127.63 140.687 127.63 139.563C128.13 140.003 129.134 140.549 129.857 140.769C129.801 142.057 129.662 143.398 129.524 143.947C129.3 144.522 129.024 144.88 128.605 145.182C128.215 145.43 127.601 145.565 127.073 145.565H125.597C124.873 145.565 124.178 145.373 123.731 144.933C123.284 144.44 123.174 144.001 123.174 142.44V138.74H121.585C121.223 141.947 120.333 144.437 117.853 146.111C117.52 145.427 116.711 144.412 116.098 143.976C118.549 142.358 118.911 139.758 119.02 136.168H125.874V142.167C125.874 142.33 125.93 142.497 125.984 142.55C126.069 142.66 126.236 142.713 126.402 142.713H126.849H126.846Z" fill="url(#paint3_linear_3_481)"/>
<path d="M150.751 134.054C149.97 133.37 148.41 132.245 147.157 131.397C146.154 132.795 144.54 134.193 142.032 135.342C141.585 134.686 140.666 133.671 139.942 133.15C142.784 132.054 144.203 130.713 144.901 129.34H140.279V126.793H142.145C141.478 126.382 140.584 125.888 140.028 125.615C141.446 124.299 142.535 122.299 143.092 120.273L146.015 120.876C145.849 121.398 145.682 121.944 145.458 122.494H152.365V125.016H148.743V126.25C148.743 126.442 148.743 126.605 148.715 126.797H153.003V129.343H148.406C149.577 129.946 152.361 131.507 153.085 131.972L150.744 134.054H150.751ZM145.572 126.793C145.6 126.573 145.6 126.382 145.6 126.19V125.012H144.206C143.816 125.669 143.369 126.272 142.926 126.793H145.572ZM143.983 134.466H162.145V146.001H158.746V145.125H147.243V146.03H143.983V134.466ZM147.243 137.013V138.549H158.746V137.013H147.243ZM158.746 142.518V140.9H147.243V142.518H158.746ZM164.539 122.437V132.82H153.954V122.437H164.539ZM161.251 125.314H157.015V129.943H161.251V125.314Z" fill="url(#paint4_linear_3_481)"/>
<path d="M178.625 131.45C178.625 135.778 178.206 142.053 175.645 145.998C175.088 145.423 173.751 144.465 172.999 144.164C175.283 140.546 175.45 135.289 175.45 131.45V122.575H186.007C185.783 122.082 185.535 121.589 185.311 121.206L188.486 120.383C188.876 121.068 189.295 121.834 189.628 122.575H198.904V125.314H178.628V131.45H178.625ZM199.124 143.092H190.1V145.859H186.925V143.092H178.515V140.464H186.925V139.176H180.462V130.603H186.925V129.453H179.657V127.016H186.925V125.757H190.1V127.016H198.177V129.453H190.1V130.603H196.925V139.176H190.1V140.464H199.124V143.092ZM183.36 133.941H186.925V132.6H183.36V133.941ZM186.925 137.172V135.803H183.36V137.172H186.925ZM190.1 132.596V133.937H193.86V132.596H190.1ZM193.86 135.803H190.1V137.172H193.86V135.803Z" fill="url(#paint5_linear_3_481)"/>
<path d="M32.9253 173.595C34.2448 173.528 34.3371 173.304 34.3371 172.3V165.834H33.5177C31.7902 165.834 31.6163 166.125 31.2226 167.508H31.0098C31.0878 166.728 31.1268 165.937 31.1552 165.199H31.368C31.4603 165.358 31.5525 165.437 31.6589 165.476C31.7653 165.515 31.8966 165.515 32.081 165.515H37.3983C37.7424 165.515 37.8346 165.447 38.0191 165.199L38.2426 165.213C38.2177 165.834 38.2958 166.664 38.3596 167.455L38.1362 167.508C37.8205 166.018 37.3167 165.834 36.1958 165.834H35.0217V172.3C35.0217 173.304 35.1139 173.528 36.4867 173.595V173.78H32.9253V173.595Z" fill="#7F9097"/>
<path d="M41.1339 169.214H46.703V167.022C46.703 165.993 46.5966 165.795 45.4615 165.703V165.518H48.654V165.703C47.494 165.795 47.3876 165.993 47.3876 167.022V172.276C47.3876 173.318 47.494 173.517 48.615 173.595V173.78H45.3551V173.595C46.5966 173.517 46.6995 173.318 46.6995 172.276V169.622H41.1303V172.276C41.1303 173.318 41.2474 173.517 42.4109 173.595V173.78H39.229V173.595C40.3393 173.517 40.4421 173.318 40.4421 172.276V167.022C40.4421 165.993 40.3357 165.795 39.1758 165.703V165.518H42.3435V165.703C41.2474 165.795 41.1303 165.993 41.1303 167.022V169.214H41.1339Z" fill="#7F9097"/>
<path d="M49.5657 173.595C50.8072 173.528 50.8994 173.304 50.8994 172.29V167.118C50.8994 165.983 50.793 165.759 49.6969 165.706V165.522H55.4364C55.4364 165.983 55.5038 166.763 55.5534 167.54L55.3299 167.579C55.0533 166.235 54.8014 165.837 53.2051 165.837H51.9636C51.6089 165.837 51.5947 165.862 51.5947 166.206V169.296H53.1377C54.1806 169.296 54.4325 169.165 54.6276 168.281H54.8511V170.736H54.6276C54.4148 169.722 54.1381 169.668 53.1377 169.668H51.5947V172.24C51.5947 173.482 52.1374 173.482 53.23 173.482C54.0352 173.482 54.8262 173.467 55.2484 172.981C55.4612 172.73 55.7911 172.268 55.9862 171.676H56.2097C56.0926 172.166 55.8407 173.34 55.7343 173.787H49.5586V173.602L49.5657 173.595Z" fill="#7F9097"/>
<path d="M68.5822 170.257C67.8018 170.374 67.7627 170.548 67.7627 171.13V172.318C67.7627 172.779 67.7769 173.177 67.8798 173.439C67.0214 173.652 65.9005 173.982 64.8185 173.982C61.9417 173.982 59.9092 172.24 59.9092 169.732C59.9092 166.841 62.3497 165.323 64.9498 165.323C66.0707 165.323 67.0746 165.546 67.5215 165.678C67.5606 166.061 67.628 166.813 67.745 167.632L67.5322 167.657C67.0959 165.993 66.0672 165.639 64.7086 165.639C62.1759 165.639 60.8421 167.104 60.8421 169.544C60.8421 171.392 61.8992 173.648 64.815 173.648C65.5138 173.648 66.1097 173.57 66.5035 173.436C66.9008 173.304 67.0568 173.12 67.0568 172.538V171.389C67.0568 170.584 66.9895 170.36 65.4854 170.254V170.069H68.5751V170.254L68.5822 170.257Z" fill="#7F9097"/>
<path d="M69.3975 173.595C70.5716 173.542 70.678 173.318 70.678 172.276V166.983C70.678 165.94 70.5716 165.795 69.4649 165.717V165.518H72.5793C73.8847 165.518 75.3107 165.915 75.3107 167.604C75.3107 168.725 74.7183 169.385 73.7003 169.846C73.9131 170.254 74.4665 171.098 74.8744 171.655C75.5093 172.435 76.4316 173.567 77.1056 173.726L77.0666 173.897C75.8641 173.897 75.2327 173.829 73.2391 170.569C72.9092 170.094 72.5119 170.08 71.391 170.08V172.272C71.391 173.315 71.4974 173.538 72.6325 173.592V173.776H69.401V173.592L69.3975 173.595ZM72.1962 169.821C72.9624 169.821 73.4484 169.714 73.8067 169.424C74.243 169.079 74.4913 168.551 74.4913 167.799C74.4913 166.387 73.5796 165.781 72.2069 165.781C71.8521 165.781 71.6251 165.795 71.5081 165.805C71.4407 165.805 71.391 165.844 71.391 166.096V169.817H72.1962V169.821Z" fill="#7F9097"/>
<path d="M77.635 173.595C78.8766 173.528 78.9688 173.304 78.9688 172.29V167.118C78.9688 165.983 78.8624 165.759 77.7663 165.706V165.522H83.5057C83.5057 165.983 83.5731 166.763 83.6228 167.54L83.3993 167.579C83.1226 166.235 82.8707 165.837 81.2745 165.837H80.033C79.6782 165.837 79.664 165.862 79.664 166.206V169.296H81.2071C82.25 169.296 82.5018 169.165 82.6969 168.281H82.9204V170.736H82.6969C82.4841 169.722 82.2074 169.668 81.2071 169.668H79.664V172.24C79.664 173.482 80.2068 173.482 81.2993 173.482C82.1045 173.482 82.8956 173.467 83.3177 172.981C83.5305 172.73 83.8604 172.268 84.0555 171.676H84.279C84.1619 172.166 83.9101 173.34 83.8037 173.787H77.6279V173.602L77.635 173.595Z" fill="#7F9097"/>
<path d="M90.4475 173.595C91.1995 173.489 91.4762 173.411 91.4762 173.095C91.4762 172.751 91.0789 171.722 90.5929 170.509H87.5459C87.4146 170.761 86.7548 172.542 86.7548 172.95C86.7548 173.4 87.1096 173.478 87.8509 173.595V173.78H84.8535V173.595C85.7758 173.411 85.9496 173.29 86.4356 172.105L89.2982 165.387L89.4578 165.319L90.3411 167.76C90.9477 169.409 91.5436 171.059 92.0438 172.325C92.441 173.301 92.5439 173.446 93.4697 173.592V173.776H90.4475V173.592V173.595ZM89.1669 166.547C88.6384 167.721 88.1241 168.977 87.7019 170.083H90.4723L89.1918 166.547H89.1669Z" fill="#7F9097"/>
<path d="M95.9243 173.595C97.2439 173.528 97.3361 173.304 97.3361 172.3V165.834H96.5167C94.7892 165.834 94.6154 166.125 94.2216 167.508H94.0088C94.0868 166.728 94.1258 165.937 94.1542 165.199H94.3671C94.4593 165.358 94.5515 165.437 94.6579 165.476C94.7644 165.515 94.8956 165.515 95.0801 165.515H100.397C100.741 165.515 100.834 165.447 101.018 165.199L101.242 165.213C101.217 165.834 101.295 166.664 101.359 167.455L101.135 167.508C100.819 166.018 100.316 165.834 99.1949 165.834H98.0207V172.3C98.0207 173.304 98.1129 173.528 99.4857 173.595V173.78H95.9208V173.595H95.9243Z" fill="#7F9097"/>
<path d="M102.1 173.595C103.341 173.528 103.434 173.304 103.434 172.29V167.118C103.434 165.983 103.327 165.759 102.231 165.706V165.522H107.971C107.971 165.983 108.038 166.763 108.088 167.54L107.864 167.579C107.587 166.235 107.336 165.837 105.739 165.837H104.498C104.143 165.837 104.129 165.862 104.129 166.206V169.296H105.672C106.715 169.296 106.967 169.165 107.162 168.281H107.385V170.736H107.162C106.949 169.722 106.672 169.668 105.672 169.668H104.129V172.24C104.129 173.482 104.672 173.482 105.764 173.482C106.569 173.482 107.36 173.467 107.783 172.981C107.995 172.73 108.325 172.268 108.52 171.676H108.744C108.623 172.166 108.375 173.34 108.269 173.787H102.093V173.602L102.1 173.595Z" fill="#7F9097"/>
<path d="M114.097 167.434C113.873 166.667 113.554 165.625 112.277 165.625C111.326 165.625 110.851 166.245 110.851 167.104C110.851 168.214 111.656 168.647 112.515 169.083C113.096 169.374 114.717 169.942 114.717 171.591C114.717 172.964 113.66 173.953 112 173.978C111.457 173.953 110.996 173.872 110.666 173.765C110.351 173.659 110.177 173.567 110.099 173.514C109.992 173.169 109.861 172.219 109.783 171.428H109.996C110.209 172.141 110.776 173.631 112.319 173.631C113.334 173.631 113.955 173.077 113.955 171.914C113.955 170.58 112.873 170.133 112.174 169.736C112.057 169.668 110.117 169.051 110.117 167.441C110.117 166.345 111.014 165.316 112.571 165.316C113.008 165.316 113.391 165.355 114.114 165.593C114.168 166.043 114.231 166.529 114.327 167.427H114.104L114.097 167.434Z" fill="#7F9097"/>
<path d="M117.501 173.595C118.821 173.528 118.913 173.304 118.913 172.3V165.834H118.094C116.366 165.834 116.193 166.125 115.799 167.508H115.586C115.664 166.728 115.703 165.937 115.731 165.199H115.941C116.033 165.358 116.125 165.437 116.232 165.476C116.338 165.515 116.469 165.515 116.654 165.515H121.971C122.315 165.515 122.407 165.447 122.592 165.199L122.815 165.213C122.79 165.834 122.868 166.664 122.932 167.455L122.709 167.508C122.393 166.018 121.889 165.834 120.768 165.834H119.594V172.3C119.594 173.304 119.687 173.528 121.059 173.595V173.78H117.494V173.595H117.501Z" fill="#7F9097"/>
<path d="M131.793 173.595C132.545 173.489 132.822 173.411 132.822 173.095C132.822 172.751 132.425 171.722 131.939 170.509H128.892C128.76 170.761 128.101 172.542 128.101 172.95C128.101 173.4 128.455 173.478 129.197 173.595V173.78H126.199V173.595C127.121 173.411 127.295 173.29 127.781 172.105L130.644 165.387L130.804 165.319L131.687 167.76C132.293 169.409 132.889 171.059 133.389 172.325C133.787 173.301 133.89 173.446 134.815 173.592V173.776H131.793V173.592V173.595ZM130.513 166.547C129.984 167.721 129.47 168.977 129.048 170.083H131.818L130.537 166.547H130.513Z" fill="#7F9097"/>
<path d="M135.486 173.595C136.66 173.542 136.767 173.318 136.767 172.276V166.983C136.767 165.94 136.66 165.795 135.554 165.717V165.518H138.668C139.974 165.518 141.4 165.915 141.4 167.604C141.4 168.725 140.807 169.385 139.789 169.846C139.998 170.254 140.555 171.098 140.963 171.655C141.598 172.435 142.52 173.567 143.194 173.726L143.155 173.897C141.953 173.897 141.322 173.829 139.328 170.569C138.998 170.094 138.601 170.08 137.48 170.08V172.272C137.48 173.315 137.586 173.538 138.721 173.592V173.776H135.49V173.592L135.486 173.595ZM138.285 169.821C139.051 169.821 139.537 169.714 139.896 169.424C140.332 169.079 140.58 168.551 140.58 167.799C140.58 166.387 139.669 165.781 138.296 165.781C137.941 165.781 137.714 165.795 137.597 165.805C137.53 165.805 137.48 165.844 137.48 166.096V169.817H138.285V169.821Z" fill="#7F9097"/>
<path d="M152.183 171.378C151.999 172.077 151.694 173.159 151.499 173.609C151.077 173.677 149.835 173.978 148.845 173.978C145.387 173.978 143.911 171.761 143.922 169.768C143.922 167.129 146.139 165.319 149.122 165.319C150.417 165.319 151.247 165.61 151.616 165.688C151.722 166.348 151.786 166.983 151.868 167.735L151.644 167.774C151.275 166.242 150.378 165.649 148.661 165.649C146.047 165.649 144.873 167.377 144.873 169.438C144.873 171.999 146.405 173.663 148.739 173.663C150.573 173.663 151.325 172.673 151.96 171.314L152.183 171.382V171.378Z" fill="#7F9097"/>
<path d="M154.925 169.214H160.494V167.022C160.494 165.993 160.388 165.795 159.253 165.703V165.518H162.445V165.703C161.285 165.795 161.179 165.993 161.179 167.022V172.276C161.179 173.318 161.285 173.517 162.406 173.595V173.78H159.146V173.595C160.388 173.517 160.494 173.318 160.494 172.276V169.622H154.925V172.276C154.925 173.318 155.046 173.517 156.206 173.595V173.78H153.024V173.595C154.134 173.517 154.237 173.318 154.237 172.276V167.022C154.237 165.993 154.131 165.795 152.971 165.703V165.518H156.138V165.703C155.042 165.795 154.925 165.993 154.925 167.022V169.214Z" fill="#7F9097"/>
<path d="M30.8936 179.143H162.251" stroke="#7F9097" stroke-width="1.15" stroke-miterlimit="10"/>
<path d="M89.3799 199.543L97.4676 205.027L105.545 199.55" stroke="white" stroke-width="0.87" stroke-miterlimit="10"/>
</g>
<path d="M50.0928 5.10425V15.8203H70.8661V92.0027H73.3539V15.8203V5.10425H70.8661H50.0928Z" fill="url(#paint6_linear_3_481)"/>
<path d="M50 2.547H76.9099V2.89903V3.60308V5.10436V15.8204V84.5792V92.0028H87.3277V15.8204H105.903V5.10436H87.3277H79.3874V3.60308V2.547H105.903V0H50V2.547Z" fill="url(#paint7_linear_3_481)"/>
<path d="M140.318 89.4558V0L133.425 0.0207074L128.512 3.88263V89.4558V92.0028H138.276H150V89.4558H140.318Z" fill="url(#paint8_linear_3_481)"/>
<path d="M113.875 15.0233V18.2019L123.557 10.8404V89.4559H116.974H113.875V92.0029H116.974H126.034V89.4559V5.77747L113.875 15.0233Z" fill="url(#paint9_linear_3_481)"/>
<defs>
<linearGradient id="paint0_linear_3_481" x1="11.7949" y1="147.296" x2="11.7949" y2="119.475" gradientUnits="userSpaceOnUse">
<stop stop-color="#85754E"/>
<stop offset="0.38" stop-color="#FFFDE5"/>
<stop offset="1" stop-color="#FFFDE5"/>
</linearGradient>
<linearGradient id="paint1_linear_3_481" x1="44.9257" y1="147.296" x2="44.9257" y2="119.475" gradientUnits="userSpaceOnUse">
<stop stop-color="#85754E"/>
<stop offset="0.38" stop-color="#FFFDE5"/>
<stop offset="1" stop-color="#FFFDE5"/>
</linearGradient>
<linearGradient id="paint2_linear_3_481" x1="80.4376" y1="147.296" x2="80.4376" y2="119.475" gradientUnits="userSpaceOnUse">
<stop stop-color="#85754E"/>
<stop offset="0.38" stop-color="#FFFDE5"/>
<stop offset="1" stop-color="#FFFDE5"/>
</linearGradient>
<linearGradient id="paint3_linear_3_481" x1="116.679" y1="147.296" x2="116.679" y2="119.475" gradientUnits="userSpaceOnUse">
<stop stop-color="#85754E"/>
<stop offset="0.38" stop-color="#FFFDE5"/>
<stop offset="1" stop-color="#FFFDE5"/>
</linearGradient>
<linearGradient id="paint4_linear_3_481" x1="152.241" y1="147.296" x2="152.241" y2="119.475" gradientUnits="userSpaceOnUse">
<stop stop-color="#85754E"/>
<stop offset="0.38" stop-color="#FFFDE5"/>
<stop offset="1" stop-color="#FFFDE5"/>
</linearGradient>
<linearGradient id="paint5_linear_3_481" x1="186.063" y1="147.296" x2="186.063" y2="119.475" gradientUnits="userSpaceOnUse">
<stop stop-color="#85754E"/>
<stop offset="0.38" stop-color="#FFFDE5"/>
<stop offset="1" stop-color="#FFFDE5"/>
</linearGradient>
<linearGradient id="paint6_linear_3_481" x1="61.7233" y1="95.2744" x2="61.7233" y2="-6.38833" gradientUnits="userSpaceOnUse">
<stop stop-color="#B97A2C"/>
<stop offset="0.59" stop-color="#F6F4D8"/>
<stop offset="1" stop-color="#FFFDE5"/>
</linearGradient>
<linearGradient id="paint7_linear_3_481" x1="77.9465" y1="95.2745" x2="77.9465" y2="-6.38822" gradientUnits="userSpaceOnUse">
<stop stop-color="#B97A2C"/>
<stop offset="0.59" stop-color="#F6F4D8"/>
<stop offset="1" stop-color="#FFFDE5"/>
</linearGradient>
<linearGradient id="paint8_linear_3_481" x1="139.261" y1="95.2745" x2="139.261" y2="-6.38822" gradientUnits="userSpaceOnUse">
<stop stop-color="#B97A2C"/>
<stop offset="0.59" stop-color="#F6F4D8"/>
<stop offset="1" stop-color="#FFFDE5"/>
</linearGradient>
<linearGradient id="paint9_linear_3_481" x1="119.96" y1="95.2746" x2="119.96" y2="-6.38811" gradientUnits="userSpaceOnUse">
<stop stop-color="#B97A2C"/>
<stop offset="0.59" stop-color="#F6F4D8"/>
<stop offset="1" stop-color="#FFFDE5"/>
</linearGradient>
<clipPath id="clip0_3_481">
<rect width="200" height="85.2151" fill="white" transform="translate(0 120)"/>
</clipPath>
</defs>
</svg>
