<svg width="936" height="250" viewBox="0 0 936 250" fill="none" xmlns="http://www.w3.org/2000/svg">
<g clip-path="url(#clip0_994_513)">
<path d="M24.8 2.30005H0.5V107.3H77.45V87.5H24.8V2.30005Z" stroke="white"/>
<path d="M163.02 105.05C169.97 102.35 176.02 98.58 181.17 93.72C186.32 88.87 190.34 83.12 193.24 76.47C196.14 69.82 197.59 62.59 197.59 54.8C197.59 47.01 196.14 39.68 193.24 33.13C190.34 26.58 186.31 20.86 181.17 15.95C176.02 11.05 169.97 7.25 163.02 4.55C156.07 1.85 148.44 0.5 140.14 0.5C131.84 0.5 124.34 1.85 117.34 4.55C110.34 7.25 104.24 11.05 99.0404 15.95C93.8404 20.85 89.8104 26.6 86.9604 33.2C84.1104 39.8 82.6904 47 82.6904 54.8C82.6904 62.6 84.1104 69.8 86.9604 76.4C89.8104 83 93.8104 88.75 98.9604 93.65C104.11 98.55 110.21 102.35 117.26 105.05C124.31 107.75 131.98 109.1 140.29 109.1C148.6 109.1 156.06 107.75 163.01 105.05H163.02ZM127.1 86C123.1 84.4 119.62 82.1 116.68 79.1C113.73 76.1 111.43 72.53 109.78 68.38C108.13 64.23 107.31 59.71 107.31 54.8C107.31 49.89 108.13 45.25 109.78 41.15C111.43 37.05 113.76 33.5 116.76 30.5C119.76 27.5 123.23 25.2 127.19 23.6C131.14 22 135.46 21.2 140.16 21.2C144.86 21.2 149.21 22 153.21 23.6C157.21 25.2 160.68 27.5 163.63 30.5C166.58 33.5 168.88 37.05 170.53 41.15C172.18 45.25 173.01 49.8 173.01 54.8C173.01 59.8 172.19 64.35 170.53 68.45C168.88 72.55 166.56 76.1 163.56 79.1C160.56 82.1 157.08 84.4 153.13 86C149.18 87.6 144.85 88.4 140.15 88.4C135.45 88.4 131.1 87.6 127.1 86V86Z" stroke="white"/>
<path d="M243.35 30.5C246.35 27.5 249.9 25.2 254 23.6C258.1 22 262.6 21.2 267.5 21.2C272.7 21.2 277.5 22.23 281.9 24.28C286.3 26.33 290.3 29.41 293.9 33.51L309.5 19.11C304.5 13.01 298.33 8.39001 290.98 5.23001C283.63 2.08001 275.4 0.51001 266.31 0.51001C258.11 0.51001 250.56 1.84001 243.66 4.48001C236.76 7.13001 230.73 10.91 225.58 15.81C220.43 20.71 216.43 26.46 213.58 33.06C210.73 39.66 209.31 46.91 209.31 54.81C209.31 62.71 210.73 69.96 213.58 76.56C216.43 83.16 220.41 88.91 225.5 93.81C230.6 98.71 236.62 102.49 243.58 105.14C250.53 107.79 258.06 109.11 266.16 109.11C275.36 109.11 283.63 107.51 290.98 104.31C298.33 101.11 304.5 96.46 309.5 90.36L293.9 75.96C290.3 80.16 286.3 83.29 281.9 85.34C277.5 87.39 272.7 88.42 267.5 88.42C262.6 88.42 258.1 87.62 254 86.02C249.9 84.42 246.35 82.12 243.35 79.12C240.35 76.12 238.03 72.57 236.37 68.47C234.72 64.37 233.9 59.82 233.9 54.82C233.9 49.82 234.72 45.27 236.37 41.17C238.02 37.07 240.35 33.52 243.35 30.52V30.5Z" stroke="white"/>
<path d="M344.2 84.8H392.87L402.19 107.3H427.69L380.75 2.30005H356.75L309.95 107.3H334.85L344.21 84.8H344.2ZM368.58 26.16L385.23 66.34H351.87L368.58 26.16V26.16Z" stroke="white"/>
<path d="M455.15 107.3H479.45V22.1H513.05V2.30005H421.55V22.1H455.15V107.3Z" stroke="white"/>
<path d="M550.4 2.30005H526.1V107.3H550.4V2.30005Z" stroke="white"/>
<path d="M667.17 93.72C672.32 88.87 676.34 83.12 679.24 76.47C682.14 69.82 683.59 62.59 683.59 54.8C683.59 47.01 682.14 39.68 679.24 33.13C676.34 26.58 672.31 20.86 667.17 15.95C662.02 11.05 655.97 7.25 649.02 4.55C642.07 1.85 634.44 0.5 626.14 0.5C617.84 0.5 610.34 1.85 603.34 4.55C596.34 7.25 590.24 11.05 585.04 15.95C579.84 20.85 575.81 26.6 572.96 33.2C570.11 39.8 568.69 47 568.69 54.8C568.69 62.6 570.11 69.8 572.96 76.4C575.81 83 579.81 88.75 584.96 93.65C590.11 98.55 596.21 102.35 603.26 105.05C610.31 107.75 617.98 109.1 626.29 109.1C634.6 109.1 642.06 107.75 649.01 105.05C655.96 102.35 662.01 98.58 667.16 93.72H667.17ZM626.14 88.4C621.44 88.4 617.09 87.6 613.09 86C609.09 84.4 605.61 82.1 602.67 79.1C599.72 76.1 597.42 72.53 595.77 68.38C594.12 64.23 593.3 59.71 593.3 54.8C593.3 49.89 594.12 45.25 595.77 41.15C597.42 37.05 599.75 33.5 602.75 30.5C605.75 27.5 609.22 25.2 613.18 23.6C617.13 22 621.45 21.2 626.15 21.2C630.85 21.2 635.2 22 639.2 23.6C643.2 25.2 646.67 27.5 649.62 30.5C652.57 33.5 654.87 37.05 656.52 41.15C658.17 45.25 659 49.8 659 54.8C659 59.8 658.18 64.35 656.52 68.45C654.87 72.55 652.55 76.1 649.55 79.1C646.55 82.1 643.07 84.4 639.12 86C635.17 87.6 630.84 88.4 626.14 88.4V88.4Z" stroke="white"/>
<path d="M725.89 43.57L778.24 107.3H798.19V2.30005H774.19V66L721.99 2.30005H701.89V107.3H725.89V43.57Z" stroke="white"/>
<path d="M194.75 194.2C191.15 192 187.17 190.25 182.82 188.95C178.47 187.65 174.12 186.5 169.77 185.5C165.42 184.5 161.44 183.5 157.85 182.5C154.25 181.5 151.35 180.17 149.15 178.52C146.95 176.87 145.85 174.69 145.85 172C145.85 169.7 146.5 167.68 147.8 165.92C149.1 164.17 151.25 162.75 154.25 161.65C157.25 160.55 161.1 160 165.8 160C170.5 160 175.3 160.67 180.2 162.02C185.1 163.37 190 165.45 194.9 168.25L202.4 149.8C197.5 146.7 191.85 144.38 185.45 142.82C179.05 141.27 172.55 140.5 165.95 140.5C156.05 140.5 147.82 141.98 141.28 144.92C134.73 147.87 129.83 151.82 126.58 156.77C123.33 161.72 121.7 167.19 121.7 173.19C121.7 178.79 122.82 183.39 125.08 186.99C127.33 190.59 130.26 193.49 133.86 195.69C137.46 197.89 141.43 199.69 145.78 201.09C150.13 202.49 154.48 203.67 158.83 204.62C163.18 205.57 167.16 206.57 170.76 207.62C174.36 208.67 177.26 210.02 179.46 211.67C181.66 213.32 182.76 215.55 182.76 218.34C182.76 220.54 182.06 222.49 180.66 224.19C179.26 225.89 177.08 227.22 174.14 228.17C171.19 229.12 167.31 229.59 162.52 229.59C156.22 229.59 150 228.57 143.84 226.52C137.69 224.47 132.37 221.85 127.87 218.64L119.62 236.94C124.32 240.54 130.52 243.46 138.22 245.71C145.92 247.96 153.97 249.09 162.37 249.09C172.37 249.09 180.64 247.59 187.19 244.59C193.74 241.59 198.67 237.64 201.96 232.74C205.26 227.84 206.91 222.44 206.91 216.54C206.91 211.04 205.79 206.49 203.53 202.89C201.27 199.29 198.36 196.39 194.76 194.19L194.75 194.2Z" stroke="white"/>
<path d="M210.19 162.1H243.79V247.3H268.09V162.1H301.69V142.3H210.19V162.1Z" stroke="white"/>
<path d="M384.49 213.55C391.29 210.55 396.54 206.23 400.24 200.57C403.94 194.92 405.79 188.19 405.79 180.4C405.79 172.61 403.94 165.7 400.24 160C396.54 154.3 391.29 149.93 384.49 146.88C377.69 143.83 369.59 142.3 360.19 142.3H314.74V247.3H339.04V218.05H360.19C360.57 218.05 360.94 218.03 361.32 218.03L381.49 247.3H407.74L384.28 213.63C384.35 213.6 384.42 213.58 384.49 213.55V213.55ZM375.64 166.9C379.34 170.1 381.19 174.6 381.19 180.4C381.19 186.2 379.34 190.58 375.64 193.82C371.94 197.07 366.34 198.7 358.84 198.7H339.04V162.1H358.84C366.34 162.1 371.94 163.7 375.64 166.9Z" stroke="white"/>
<path d="M457.99 142.3L411.19 247.3H436.09L445.45 224.8H494.12L503.44 247.3H528.94L481.99 142.3H457.99V142.3ZM453.12 206.35L469.83 166.17L486.48 206.35H453.12V206.35Z" stroke="white"/>
<path d="M522.79 162.1H556.39V247.3H580.69V162.1H614.29V142.3H522.79V162.1Z" stroke="white"/>
<path d="M651.49 203.5H700.24V184.6H651.49V161.8H706.69V142.3H627.34V247.3H708.64V227.8H651.49V203.5Z" stroke="white"/>
<path d="M755.51 170.5C758.56 167.5 762.18 165.2 766.39 163.6C770.59 162 775.24 161.2 780.34 161.2C785.44 161.2 790.54 162.18 795.04 164.13C799.54 166.08 803.69 169.06 807.49 173.05L823.09 158.65C817.99 152.75 811.71 148.25 804.27 145.15C796.82 142.05 788.44 140.5 779.15 140.5C770.75 140.5 763.05 141.83 756.05 144.47C749.05 147.12 742.95 150.9 737.75 155.8C732.55 160.7 728.52 166.45 725.67 173.05C722.82 179.65 721.4 186.9 721.4 194.8C721.4 202.7 722.82 209.95 725.67 216.55C728.52 223.15 732.52 228.9 737.67 233.8C742.82 238.7 748.87 242.48 755.82 245.13C762.77 247.78 770.39 249.1 778.7 249.1C786.2 249.1 793.72 247.95 801.28 245.65C808.83 243.35 815.45 240.05 821.16 235.75V193.15H798.96V223.97C797.35 224.81 795.73 225.51 794.08 226.07C789.53 227.62 784.85 228.4 780.06 228.4C775.27 228.4 770.48 227.6 766.33 226C762.18 224.4 758.58 222.08 755.53 219.02C752.48 215.97 750.13 212.4 748.48 208.29C746.83 204.19 746.01 199.69 746.01 194.79C746.01 189.89 746.83 185.24 748.48 181.14C750.13 177.04 752.48 173.49 755.53 170.49L755.51 170.5Z" stroke="white"/>
<path d="M934.84 142.3H910.99L882.88 188.91L854.89 142.3H829.09L869.74 209.87V247.3H894.04V210.12L934.84 142.3Z" stroke="white"/>
</g>
<defs>
<clipPath id="clip0_994_513">
<rect width="935.72" height="249.6" fill="white"/>
</clipPath>
</defs>
</svg>
