<svg width="1023" height="250" viewBox="0 0 1023 250" fill="none" xmlns="http://www.w3.org/2000/svg">
<g clip-path="url(#clip0_994_530)">
<path d="M98.98 15.95C93.83 11.05 87.78 7.25 80.83 4.55C73.88 1.85 66.25 0.5 57.95 0.5C49.65 0.5 42.15 1.85 35.15 4.55C28.15 7.25 22.05 11.05 16.85 15.95C11.65 20.85 7.62 26.6 4.77 33.2C1.92 39.8 0.5 47 0.5 54.8C0.5 62.6 1.92 69.8 4.77 76.4C7.62 83 11.62 88.75 16.77 93.65C21.92 98.55 28.02 102.35 35.07 105.05C42.12 107.75 49.79 109.1 58.1 109.1C66.41 109.1 73.87 107.75 80.82 105.05C87.77 102.35 93.82 98.58 98.97 93.72C104.12 88.87 108.14 83.12 111.04 76.47C113.94 69.82 115.39 62.59 115.39 54.8C115.39 47.01 113.94 39.68 111.04 33.13C108.14 26.58 104.11 20.86 98.97 15.96L98.98 15.95ZM88.33 68.45C86.68 72.55 84.36 76.1 81.36 79.1C78.36 82.1 74.88 84.4 70.93 86C66.98 87.6 62.65 88.4 57.95 88.4C53.25 88.4 48.9 87.6 44.9 86C40.9 84.4 37.42 82.1 34.48 79.1C31.53 76.1 29.23 72.53 27.58 68.38C25.93 64.23 25.11 59.71 25.11 54.8C25.11 49.89 25.93 45.25 27.58 41.15C29.23 37.05 31.56 33.5 34.56 30.5C37.56 27.5 41.03 25.2 44.99 23.6C48.94 22 53.26 21.2 57.96 21.2C62.66 21.2 67.01 22 71.01 23.6C75.01 25.2 78.48 27.5 81.43 30.5C84.38 33.5 86.68 37.05 88.33 41.15C89.98 45.25 90.81 49.8 90.81 54.8C90.81 59.8 89.99 64.35 88.33 68.45V68.45Z" stroke="white"/>
<path d="M210.05 107.3H230V2.30005H206V66L153.8 2.30005H133.7V107.3H157.7V43.57L210.05 107.3Z" stroke="white"/>
<path d="M279.05 63.5H327.8V44.6H279.05V21.8H334.25V2.30005H254.9V107.3H336.2V87.8H279.05V63.5Z" stroke="white"/>
<path d="M422.3 2.30005H398V107.3H422.3V2.30005Z" stroke="white"/>
<path d="M471.19 43.57L523.54 107.3H543.49V2.30005H519.49V66L467.29 2.30005H447.19V107.3H471.19V43.57Z" stroke="white"/>
<path d="M252.34 142.3L205.54 247.3H230.44L239.8 224.8H288.47L297.79 247.3H323.29L276.34 142.3H252.34V142.3ZM247.47 206.35L264.18 166.16L280.83 206.35H247.47V206.35Z" stroke="white"/>
<path d="M474.79 142.3L436.12 207.5L396.79 142.3H376.69V247.3H399.49V185.64L430.24 236.2H441.19L472.1 184.28L472.24 247.3H495.04L494.74 142.3H474.79Z" stroke="white"/>
<path d="M544.24 142.3H519.94V247.3H544.24V142.3Z" stroke="white"/>
<path d="M593.44 142.3H569.14V247.3H646.08V227.5H593.44V142.3Z" stroke="white"/>
<path d="M684.031 142.3H659.73V247.3H736.68V227.5H684.031V142.3Z" stroke="white"/>
<path d="M774.63 142.3H750.33V247.3H774.63V142.3Z" stroke="white"/>
<path d="M891.41 155.95C886.26 151.05 880.21 147.25 873.26 144.55C866.31 141.85 858.68 140.5 850.38 140.5C842.08 140.5 834.58 141.85 827.58 144.55C820.58 147.25 814.48 151.05 809.28 155.95C804.08 160.85 800.05 166.6 797.2 173.2C794.35 179.8 792.93 187 792.93 194.8C792.93 202.6 794.35 209.8 797.2 216.4C800.05 223 804.05 228.75 809.2 233.65C814.35 238.55 820.45 242.35 827.5 245.05C834.55 247.75 842.22 249.1 850.53 249.1C858.84 249.1 866.3 247.75 873.25 245.05C880.2 242.35 886.25 238.58 891.4 233.72C896.55 228.87 900.57 223.12 903.47 216.47C906.37 209.82 907.82 202.59 907.82 194.8C907.82 187.01 906.37 179.68 903.47 173.13C900.57 166.58 896.54 160.86 891.4 155.96L891.41 155.95ZM880.76 208.45C879.11 212.55 876.79 216.1 873.79 219.1C870.79 222.1 867.31 224.4 863.36 226C859.41 227.6 855.08 228.4 850.38 228.4C845.68 228.4 841.33 227.6 837.33 226C833.33 224.4 829.85 222.1 826.91 219.1C823.96 216.1 821.66 212.53 820.01 208.38C818.36 204.23 817.54 199.71 817.54 194.8C817.54 189.89 818.36 185.25 820.01 181.15C821.66 177.05 823.99 173.5 826.99 170.5C829.99 167.5 833.46 165.2 837.42 163.6C841.37 162 845.69 161.2 850.39 161.2C855.09 161.2 859.44 162 863.44 163.6C867.44 165.2 870.91 167.5 873.86 170.5C876.81 173.5 879.11 177.05 880.76 181.15C882.41 185.25 883.24 189.8 883.24 194.8C883.24 199.8 882.42 204.35 880.76 208.45Z" stroke="white"/>
<path d="M998.43 142.3V206L946.23 142.3H926.13V247.3H950.13V183.57L1002.48 247.3H1022.43V142.3H998.43Z" stroke="white"/>
</g>
<defs>
<clipPath id="clip0_994_530">
<rect width="1022.93" height="249.6" fill="white"/>
</clipPath>
</defs>
</svg>
